<svg width="22" height="25" viewBox="0 0 22 25" fill="none" xmlns="http://www.w3.org/2000/svg">
<path fill-rule="evenodd" clip-rule="evenodd" d="M3.11834 10.9375V7.8125C3.11834 5.7405 3.93968 3.75336 5.40169 2.28823C6.86369 0.8231 8.84659 0 10.9142 0C12.9818 0 14.9647 0.8231 16.4267 2.28823C17.8887 3.75336 18.71 5.7405 18.71 7.8125V10.9375C19.5371 10.9375 20.3302 11.2667 20.915 11.8528C21.4998 12.4388 21.8284 13.2337 21.8284 14.0625V21.875C21.8284 22.7038 21.4998 23.4987 20.915 24.0847C20.3302 24.6708 19.5371 25 18.71 25H3.11834C2.2913 25 1.49814 24.6708 0.91334 24.0847C0.328538 23.4987 0 22.7038 0 21.875V14.0625C0 13.2337 0.328538 12.4388 0.91334 11.8528C1.49814 11.2667 2.2913 10.9375 3.11834 10.9375V10.9375ZM15.5917 7.8125V10.9375H6.23667V7.8125C6.23667 6.5693 6.72948 5.37701 7.60668 4.49794C8.48389 3.61886 9.67363 3.125 10.9142 3.125C12.1547 3.125 13.3445 3.61886 14.2217 4.49794C15.0989 5.37701 15.5917 6.5693 15.5917 7.8125V7.8125Z" fill="#049DBF"/>
</svg>
