<svg width="25" height="6" viewBox="0 0 25 6" fill="none" xmlns="http://www.w3.org/2000/svg">
<path d="M12.5 5.51103C14.0341 5.51103 15.2778 4.27734 15.2778 2.75552C15.2778 1.23369 14.0341 0 12.5 0C10.9659 0 9.72224 1.23369 9.72224 2.75552C9.72224 4.27734 10.9659 5.51103 12.5 5.51103Z" fill="#049DBF"/>
<path d="M22.2222 5.51103C23.7564 5.51103 25 4.27734 25 2.75552C25 1.23369 23.7564 0 22.2222 0C20.6881 0 19.4445 1.23369 19.4445 2.75552C19.4445 4.27734 20.6881 5.51103 22.2222 5.51103Z" fill="#049DBF"/>
<path d="M2.77776 5.51103C4.31188 5.51103 5.55553 4.27734 5.55553 2.75552C5.55553 1.23369 4.31188 0 2.77776 0C1.24365 0 0 1.23369 0 2.75552C0 4.27734 1.24365 5.51103 2.77776 5.51103Z" fill="#049DBF"/>
</svg>
