<svg width="23" height="26" viewBox="0 0 23 26" fill="none" xmlns="http://www.w3.org/2000/svg">
<path d="M11.9405 18.2683C13.9795 18.2683 15.6012 16.6045 15.6012 14.5183C15.6012 12.432 13.9795 10.7683 11.9405 10.7683C9.90147 10.7683 8.27978 12.432 8.27978 14.5183C8.27978 16.6045 9.90147 18.2683 11.9405 18.2683Z" fill="#049DBF"/>
<path d="M22.6993 12.2508C22.5529 11.522 22.3369 10.812 22.0587 10.1408C21.7841 9.47578 21.4437 8.83328 21.0459 8.22703C20.6505 7.62828 20.2003 7.06953 19.7061 6.56578C19.2131 6.05828 18.6652 5.59578 18.0807 5.18953C17.4913 4.78203 16.8629 4.43453 16.2162 4.15328C15.5597 3.86703 14.8666 3.64703 14.1528 3.49578C13.4206 3.34203 12.6653 3.26828 11.91 3.27078V0.76828L7.05952 4.51828L11.91 8.26828V5.77078C12.5006 5.76828 13.0912 5.82578 13.661 5.94578C14.215 6.06328 14.7543 6.23453 15.2644 6.45703C15.7684 6.67453 16.2565 6.94703 16.714 7.26203C17.1692 7.57703 17.5951 7.93703 17.9807 8.33328C18.365 8.72578 18.7177 9.16203 19.0227 9.62703C19.3327 10.097 19.5975 10.597 19.811 11.1158C20.0282 11.637 20.1942 12.1895 20.3089 12.7545C20.4236 13.3283 20.4821 13.922 20.4821 14.5183C20.4821 15.1145 20.4236 15.7083 20.3089 16.2808C20.1942 16.8483 20.0282 17.4008 19.811 17.9245C19.5975 18.4408 19.3327 18.9408 19.0252 19.4095C18.7165 19.8758 18.3638 20.312 17.9782 20.7083C17.5938 21.1033 17.1692 21.462 16.714 21.7758C16.2601 22.0895 15.7732 22.3608 15.2632 22.582C14.7543 22.8033 14.2162 22.9745 13.6634 23.092C12.5408 23.327 11.3377 23.327 10.2199 23.092C9.66595 22.9745 9.1266 22.8033 8.61654 22.5808C8.10892 22.3608 7.62205 22.0895 7.16568 21.7745C6.71297 21.462 6.28833 21.102 5.90273 20.707C5.51836 20.312 5.16571 19.8758 4.85943 19.412C4.54949 18.942 4.2847 18.442 4.07116 17.9245C3.85395 17.402 3.688 16.8495 3.5733 16.2845C3.45738 15.7083 3.3988 15.1145 3.3988 14.5183H0.958328C0.958328 15.282 1.03398 16.0445 1.18163 16.7858C1.32806 17.5133 1.54404 18.2233 1.82226 18.897C2.09681 19.562 2.43726 20.2045 2.83627 20.8108C3.23041 21.407 3.68068 21.9658 4.17488 22.472C4.67029 22.9808 5.21696 23.4433 5.79901 23.8458C6.38351 24.252 7.01193 24.6008 7.66476 24.8833C8.32125 25.1695 9.01434 25.3895 9.72818 25.5408C10.4506 25.6908 11.1949 25.7683 11.9405 25.7683C12.686 25.7683 13.4304 25.6908 14.154 25.5395C14.8654 25.3883 15.5585 25.1683 16.2137 24.8833C16.869 24.5995 17.4974 24.2508 18.0807 23.8458C18.664 23.4433 19.2107 22.9808 19.7048 22.472C20.199 21.9658 20.6493 21.4058 21.0471 20.807C21.4437 20.2033 21.7841 19.5595 22.0587 18.897C22.3381 18.222 22.5529 17.512 22.6993 16.782C22.847 16.0445 22.9226 15.282 22.9226 14.5183C22.9226 13.7545 22.847 12.992 22.6993 12.2508V12.2508Z" fill="#049DBF"/>
</svg>
