<svg width="511" height="221" viewBox="0 0 511 221" fill="none" xmlns="http://www.w3.org/2000/svg">
<path d="M419.793 99.3626C423.379 99.3626 426.287 96.4536 426.287 92.8652C426.287 89.2767 423.379 86.3678 419.793 86.3678C416.206 86.3678 413.299 89.2767 413.299 92.8652C413.299 96.4536 416.206 99.3626 419.793 99.3626Z" fill="url(#paint0_linear_41_276)" stroke="#231F20" stroke-miterlimit="10"/>
<path d="M412.232 193.196C412.821 190.702 411.277 188.204 408.785 187.615C406.292 187.027 403.795 188.571 403.207 191.065C402.618 193.558 404.162 196.057 406.654 196.646C409.147 197.234 411.644 195.69 412.232 193.196Z" fill="url(#paint1_linear_41_276)" stroke="#231F20" stroke-miterlimit="10"/>
<path d="M308.345 201.649C313.076 199.688 315.323 194.261 313.363 189.526C311.403 184.792 305.979 182.544 301.247 184.505C296.515 186.466 294.268 191.894 296.228 196.628C298.188 201.362 303.613 203.61 308.345 201.649Z" fill="url(#paint2_linear_41_276)" stroke="#231F20" stroke-miterlimit="10"/>
<path d="M311.383 199.635C315.005 196.012 315.005 190.137 311.383 186.514C307.762 182.89 301.89 182.89 298.268 186.514C294.647 190.137 294.647 196.012 298.268 199.635C301.89 203.259 307.762 203.259 311.383 199.635Z" fill="url(#paint3_linear_41_276)" stroke="#231F20" stroke-miterlimit="10"/>
<path d="M505.639 177.982C510.761 177.982 514.913 173.828 514.913 168.703C514.913 163.579 510.761 159.425 505.639 159.425C500.517 159.425 496.365 163.579 496.365 168.703C496.365 173.828 500.517 177.982 505.639 177.982Z" fill="url(#paint4_linear_41_276)" stroke="#231F20" stroke-miterlimit="10"/>
<path d="M352.091 144.826C353.626 144.826 354.871 143.581 354.871 142.045C354.871 140.509 353.626 139.264 352.091 139.264C350.556 139.264 349.311 140.509 349.311 142.045C349.311 143.581 350.556 144.826 352.091 144.826Z" fill="url(#paint5_linear_41_276)" stroke="#231F20" stroke-miterlimit="10"/>
<path d="M242.658 211.633C244.193 211.633 245.437 210.388 245.437 208.852C245.437 207.316 244.193 206.071 242.658 206.071C241.122 206.071 239.878 207.316 239.878 208.852C239.878 210.388 241.122 211.633 242.658 211.633Z" fill="url(#paint6_linear_41_276)" stroke="#231F20" stroke-miterlimit="10"/>
<path d="M409.555 34.0791C409.883 32.0565 408.51 30.1508 406.489 29.8224C404.467 29.4941 402.562 30.8676 402.234 32.8902C401.906 34.9128 403.279 36.8185 405.3 37.1469C407.322 37.4752 409.227 36.1017 409.555 34.0791Z" fill="url(#paint7_linear_41_276)" stroke="#231F20" stroke-miterlimit="10"/>
<g style="mix-blend-mode:color-dodge">
<path d="M504.184 250.636C550.3 250.636 587.685 213.233 587.685 167.093C587.685 120.953 550.3 83.5495 504.184 83.5495C458.068 83.5495 420.684 120.953 420.684 167.093C420.684 213.233 458.068 250.636 504.184 250.636Z" fill="url(#paint8_radial_41_276)" style="mix-blend-mode:color-dodge"/>
<path d="M504.184 250.636C550.3 250.636 587.685 213.233 587.685 167.093C587.685 120.953 550.3 83.5495 504.184 83.5495C458.068 83.5495 420.684 120.953 420.684 167.093C420.684 213.233 458.068 250.636 504.184 250.636Z" stroke="#231F20" stroke-miterlimit="10"/>
</g>
<g opacity="0.39">
<path style="mix-blend-mode:screen" opacity="0.55" d="M383.9 243.27C394.472 232.692 394.472 215.542 383.9 204.964C373.328 194.387 356.187 194.387 345.614 204.964C335.042 215.542 335.042 232.692 345.614 243.27C356.187 253.847 373.328 253.847 383.9 243.27Z" stroke="url(#paint9_linear_41_276)" stroke-width="6" stroke-miterlimit="10"/>
<path style="mix-blend-mode:screen" opacity="0.55" d="M364.757 248.27C378.092 248.27 388.901 237.455 388.901 224.114C388.901 210.773 378.092 199.958 364.757 199.958C351.423 199.958 340.614 210.773 340.614 224.114C340.614 237.455 351.423 248.27 364.757 248.27Z" stroke="url(#paint10_linear_41_276)" stroke-width="6" stroke-miterlimit="10"/>
<path style="mix-blend-mode:screen" opacity="0.55" d="M364.757 245.049C376.313 245.049 385.682 235.676 385.682 224.114C385.682 212.552 376.313 203.179 364.757 203.179C353.201 203.179 343.833 212.552 343.833 224.114C343.833 235.676 353.201 245.049 364.757 245.049Z" stroke="url(#paint11_linear_41_276)" stroke-width="6" stroke-miterlimit="10"/>
<path style="mix-blend-mode:screen" opacity="0.55" d="M371.622 240.686C380.77 236.895 385.114 226.402 381.324 217.25C377.535 208.097 367.048 203.751 357.9 207.542C348.752 211.333 344.408 221.826 348.197 230.978C351.986 240.131 362.474 244.477 371.622 240.686Z" stroke="url(#paint12_linear_41_276)" stroke-width="6" stroke-miterlimit="10"/>
<path style="mix-blend-mode:screen" opacity="0.55" d="M379.634 225.342C380.314 217.119 374.203 209.901 365.984 209.221C357.766 208.541 350.552 214.655 349.872 222.878C349.192 231.101 355.303 238.318 363.522 238.999C371.74 239.679 378.954 233.565 379.634 225.342Z" stroke="url(#paint13_linear_41_276)" stroke-width="6" stroke-miterlimit="10"/>
<path style="mix-blend-mode:screen" opacity="0.55" d="M373.206 232.57C377.872 227.902 377.872 220.333 373.206 215.664C368.54 210.996 360.974 210.996 356.308 215.664C351.642 220.333 351.642 227.902 356.308 232.57C360.974 237.238 368.54 237.238 373.206 232.57Z" stroke="url(#paint14_linear_41_276)" stroke-width="6" stroke-miterlimit="10"/>
</g>
<g opacity="0.39">
<path style="mix-blend-mode:screen" opacity="0.55" d="M504.717 195.424C519.668 195.424 531.789 183.297 531.789 168.338C531.789 153.379 519.668 141.252 504.717 141.252C489.765 141.252 477.645 153.379 477.645 168.338C477.645 183.297 489.765 195.424 504.717 195.424Z" stroke="url(#paint15_linear_41_276)" stroke-width="6" stroke-miterlimit="10"/>
<path style="mix-blend-mode:screen" opacity="0.55" d="M504.717 192.494C518.051 192.494 528.861 181.679 528.861 168.338C528.861 154.997 518.051 144.182 504.717 144.182C491.383 144.182 480.573 154.997 480.573 168.338C480.573 181.679 491.383 192.494 504.717 192.494Z" stroke="url(#paint16_linear_41_276)" stroke-width="6" stroke-miterlimit="10"/>
<path style="mix-blend-mode:screen" opacity="0.55" d="M504.717 189.273C516.273 189.273 525.642 179.9 525.642 168.338C525.642 156.776 516.273 147.402 504.717 147.402C493.161 147.402 483.792 156.776 483.792 168.338C483.792 179.9 493.161 189.273 504.717 189.273Z" stroke="url(#paint17_linear_41_276)" stroke-width="6" stroke-miterlimit="10"/>
<path style="mix-blend-mode:screen" opacity="0.55" d="M507.591 186.019C517.365 184.431 524.002 175.218 522.415 165.439C520.829 155.66 511.62 149.02 501.846 150.607C492.073 152.194 485.436 161.408 487.022 171.187C488.608 180.966 497.818 187.606 507.591 186.019Z" stroke="url(#paint18_linear_41_276)" stroke-width="6" stroke-miterlimit="10"/>
<path style="mix-blend-mode:screen" opacity="0.55" d="M519.479 170.743C520.8 162.599 515.273 154.925 507.132 153.603C498.992 152.281 491.322 157.812 490.001 165.956C488.68 174.1 494.207 181.774 502.347 183.096C510.488 184.418 518.158 178.888 519.479 170.743Z" stroke="url(#paint19_linear_41_276)" stroke-width="6" stroke-miterlimit="10"/>
<path style="mix-blend-mode:screen" opacity="0.55" d="M504.717 180.292C511.316 180.292 516.665 174.94 516.665 168.338C516.665 161.736 511.316 156.384 504.717 156.384C498.118 156.384 492.769 161.736 492.769 168.338C492.769 174.94 498.118 180.292 504.717 180.292Z" stroke="url(#paint20_linear_41_276)" stroke-width="6" stroke-miterlimit="10"/>
</g>
<g filter="url(#filter0_d_41_276)">
<path d="M487.6 52.0288C487.856 52.0655 488.093 52.1865 488.273 52.3725C488.454 52.5586 488.567 52.7993 488.596 53.057C488.753 53.7661 488.977 54.4588 489.265 55.1257C489.82 56.248 490.648 57.2128 491.673 57.9315C491.908 58.0802 492.15 58.2351 492.373 58.4023C492.927 58.7707 493.547 59.0293 494.199 59.1641H494.348C494.614 59.1641 494.719 59.065 494.657 58.8111C494.642 58.7461 494.624 58.6819 494.601 58.6191C494.546 58.4394 494.552 58.297 494.775 58.2289C494.892 58.1917 494.898 58.0864 494.849 57.9811C494.826 57.939 494.805 57.8956 494.787 57.851C494.776 57.8281 494.77 57.803 494.77 57.7776C494.769 57.7521 494.774 57.7268 494.784 57.7034C494.794 57.68 494.809 57.6589 494.827 57.6417C494.846 57.6244 494.868 57.6113 494.892 57.6033C495.084 57.5475 495.115 57.4298 495.059 57.2626C495.056 57.2296 495.056 57.1965 495.059 57.1635C495.049 57.1318 495.045 57.0983 495.049 57.0651C495.052 57.0319 495.062 56.9998 495.078 56.9707C495.095 56.9416 495.117 56.9162 495.143 56.8961C495.17 56.876 495.2 56.8616 495.233 56.8538C495.357 56.8105 495.443 56.7361 495.418 56.5999C495.408 56.5595 495.405 56.5174 495.411 56.476C495.417 56.4347 495.432 56.395 495.454 56.3596C495.476 56.3241 495.505 56.2936 495.539 56.2699C495.574 56.2462 495.613 56.2299 495.654 56.222C495.687 56.2167 495.719 56.2041 495.746 56.1852C495.774 56.1663 495.798 56.1414 495.815 56.1125C495.832 56.0835 495.842 56.0511 495.846 56.0176C495.849 55.984 495.845 55.9502 495.833 55.9185C495.803 55.8402 495.804 55.7533 495.835 55.6753C495.866 55.5973 495.925 55.5338 496 55.4973C496.043 55.4715 496.075 55.4306 496.09 55.3826C496.105 55.3347 496.102 55.2829 496.081 55.2372C496.054 55.159 496.035 55.078 496.025 54.9956C496.025 54.9523 496.025 54.8718 496.062 54.8594C496.329 54.7665 496.335 54.593 496.254 54.3577C496.24 54.2913 496.25 54.222 496.283 54.1627C496.316 54.1034 496.37 54.0582 496.434 54.0356C496.462 54.0265 496.487 54.0114 496.508 53.9913C496.529 53.9712 496.546 53.9467 496.557 53.9194C496.567 53.8922 496.572 53.8629 496.57 53.8338C496.568 53.8046 496.559 53.7762 496.545 53.7507C496.528 53.7033 496.528 53.6514 496.545 53.6039C496.562 53.5564 496.595 53.5163 496.638 53.4905C496.666 53.4729 496.69 53.4499 496.709 53.4228C496.728 53.3957 496.741 53.3651 496.748 53.3328C496.755 53.3004 496.756 53.2671 496.749 53.2346C496.743 53.2021 496.731 53.1712 496.712 53.1437C496.632 52.9826 496.712 52.8587 496.849 52.7596C496.892 52.7338 496.923 52.6925 496.937 52.6442C496.951 52.5959 496.946 52.5442 496.923 52.4995C496.888 52.4236 496.879 52.338 496.9 52.2568C496.92 52.1756 496.967 52.1039 497.034 52.0535C497.17 51.9359 497.208 51.8182 497.078 51.6695C497.041 51.6405 497.012 51.6037 496.992 51.5619C496.972 51.5201 496.962 51.4743 496.962 51.428C496.962 51.3816 496.972 51.3358 496.992 51.294C497.012 51.2522 497.041 51.2154 497.078 51.1864C497.1 51.1672 497.118 51.1434 497.13 51.1167C497.142 51.09 497.149 51.0609 497.149 51.0315C497.149 51.0021 497.142 50.9731 497.13 50.9464C497.118 50.9197 497.1 50.8959 497.078 50.8767L497.016 50.8024C496.985 50.7739 496.96 50.7395 496.944 50.7011C496.927 50.6627 496.918 50.6213 496.918 50.5794C496.918 50.5375 496.927 50.4961 496.944 50.4577C496.96 50.4193 496.985 50.3848 497.016 50.3564C497.052 50.3222 497.085 50.2849 497.115 50.2449C497.137 50.2091 497.145 50.1663 497.137 50.1249C497.129 50.0836 497.105 50.0468 497.071 50.0219C496.91 49.9043 496.867 49.7742 497.003 49.6069C497.019 49.5924 497.032 49.5747 497.041 49.555C497.049 49.5353 497.054 49.5139 497.054 49.4924C497.054 49.4708 497.049 49.4494 497.041 49.4297C497.032 49.41 497.019 49.3923 497.003 49.3778C496.963 49.3488 496.928 49.3114 496.903 49.2682C496.878 49.225 496.862 49.1769 496.857 49.1271C496.851 49.0773 496.857 49.027 496.872 48.9794C496.888 48.9319 496.914 48.8882 496.948 48.8513C496.959 48.8339 496.967 48.8142 496.97 48.7934C496.973 48.7727 496.972 48.7515 496.966 48.7314C496.96 48.7113 496.95 48.6927 496.936 48.6771C496.922 48.6614 496.905 48.649 496.886 48.6407C496.731 48.5664 496.644 48.4735 496.719 48.2938C496.733 48.2679 496.741 48.2391 496.742 48.2096C496.744 48.1801 496.739 48.1506 496.728 48.1233C496.716 48.096 496.699 48.0715 496.677 48.0517C496.655 48.0319 496.629 48.0173 496.601 48.0089C496.575 47.996 496.552 47.9778 496.533 47.9555C496.514 47.9331 496.501 47.9072 496.492 47.8793C496.484 47.8513 496.482 47.822 496.486 47.7932C496.49 47.7643 496.499 47.7365 496.514 47.7116C496.514 47.6683 496.551 47.5939 496.514 47.5692C496.432 47.5007 496.376 47.4065 496.354 47.3018C496.333 47.1971 496.348 47.0882 496.397 46.9931C496.397 46.9374 496.335 46.894 496.267 46.8692C496.199 46.8445 496.118 46.7825 496.155 46.733C496.322 46.479 496.013 46.318 496.056 46.1136C496.058 46.0799 496.049 46.0465 496.032 46.0177C496.014 45.989 495.988 45.9663 495.957 45.9525C495.907 45.9218 495.87 45.8744 495.852 45.8189C495.834 45.7633 495.836 45.7032 495.858 45.649C495.874 45.6097 495.876 45.5661 495.863 45.5255C495.851 45.485 495.825 45.4499 495.79 45.4261C495.685 45.3579 495.703 45.2774 495.753 45.1721C495.802 45.0668 495.808 44.9925 495.61 44.8872C495.579 44.8731 495.55 44.8543 495.524 44.8314C495.529 44.7845 495.542 44.7386 495.561 44.6952C495.588 44.6697 495.609 44.639 495.624 44.6049C495.639 44.5708 495.646 44.5341 495.646 44.497C495.646 44.4599 495.639 44.4231 495.624 44.3891C495.609 44.355 495.588 44.3242 495.561 44.2988C495.53 44.2704 495.506 44.2359 495.489 44.1975C495.472 44.1591 495.463 44.1177 495.463 44.0758C495.463 44.0339 495.472 43.9925 495.489 43.9541C495.506 43.9157 495.53 43.8812 495.561 43.8528C495.6 43.8112 495.625 43.7588 495.634 43.7025C495.643 43.6462 495.635 43.5885 495.61 43.5369C495.561 43.413 495.654 43.3139 495.685 43.2086C495.711 43.1559 495.726 43.0981 495.728 43.0392C495.731 42.9803 495.721 42.9214 495.7 42.8665C495.678 42.8117 495.645 42.7619 495.603 42.7206C495.561 42.6792 495.511 42.6471 495.456 42.6264C495.34 42.5602 495.213 42.5173 495.082 42.5003C494.95 42.4833 494.816 42.4925 494.688 42.5273C493.944 42.7168 493.247 43.0561 492.639 43.5245C492.032 44.0041 491.459 44.5257 490.924 45.0854C490.392 45.6428 489.958 46.2684 489.469 46.8569C489.314 47.0489 489.147 47.2347 488.986 47.4267C488.819 47.6143 488.615 47.7659 488.387 47.8723C488.16 47.9788 487.913 48.0379 487.661 48.0461C487.553 48.0474 487.445 48.0241 487.346 47.978C487.248 47.9319 487.161 47.8641 487.092 47.7797C487.092 47.6435 487.234 47.6621 487.309 47.6311C487.444 47.584 487.561 47.4936 487.64 47.3739C487.72 47.2542 487.757 47.1117 487.748 46.9683C487.732 46.8377 487.758 46.7054 487.822 46.5905C487.873 46.5046 487.89 46.4034 487.872 46.3056C487.872 45.8287 487.872 45.3517 487.872 44.8748C487.841 44.6697 487.825 44.4628 487.822 44.2554C487.822 44.1687 487.754 44.1068 487.717 44.0386C487.558 43.8271 487.423 43.5986 487.315 43.3573C487.3 43.3103 487.274 43.2675 487.24 43.232C487.205 43.1966 487.163 43.1695 487.117 43.1529C487.056 43.1298 487.004 43.0887 486.968 43.0352C486.937 42.9488 486.885 42.872 486.815 42.8122C486.746 42.7525 486.662 42.7119 486.572 42.6946C486.523 42.6843 486.478 42.6618 486.44 42.6294C486.402 42.5969 486.373 42.5554 486.355 42.5087C486.331 42.4448 486.284 42.3922 486.224 42.3612C486.163 42.3303 486.093 42.3232 486.027 42.3415C485.978 42.351 485.927 42.3432 485.883 42.3195C485.839 42.2958 485.805 42.2576 485.786 42.2114C485.744 42.1006 485.663 42.0091 485.558 41.9543C485.453 41.8995 485.331 41.8852 485.216 41.9141C485.16 41.9141 485.099 41.8646 485.03 41.8522C484.962 41.8398 484.876 41.815 484.845 41.8522C484.671 42.007 484.479 41.9079 484.294 41.9265C484.048 41.9275 483.804 41.9651 483.569 42.038C483.08 42.2176 482.845 42.0752 482.474 41.6911C482.43 41.64 482.399 41.5788 482.384 41.513C482.368 41.4471 482.37 41.3786 482.387 41.3133C482.401 41.2564 482.398 41.1967 482.378 41.1416C482.358 41.0865 482.323 41.0385 482.276 41.0036C482.276 41.0036 482.214 40.9479 482.22 40.9293C482.325 40.6877 482.053 40.5577 482.047 40.3533C482.04 40.1489 481.886 39.9507 481.941 39.7339C481.943 39.709 481.939 39.684 481.931 39.6605C481.922 39.6371 481.909 39.6156 481.892 39.5976C481.795 39.4639 481.741 39.3042 481.737 39.1393C481.681 38.7645 481.5 38.4197 481.223 38.1606C481.025 38.0491 480.883 37.7766 480.604 37.8571C480.517 37.8571 480.456 37.8014 480.4 37.7394C480.37 37.7099 480.332 37.6905 480.291 37.6838C480.25 37.6771 480.208 37.6836 480.171 37.7023C480.127 37.7023 480.047 37.7456 480.035 37.7023C479.781 37.4235 479.515 37.7023 479.261 37.6713C479.229 37.7098 479.187 37.7381 479.14 37.7525C479.093 37.7668 479.042 37.7666 478.994 37.7518C478.952 37.7478 478.91 37.7577 478.874 37.7801C478.839 37.8025 478.811 37.8361 478.796 37.8757C478.796 37.9191 478.722 37.9872 478.704 37.981C478.388 37.8943 478.233 38.173 478.01 38.2907C477.791 38.4297 477.584 38.5872 477.391 38.7614C477.287 38.8449 477.201 38.948 477.137 39.0649L476.685 39.8887C476.648 39.9445 476.605 39.994 476.555 40.0559C475.959 39.7266 475.338 39.445 474.698 39.2136C474.342 39.0778 473.978 38.964 473.609 38.8729C472.093 38.4261 470.526 38.1803 468.947 38.142C467.852 38.0965 466.756 38.1317 465.666 38.2473C464.724 38.3567 463.809 38.6292 462.961 39.0525C462.285 39.3765 461.593 39.6639 460.887 39.9135C460.107 40.1922 459.314 40.44 458.54 40.7373C457.519 41.1335 456.526 41.5991 455.569 42.1309C454.721 42.6409 453.817 43.0524 452.876 43.3573C452.375 43.4938 451.926 43.7737 451.582 44.1625C451.365 44.3743 451.233 44.6583 451.211 44.9608C451.19 45.2634 451.28 45.5633 451.464 45.8039C451.513 45.8584 451.54 45.929 451.54 46.0021C451.54 46.0752 451.513 46.1458 451.464 46.2003C451.413 46.2863 451.385 46.3848 451.385 46.4852C451.385 46.5856 451.413 46.6842 451.464 46.7701C451.521 46.9275 451.607 47.0726 451.718 47.1975C451.761 47.237 451.794 47.285 451.816 47.3384C451.839 47.3918 451.85 47.4493 451.848 47.5072C451.873 47.7273 451.947 47.9391 452.065 48.1266C452.39 48.7663 452.871 49.3138 453.464 49.7184C454.046 50.1272 454.597 50.5856 455.148 51.0377C455.408 51.2483 455.649 51.4775 455.885 51.7067C456.559 52.3261 457.352 52.8464 458.064 53.4472C458.392 53.6999 458.739 53.9257 459.104 54.1223C459.958 54.6364 460.812 55.1505 461.691 55.6212C462.244 55.9246 462.815 56.1935 463.4 56.4264C464.062 56.6866 464.713 56.9777 465.394 57.1945C466.074 57.4113 466.632 57.6528 467.251 57.8882C467.826 58.1432 468.418 58.3605 469.021 58.5386C469.842 58.8087 470.692 58.9813 471.553 59.0526C472.017 59.0929 472.483 59.0929 472.946 59.0526C473.094 59.0283 473.246 59.0522 473.38 59.1208C473.491 59.1641 473.596 59.2137 473.708 59.2509C473.804 59.2899 473.909 59.3059 474.012 59.2974C474.116 59.289 474.217 59.2564 474.306 59.2022C474.395 59.1481 474.47 59.0739 474.525 58.9855C474.58 58.8972 474.614 58.7972 474.624 58.6934C474.624 58.6297 474.64 58.567 474.672 58.5115C474.703 58.4561 474.749 58.4099 474.803 58.3775C474.854 58.3459 474.894 58.3005 474.919 58.2467C474.944 58.1929 474.954 58.1329 474.946 58.074C474.946 57.913 475.039 57.8448 475.169 57.7891L476.636 57.2254C476.67 57.2401 476.698 57.2658 476.716 57.2983C476.734 57.3308 476.741 57.3684 476.735 57.4051C476.759 57.7224 476.865 58.0278 477.044 58.2908C477.133 58.411 477.206 58.5421 477.261 58.681C477.311 58.8359 477.261 59.0155 477.335 59.1641C477.41 59.3128 477.633 59.3004 477.707 59.48C477.718 59.5159 477.736 59.5492 477.761 59.578C477.785 59.6068 477.814 59.6305 477.848 59.6477C477.881 59.665 477.918 59.6755 477.955 59.6786C477.992 59.6817 478.03 59.6774 478.066 59.6658C478.107 59.6612 478.149 59.6687 478.187 59.6874C478.224 59.7061 478.255 59.7352 478.276 59.7711C478.363 59.8702 478.431 59.9879 478.512 60.087C478.592 60.1861 478.716 60.2357 478.809 60.1304C478.902 60.0251 479.044 59.9136 479.224 60.0437C479.241 60.0551 479.261 60.0623 479.282 60.0647C479.303 60.0671 479.324 60.0646 479.344 60.0574C479.364 60.0502 479.382 60.0385 479.396 60.0232C479.411 60.0079 479.422 59.9895 479.428 59.9693C479.515 59.7711 479.638 59.7897 479.787 59.8826L479.88 59.926C479.9 59.9316 479.921 59.9331 479.941 59.9305C479.962 59.9279 479.981 59.9212 479.999 59.9108C480.017 59.9004 480.033 59.8865 480.045 59.87C480.058 59.8534 480.067 59.8346 480.072 59.8145C480.072 59.8145 480.072 59.8145 480.072 59.7711C480.072 59.6411 480.028 59.4862 480.158 59.3995C480.288 59.3128 480.387 59.3995 480.499 59.3995C480.61 59.3995 480.666 59.319 480.697 59.2137C480.777 58.873 480.777 58.873 481.099 58.8606H481.198C481.366 58.8606 481.415 58.8297 481.403 58.6562C481.39 58.4828 481.471 58.4023 481.65 58.3837C481.83 58.3651 481.824 58.3218 481.817 58.1421C481.811 57.9625 481.817 57.9254 482.034 57.8572C482.251 57.7891 482.22 57.8015 482.183 57.5909C482.146 57.3803 482.183 57.3989 482.344 57.3803H482.443C482.548 57.3803 482.585 57.3245 482.567 57.2192C482.523 56.9653 482.529 56.9653 482.734 56.9529C482.938 56.9405 482.913 56.9529 482.87 56.7175C482.87 56.6184 482.87 56.5503 482.981 56.5565C483.093 56.5627 483.248 56.5565 483.223 56.3583C483.223 56.284 483.297 56.253 483.359 56.2468C483.421 56.2406 483.557 56.2468 483.656 56.2468C483.755 56.2468 483.823 56.2468 483.823 56.1105C483.822 56.09 483.825 56.0694 483.833 56.0504C483.841 56.0314 483.853 56.0145 483.869 56.0012C483.885 55.9879 483.903 55.9785 483.923 55.9739C483.943 55.9692 483.964 55.9693 483.984 55.9743C484.065 55.9743 484.145 55.9743 484.232 56.0176C484.319 56.061 484.368 56.0176 484.387 55.9433C484.436 55.7327 484.585 55.7451 484.733 55.7885C484.882 55.8318 485.018 55.9061 485.148 55.6956C485.278 55.485 485.458 55.5531 485.643 55.6522C485.829 55.7513 485.78 55.6956 485.823 55.5345C485.866 55.3735 485.91 55.3177 486.089 55.3363C486.17 55.3363 486.25 55.3735 486.331 55.3859C486.343 55.3878 486.357 55.3867 486.369 55.3828C486.382 55.3789 486.393 55.3723 486.402 55.3633C486.412 55.3544 486.419 55.3434 486.424 55.3312C486.429 55.3191 486.431 55.306 486.43 55.2929C486.43 55.07 486.566 55.07 486.727 55.07C486.888 55.07 486.943 55.1071 486.95 54.9585C486.956 54.8098 487.042 54.7541 487.172 54.7541C487.302 54.7541 487.333 54.7541 487.42 54.7541C487.437 54.7567 487.454 54.7548 487.469 54.7485C487.485 54.7423 487.498 54.7319 487.508 54.7186C487.519 54.7053 487.525 54.6894 487.527 54.6728C487.529 54.6561 487.526 54.6393 487.519 54.624C487.476 54.4692 487.55 54.4134 487.692 54.4134H487.829C488.089 54.4134 488.089 54.4134 488.033 54.1657C487.996 54.0294 488.033 53.9984 488.175 53.9984C488.208 53.9953 488.241 53.9953 488.274 53.9984C488.324 53.9984 488.373 53.9984 488.398 53.9551C488.405 53.9311 488.405 53.9058 488.399 53.8817C488.392 53.8577 488.379 53.8359 488.361 53.8188C488.304 53.757 488.252 53.6907 488.206 53.6206C488.206 53.5834 488.206 53.5401 488.256 53.5091C488.423 53.3852 488.417 53.379 488.305 53.2799C488.225 53.2185 488.151 53.1501 488.082 53.0755C488.072 53.0554 488.067 53.0331 488.067 53.0105C488.067 52.9879 488.072 52.9656 488.082 52.9455C488.231 52.803 488.151 52.7225 488.008 52.6543C487.948 52.6626 487.888 52.6605 487.829 52.6482C487.829 52.611 487.754 52.5676 487.829 52.5181C488.021 52.3013 487.829 52.2022 487.692 52.0969L487.6 52.0288Z" fill="url(#paint21_linear_41_276)"/>
</g>
<g filter="url(#filter1_d_41_276)">
<path d="M279.375 156.6C279.617 156.69 279.822 156.857 279.959 157.075C280.095 157.294 280.156 157.552 280.13 157.808C280.139 158.538 280.213 159.266 280.353 159.982C280.66 161.196 281.269 162.313 282.123 163.228C282.328 163.426 282.526 163.631 282.712 163.847C283.175 164.326 283.728 164.709 284.34 164.975C284.384 164.999 284.432 165.018 284.482 165.03C284.73 165.111 284.86 165.03 284.854 164.752C284.854 164.683 284.854 164.615 284.854 164.553C284.854 164.361 284.854 164.225 285.101 164.207C285.225 164.207 285.25 164.095 285.225 163.984C285.222 163.934 285.222 163.884 285.225 163.835C285.22 163.81 285.219 163.785 285.225 163.76C285.23 163.736 285.24 163.713 285.254 163.692C285.269 163.672 285.288 163.655 285.309 163.642C285.331 163.629 285.355 163.621 285.38 163.618C285.578 163.618 285.634 163.494 285.615 163.321V163.222C285.612 163.188 285.615 163.154 285.625 163.122C285.635 163.09 285.652 163.06 285.674 163.035C285.696 163.009 285.723 162.988 285.753 162.974C285.784 162.959 285.817 162.951 285.85 162.949C285.98 162.949 286.079 162.881 286.085 162.739C286.092 162.596 286.197 162.447 286.395 162.423C286.429 162.425 286.463 162.42 286.494 162.407C286.525 162.394 286.553 162.375 286.576 162.35C286.599 162.325 286.615 162.295 286.625 162.262C286.634 162.23 286.636 162.196 286.63 162.163C286.62 162.08 286.64 161.996 286.687 161.926C286.733 161.857 286.803 161.806 286.884 161.785C286.932 161.768 286.972 161.734 286.998 161.69C287.023 161.645 287.031 161.593 287.02 161.543C287.014 161.463 287.014 161.382 287.02 161.302C287.02 161.252 287.064 161.178 287.088 161.178C287.367 161.134 287.41 160.973 287.386 160.719C287.386 160.583 287.485 160.478 287.627 160.441C287.656 160.437 287.683 160.428 287.708 160.413C287.733 160.397 287.754 160.377 287.77 160.353C287.786 160.329 287.796 160.301 287.8 160.272C287.805 160.244 287.802 160.214 287.794 160.187C287.794 160.069 287.85 160.001 287.937 159.951C287.968 159.94 287.996 159.923 288.021 159.901C288.045 159.879 288.065 159.852 288.079 159.822C288.093 159.792 288.1 159.759 288.101 159.726C288.102 159.693 288.097 159.66 288.085 159.629C288.036 159.456 288.141 159.351 288.296 159.282C288.343 159.267 288.382 159.234 288.407 159.19C288.431 159.147 288.437 159.095 288.426 159.047C288.404 158.966 288.411 158.879 288.448 158.803C288.484 158.727 288.547 158.666 288.624 158.632C288.785 158.545 288.84 158.434 288.748 158.267C288.719 158.23 288.699 158.187 288.689 158.142C288.679 158.097 288.679 158.05 288.69 158.004C288.701 157.959 288.722 157.917 288.751 157.881C288.78 157.845 288.817 157.816 288.859 157.796C288.884 157.782 288.906 157.763 288.923 157.74C288.941 157.717 288.953 157.691 288.96 157.662C288.966 157.634 288.966 157.605 288.961 157.577C288.955 157.549 288.944 157.522 288.927 157.499L288.878 157.406C288.855 157.37 288.84 157.33 288.835 157.289C288.829 157.247 288.832 157.204 288.843 157.164C288.855 157.124 288.875 157.086 288.902 157.054C288.93 157.022 288.963 156.996 289.001 156.978C289.043 156.953 289.082 156.924 289.119 156.892C289.148 156.861 289.164 156.82 289.164 156.777C289.164 156.734 289.148 156.693 289.119 156.662C288.989 156.514 288.97 156.377 289.119 156.241C289.148 156.211 289.164 156.171 289.164 156.13C289.164 156.088 289.148 156.048 289.119 156.018C289.085 155.981 289.059 155.937 289.044 155.889C289.028 155.84 289.022 155.79 289.028 155.739C289.033 155.689 289.049 155.641 289.074 155.597C289.099 155.553 289.134 155.515 289.175 155.486C289.191 155.473 289.205 155.456 289.214 155.438C289.223 155.419 289.228 155.398 289.228 155.377C289.228 155.356 289.223 155.335 289.214 155.317C289.205 155.298 289.191 155.281 289.175 155.269C289.038 155.163 288.977 155.052 289.082 154.891C289.1 154.869 289.114 154.843 289.121 154.816C289.129 154.788 289.13 154.759 289.126 154.731C289.121 154.703 289.11 154.676 289.094 154.652C289.078 154.628 289.057 154.608 289.032 154.594C289.01 154.574 288.992 154.551 288.98 154.524C288.968 154.497 288.961 154.468 288.961 154.439C288.961 154.409 288.968 154.38 288.98 154.354C288.992 154.327 289.01 154.303 289.032 154.284C289.032 154.241 289.094 154.172 289.076 154.148C289.011 154.063 288.976 153.96 288.976 153.853C288.976 153.747 289.011 153.644 289.076 153.559C289.113 153.51 289.038 153.448 288.977 153.411C288.915 153.373 288.853 153.293 288.896 153.256C289.113 153.045 288.84 152.822 288.927 152.636C288.936 152.604 288.936 152.57 288.926 152.538C288.916 152.506 288.897 152.478 288.871 152.457C288.828 152.418 288.8 152.364 288.792 152.307C288.784 152.249 288.797 152.19 288.828 152.141C288.854 152.108 288.868 152.068 288.868 152.026C288.868 151.985 288.854 151.944 288.828 151.912C288.741 151.819 288.772 151.744 288.828 151.651C288.884 151.559 288.927 151.49 288.748 151.348L288.673 151.267C288.694 151.225 288.716 151.184 288.741 151.144C288.859 151.026 288.915 150.908 288.803 150.753C288.777 150.72 288.759 150.681 288.749 150.64C288.738 150.599 288.737 150.556 288.744 150.514C288.751 150.472 288.766 150.433 288.789 150.397C288.812 150.361 288.842 150.331 288.878 150.307C288.924 150.275 288.96 150.229 288.98 150.176C289 150.123 289.003 150.065 288.989 150.01C288.989 149.886 289.076 149.806 289.131 149.707C289.169 149.661 289.197 149.607 289.212 149.549C289.228 149.492 289.23 149.432 289.22 149.373C289.21 149.314 289.188 149.258 289.154 149.209C289.121 149.16 289.077 149.118 289.026 149.087C288.928 148.997 288.813 148.928 288.687 148.883C288.562 148.838 288.429 148.819 288.296 148.827C287.529 148.857 286.776 149.044 286.085 149.378C285.394 149.706 284.727 150.085 284.092 150.512C283.473 150.945 282.897 151.466 282.303 151.943L281.684 152.395C281.479 152.539 281.248 152.64 281.003 152.692C280.758 152.744 280.506 152.746 280.26 152.698C280.155 152.676 280.056 152.63 279.97 152.565C279.885 152.499 279.814 152.416 279.765 152.32C279.808 152.184 279.926 152.234 280.006 152.215C280.148 152.197 280.28 152.133 280.382 152.034C280.485 151.935 280.553 151.805 280.576 151.664C280.583 151.531 280.635 151.404 280.724 151.305C280.79 151.231 280.828 151.137 280.83 151.038C280.935 150.574 281.059 150.109 281.158 149.645C281.171 149.437 281.198 149.23 281.238 149.025C281.238 148.945 281.201 148.87 281.176 148.796C281.07 148.555 280.987 148.304 280.929 148.047C280.924 147.996 280.907 147.948 280.88 147.905C280.853 147.862 280.817 147.825 280.774 147.799C280.719 147.767 280.677 147.717 280.656 147.656C280.643 147.565 280.606 147.479 280.55 147.406C280.494 147.334 280.419 147.277 280.334 147.241C280.29 147.219 280.251 147.187 280.221 147.147C280.191 147.107 280.171 147.061 280.161 147.012C280.152 146.945 280.117 146.884 280.064 146.841C280.011 146.798 279.944 146.778 279.876 146.783C279.825 146.78 279.777 146.76 279.739 146.726C279.701 146.693 279.675 146.647 279.666 146.597C279.649 146.481 279.589 146.376 279.499 146.301C279.409 146.227 279.294 146.189 279.177 146.195C279.115 146.195 279.065 146.12 279.003 146.096C278.941 146.071 278.861 146.027 278.824 146.046C278.619 146.164 278.452 146.046 278.267 146.009C278.026 145.96 277.78 145.945 277.536 145.965C277.022 146.046 276.824 145.848 276.533 145.396C276.504 145.336 276.489 145.27 276.489 145.204C276.489 145.137 276.504 145.071 276.533 145.012C276.561 144.96 276.571 144.901 276.563 144.844C276.556 144.786 276.53 144.732 276.49 144.69C276.49 144.69 276.44 144.615 276.453 144.603C276.608 144.386 276.366 144.2 276.409 143.983C276.453 143.767 276.329 143.556 276.409 143.364C276.419 143.342 276.425 143.317 276.425 143.293C276.425 143.268 276.419 143.244 276.409 143.222C276.343 143.067 276.326 142.897 276.36 142.732C276.38 142.355 276.273 141.982 276.057 141.673C275.889 141.518 275.803 141.227 275.499 141.246C275.406 141.246 275.363 141.159 275.32 141.085C275.297 141.05 275.264 141.023 275.225 141.008C275.186 140.994 275.143 140.992 275.103 141.004C275.06 141.004 274.979 141.004 274.967 141.004C274.781 140.676 274.453 140.917 274.218 140.812C274.177 140.839 274.128 140.854 274.079 140.854C274.029 140.854 273.981 140.839 273.939 140.812C273.899 140.799 273.856 140.799 273.816 140.813C273.776 140.826 273.741 140.852 273.716 140.886C273.685 140.924 273.624 140.986 273.611 140.973C273.32 140.825 273.11 141.066 272.868 141.128C272.618 141.219 272.376 141.331 272.144 141.463C272.026 141.521 271.92 141.603 271.834 141.704C271.624 141.939 271.413 142.175 271.215 142.404C271.168 142.454 271.116 142.5 271.061 142.54C270.542 142.095 269.99 141.691 269.408 141.332C269.087 141.125 268.754 140.937 268.411 140.769C267.021 140.017 265.54 139.451 264.003 139.084C262.942 138.81 261.862 138.616 260.772 138.502C259.827 138.415 258.874 138.49 257.955 138.725C257.229 138.905 256.493 139.041 255.751 139.134C254.934 139.251 254.104 139.326 253.275 139.45C252.192 139.628 251.123 139.879 250.074 140.199C249.143 140.513 248.179 140.721 247.202 140.818C246.685 140.85 246.188 141.031 245.772 141.339C245.515 141.5 245.327 141.75 245.243 142.041C245.158 142.332 245.183 142.644 245.313 142.918C245.353 142.98 245.367 143.055 245.353 143.128C245.339 143.2 245.299 143.265 245.239 143.308C245.169 143.38 245.12 143.468 245.096 143.565C245.072 143.662 245.074 143.764 245.103 143.86C245.124 144.026 245.179 144.186 245.264 144.33C245.296 144.378 245.317 144.432 245.327 144.489C245.336 144.545 245.334 144.603 245.32 144.659C245.294 144.891 245.321 145.126 245.4 145.346C245.588 146.041 245.943 146.679 246.434 147.204C246.923 147.725 247.363 148.288 247.814 148.846C248.019 149.106 248.204 149.378 248.39 149.651C248.916 150.425 249.591 151.075 250.161 151.806C250.43 152.124 250.724 152.42 251.04 152.692C251.77 153.367 252.495 154.049 253.256 154.693C253.734 155.104 254.237 155.487 254.76 155.839C255.38 156.229 255.931 156.65 256.55 157.003C257.169 157.356 257.676 157.709 258.233 158.068C258.744 158.438 259.278 158.775 259.831 159.078C260.579 159.511 261.374 159.856 262.202 160.106C262.643 160.248 263.097 160.348 263.557 160.403C263.708 160.416 263.853 160.472 263.972 160.565C264.065 160.634 264.163 160.698 264.263 160.757C264.349 160.816 264.448 160.854 264.551 160.867C264.654 160.881 264.759 160.87 264.857 160.836C264.956 160.802 265.044 160.745 265.116 160.669C265.189 160.594 265.242 160.503 265.272 160.403C265.286 160.341 265.316 160.283 265.359 160.236C265.403 160.189 265.458 160.155 265.52 160.137C265.574 160.114 265.621 160.078 265.657 160.031C265.693 159.984 265.716 159.929 265.724 159.871C265.724 159.71 265.854 159.66 265.997 159.635L267.544 159.394C267.576 159.413 267.599 159.443 267.611 159.478C267.622 159.514 267.621 159.552 267.606 159.586C267.565 159.901 267.606 160.22 267.724 160.515C267.786 160.652 267.832 160.795 267.86 160.942C267.86 161.103 267.81 161.277 267.829 161.432C267.848 161.587 268.095 161.63 268.126 161.816C268.134 161.891 268.171 161.96 268.228 162.008C268.286 162.057 268.361 162.081 268.436 162.076C268.477 162.079 268.517 162.095 268.549 162.12C268.582 162.145 268.607 162.179 268.621 162.218C268.683 162.336 268.733 162.46 268.789 162.584C268.844 162.708 268.956 162.763 269.067 162.683C269.179 162.602 269.346 162.522 269.494 162.683C269.509 162.698 269.528 162.709 269.548 162.716C269.568 162.723 269.589 162.725 269.611 162.722C269.632 162.719 269.652 162.711 269.669 162.699C269.687 162.687 269.701 162.671 269.711 162.652C269.835 162.478 269.952 162.522 270.076 162.652C270.1 162.675 270.127 162.693 270.157 162.708C270.174 162.718 270.194 162.725 270.215 162.728C270.235 162.731 270.256 162.729 270.276 162.723C270.295 162.717 270.314 162.707 270.33 162.694C270.345 162.681 270.358 162.664 270.367 162.646C270.369 162.631 270.369 162.617 270.367 162.602C270.417 162.485 270.367 162.317 270.528 162.255C270.689 162.194 270.751 162.299 270.863 162.317C270.912 162.326 270.963 162.316 271.007 162.29C271.05 162.264 271.082 162.223 271.098 162.175C271.246 161.859 271.246 161.865 271.562 161.915H271.661C271.828 161.915 271.878 161.915 271.903 161.76C271.927 161.605 272.02 161.525 272.206 161.543C272.392 161.562 272.385 161.543 272.416 161.345C272.447 161.147 272.454 161.128 272.683 161.11C272.912 161.091 272.881 161.11 272.887 160.88C272.893 160.651 272.887 160.688 273.085 160.707H273.184C273.289 160.707 273.333 160.707 273.339 160.577C273.339 160.317 273.339 160.317 273.555 160.348C273.772 160.379 273.741 160.348 273.741 160.156C273.741 160.05 273.778 159.988 273.884 160.019C273.989 160.05 274.137 160.075 274.156 159.871C274.156 159.796 274.249 159.784 274.317 159.79L274.608 159.858C274.695 159.858 274.769 159.858 274.8 159.759C274.803 159.739 274.81 159.72 274.822 159.703C274.834 159.686 274.849 159.672 274.867 159.662C274.886 159.653 274.906 159.647 274.926 159.647C274.947 159.647 274.967 159.651 274.986 159.66L275.215 159.753C275.276 159.753 275.345 159.796 275.382 159.716C275.475 159.524 275.617 159.561 275.753 159.635C275.889 159.71 276.007 159.809 276.18 159.635C276.354 159.462 276.508 159.567 276.669 159.697C276.83 159.827 276.799 159.772 276.874 159.623C276.948 159.474 277.004 159.425 277.177 159.481C277.251 159.481 277.326 159.555 277.406 159.58C277.418 159.583 277.43 159.585 277.443 159.583C277.455 159.582 277.467 159.577 277.477 159.571C277.488 159.565 277.497 159.556 277.504 159.546C277.511 159.535 277.515 159.524 277.518 159.512C277.555 159.295 277.697 159.32 277.852 159.357C278.007 159.394 278.056 159.431 278.093 159.289C278.13 159.146 278.229 159.115 278.353 159.14C278.477 159.165 278.508 159.196 278.589 159.214C278.669 159.233 278.725 159.214 278.719 159.109C278.712 159.004 278.787 158.905 278.929 158.936L279.028 158.966C279.276 159.028 279.276 159.028 279.276 158.768C279.276 158.62 279.276 158.601 279.449 158.626L279.542 158.663C279.591 158.663 279.641 158.663 279.672 158.663C279.703 158.663 279.672 158.57 279.672 158.521C279.63 158.45 279.594 158.375 279.567 158.298C279.567 158.26 279.567 158.223 279.641 158.198C279.82 158.112 279.82 158.112 279.728 157.988C279.666 157.909 279.61 157.826 279.56 157.74C279.56 157.709 279.56 157.622 279.56 157.61C279.74 157.499 279.672 157.406 279.56 157.313C279.523 157.279 279.492 157.239 279.468 157.195C279.437 157.158 279.406 157.108 279.468 157.065C279.697 156.892 279.56 156.761 279.424 156.625L279.375 156.6Z" fill="url(#paint22_linear_41_276)"/>
</g>
<g filter="url(#filter2_d_41_276)">
<path d="M385.434 165.848C385.434 165.885 385.434 165.935 385.49 165.978C385.984 166.715 386.638 167.331 387.403 167.78L387.681 167.954C387.762 168.01 387.836 168.096 387.799 168.183C387.778 168.224 387.742 168.256 387.698 168.272C387.655 168.288 387.607 168.287 387.564 168.27L386.976 168.121L386.567 167.985C386.652 168.296 386.831 168.573 387.081 168.778C387.217 168.902 387.347 169.032 387.471 169.168C387.487 169.19 387.497 169.216 387.501 169.244C387.505 169.271 387.502 169.299 387.493 169.325C387.484 169.351 387.469 169.374 387.449 169.393C387.429 169.412 387.404 169.426 387.378 169.434C387.269 169.453 387.158 169.453 387.05 169.434C386.72 169.41 386.396 169.333 386.09 169.205C385.84 169.091 385.581 168.996 385.316 168.92C384.85 168.75 384.406 168.525 383.992 168.251C383.195 167.742 382.479 167.115 381.868 166.393C381.505 165.959 381.089 165.571 380.63 165.241C380.451 165.112 380.252 165.011 380.042 164.944C378.983 164.617 378.01 164.058 377.194 163.308C376.643 162.821 376.118 162.304 375.622 161.76C375.6 161.728 375.576 161.699 375.548 161.673C374.865 161.061 374.134 160.503 373.362 160.007C372.675 159.613 371.943 159.301 371.183 159.078C371.005 159.028 370.833 158.96 370.669 158.874C370.354 158.713 370.31 158.607 370.372 158.254C370.372 158.186 370.372 158.118 370.422 158.037L370.174 157.889C370.11 157.851 370.054 157.801 370.01 157.742C369.965 157.682 369.933 157.614 369.915 157.542C369.897 157.47 369.894 157.395 369.905 157.322C369.917 157.248 369.943 157.178 369.982 157.115C370.129 156.836 370.341 156.598 370.601 156.421C371.008 156.136 371.391 155.819 371.746 155.473C372 155.207 372.279 154.959 372.508 154.668C372.762 154.281 372.97 153.865 373.127 153.429C373.387 152.841 373.616 152.24 373.876 151.651C374.296 150.725 374.92 149.905 375.702 149.254C376.27 148.786 376.87 148.357 377.498 147.972C378.348 147.451 379.267 147.05 380.228 146.783C380.847 146.61 381.466 146.486 382.085 146.343C383.186 146.116 384.311 146.031 385.434 146.089L387.031 146.145C387.514 146.145 387.978 146.288 388.455 146.343C388.728 146.376 389 146.42 389.272 146.473C389.455 146.499 389.634 146.547 389.805 146.616C389.972 146.724 390.146 146.821 390.325 146.907C390.506 146.926 390.688 146.926 390.87 146.907C390.962 146.913 391.054 146.932 391.142 146.963C391.495 147.118 391.877 147.198 392.262 147.198H392.318C392.797 147.378 393.3 147.489 393.81 147.526C393.904 147.526 393.995 147.561 394.064 147.625C394.152 147.706 394.256 147.767 394.369 147.807C394.482 147.846 394.601 147.862 394.72 147.855C394.918 147.855 395.123 147.904 395.339 147.941C395.45 147.948 395.556 147.989 395.643 148.059C395.749 148.16 395.876 148.236 396.015 148.282C396.154 148.328 396.302 148.343 396.447 148.325C396.614 148.327 396.778 148.355 396.936 148.406C397.424 148.61 397.93 148.77 398.447 148.883C398.513 148.89 398.576 148.912 398.633 148.946C398.689 148.98 398.738 149.026 398.775 149.081C398.839 149.195 398.928 149.292 399.035 149.366C399.143 149.44 399.265 149.489 399.394 149.508C399.467 149.528 399.534 149.563 399.592 149.611C399.65 149.659 399.696 149.719 399.728 149.787C399.757 149.854 399.8 149.913 399.855 149.96C399.91 150.007 399.974 150.041 400.044 150.06C400.116 150.08 400.182 150.116 400.238 150.165C400.293 150.215 400.337 150.276 400.366 150.345C400.422 150.48 400.529 150.589 400.663 150.648C400.785 150.695 400.889 150.78 400.96 150.89C401.077 151.151 401.275 151.368 401.524 151.509C401.547 151.524 401.567 151.544 401.582 151.568C401.597 151.591 401.607 151.618 401.61 151.645C401.623 151.717 401.652 151.786 401.696 151.844C401.74 151.902 401.798 151.949 401.864 151.98C402.069 152.104 402.273 152.228 402.304 152.506C402.304 152.605 402.415 152.649 402.49 152.698C402.564 152.748 402.669 152.81 402.663 152.896C402.659 152.998 402.683 153.098 402.732 153.186C402.781 153.275 402.853 153.348 402.941 153.398C402.984 153.432 403.016 153.477 403.034 153.528C403.102 153.689 403.034 153.894 403.22 154.011C403.286 154.063 403.338 154.129 403.374 154.204C403.409 154.279 403.426 154.362 403.424 154.445C403.424 154.501 403.517 154.556 403.573 154.6C403.605 154.618 403.633 154.643 403.655 154.673C403.677 154.702 403.693 154.736 403.702 154.772C403.71 154.808 403.712 154.845 403.706 154.882C403.699 154.918 403.686 154.953 403.666 154.984C403.666 154.984 403.666 155.021 403.666 155.033C403.666 155.046 403.666 155.083 403.666 155.089C403.944 155.269 403.734 155.622 403.944 155.826C404.004 155.873 404.044 155.939 404.059 156.013C404.074 156.086 404.062 156.163 404.025 156.229C404.001 156.268 403.988 156.313 403.988 156.359C403.988 156.405 404.001 156.45 404.025 156.489C404.046 156.53 404.057 156.576 404.057 156.622C404.057 156.668 404.046 156.714 404.025 156.755C403.951 156.942 403.931 157.146 403.969 157.344C403.969 157.399 403.913 157.468 403.882 157.53C404.031 157.61 404.142 157.53 404.26 157.48C405.065 157.158 405.87 156.861 406.668 156.514C408.072 155.901 409.521 155.398 411.002 155.009C411.716 154.828 412.45 154.732 413.187 154.724C413.222 154.718 413.257 154.718 413.292 154.724C413.298 154.738 413.298 154.753 413.292 154.767C413.292 154.767 413.292 154.854 413.292 154.866C413.212 154.908 413.126 154.941 413.039 154.965C412.75 155.026 412.468 155.115 412.197 155.232C411.999 155.285 411.83 155.414 411.726 155.591C411.696 155.637 411.657 155.677 411.611 155.708C411.566 155.739 411.514 155.76 411.46 155.77C411.287 155.826 411.107 155.888 411.119 156.136C411.119 156.216 411.02 156.235 410.958 156.272C410.897 156.309 410.847 156.328 410.828 156.365C410.68 156.761 410.346 157.034 410.209 157.418C410.209 157.449 410.209 157.499 410.209 157.523C410.098 157.653 409.925 157.722 409.931 157.951C409.937 158.18 409.671 158.18 409.795 158.384C409.795 158.384 409.795 158.428 409.795 158.44C409.704 158.499 409.633 158.583 409.589 158.682C409.545 158.781 409.53 158.891 409.547 158.997C409.361 159.146 409.547 159.388 409.411 159.549C409.491 159.71 409.336 159.834 409.355 159.964C409.354 160.107 409.322 160.248 409.262 160.379C409.225 160.552 409.336 160.757 409.262 160.942C409.374 161.085 409.213 161.24 409.262 161.345C409.312 161.45 409.367 161.611 409.262 161.741C409.392 161.853 409.318 162.014 409.361 162.132C409.405 162.249 409.466 162.305 409.405 162.423C409.387 162.473 409.387 162.527 409.405 162.578C409.527 162.818 409.574 163.09 409.541 163.358C409.541 163.432 409.72 163.569 409.696 163.618C409.59 163.853 409.807 163.94 409.875 164.089C409.946 164.211 409.992 164.345 410.011 164.485C410.055 164.643 410.16 164.776 410.302 164.857C410.649 165.074 410.822 165.476 411.2 165.644C411.225 165.657 411.244 165.678 411.254 165.704C411.264 165.731 411.265 165.759 411.256 165.786C411.245 165.811 411.229 165.833 411.207 165.85C411.185 165.866 411.159 165.876 411.132 165.879C410.877 165.921 410.615 165.899 410.37 165.817C410.209 165.78 410.067 165.705 409.912 165.854C409.757 166.003 409.665 165.897 409.541 165.854C408.764 165.685 408.023 165.383 407.349 164.962C407.139 164.82 406.904 164.702 406.681 164.578C406.027 164.219 405.406 163.805 404.823 163.339C404.324 162.932 403.794 162.564 403.239 162.237C402.767 161.936 402.225 161.763 401.666 161.735C401.992 161.8 402.3 161.933 402.57 162.125C402.772 162.238 402.928 162.419 403.009 162.635C403.091 162.852 403.093 163.09 403.016 163.308C403.001 163.397 403.001 163.487 403.016 163.575C403.035 163.624 403.035 163.68 403.016 163.73C402.758 164.099 402.468 164.445 402.149 164.764C401.92 164.944 401.716 165.142 401.493 165.334C401.458 165.377 401.414 165.411 401.363 165.433C401.089 165.528 400.828 165.659 400.589 165.823C400.434 165.916 400.249 165.947 400.131 166.102C399.766 166.17 399.512 166.48 399.116 166.486C399.006 166.484 398.9 166.524 398.818 166.597C398.773 166.631 398.723 166.659 398.67 166.678C398.492 166.714 398.312 166.741 398.131 166.758C397.976 166.802 397.884 166.975 397.704 166.994C397.555 166.995 397.409 167.038 397.283 167.118C397.228 167.152 397.167 167.174 397.103 167.182C397.039 167.191 396.974 167.186 396.912 167.167C396.851 167.147 396.787 167.14 396.724 167.148C396.661 167.155 396.6 167.177 396.546 167.211C396.433 167.279 396.299 167.303 396.169 167.279C396.006 167.249 395.839 167.266 395.686 167.328C395.686 167.328 395.612 167.328 395.574 167.328C395.383 167.372 395.234 167.173 395.048 167.211C394.863 167.248 394.745 167.347 394.572 167.285C394.274 167.18 393.953 167.322 393.649 167.186C393.371 167.098 393.08 167.055 392.789 167.056C392.696 167.056 392.609 167.012 392.522 167.056C392.454 167.083 392.379 167.093 392.306 167.084C392.232 167.076 392.162 167.049 392.102 167.006C392.052 167.006 391.978 166.932 391.953 166.944C391.625 167.167 391.334 166.833 390.993 166.944C390.902 166.956 390.81 166.941 390.727 166.901C390.546 166.812 390.347 166.767 390.145 166.771C390.109 166.783 390.07 166.783 390.034 166.771C389.739 166.633 389.423 166.547 389.099 166.517C388.794 166.446 388.494 166.355 388.201 166.244C387.886 166.145 387.582 166.021 387.254 165.947C386.771 165.829 386.282 165.749 385.793 165.656C385.583 165.786 385.502 165.755 385.434 165.848Z" fill="url(#paint23_linear_41_276)"/>
</g>
<g filter="url(#filter3_d_41_276)">
<path d="M373.622 126.356C373.632 126.391 373.646 126.424 373.666 126.455C374.055 127.045 374.577 127.537 375.189 127.892L375.405 128.034C375.473 128.077 375.529 128.146 375.504 128.22C375.48 128.294 375.393 128.3 375.312 128.282L374.842 128.164C374.749 128.164 374.65 128.102 374.52 128.053C374.591 128.297 374.736 128.513 374.935 128.672C375.042 128.769 375.143 128.873 375.238 128.982C375.252 128.999 375.262 129.02 375.266 129.042C375.27 129.064 375.268 129.087 375.261 129.108C375.253 129.129 375.24 129.148 375.223 129.163C375.206 129.178 375.186 129.188 375.164 129.192C375.08 129.208 374.994 129.208 374.91 129.192C374.646 129.176 374.386 129.115 374.142 129.013C373.942 128.921 373.735 128.844 373.523 128.784C373.153 128.647 372.8 128.469 372.471 128.251C371.839 127.849 371.269 127.357 370.781 126.789C370.486 126.441 370.149 126.131 369.778 125.866C369.634 125.764 369.476 125.684 369.307 125.631C368.466 125.369 367.693 124.925 367.042 124.33C366.606 123.94 366.193 123.527 365.803 123.091C365.787 123.069 365.768 123.049 365.748 123.029C365.204 122.541 364.622 122.095 364.008 121.698C363.457 121.389 362.874 121.142 362.269 120.961C362.13 120.919 361.995 120.865 361.866 120.8C361.612 120.67 361.575 120.589 361.625 120.304C361.625 120.248 361.625 120.193 361.662 120.131C361.595 120.096 361.531 120.056 361.47 120.013C361.419 119.983 361.374 119.943 361.338 119.896C361.302 119.848 361.277 119.794 361.262 119.736C361.248 119.678 361.245 119.618 361.254 119.559C361.263 119.501 361.284 119.444 361.315 119.394C361.432 119.172 361.602 118.982 361.81 118.842C362.138 118.618 362.444 118.365 362.727 118.087C362.944 117.891 363.15 117.685 363.346 117.467C363.561 117.168 363.737 116.844 363.872 116.501C364.076 116.03 364.256 115.547 364.491 115.083C364.823 114.344 365.321 113.691 365.946 113.175C366.396 112.798 366.874 112.457 367.376 112.153C368.052 111.736 368.783 111.417 369.549 111.205C370.038 111.063 370.546 110.97 371.047 110.852C371.925 110.675 372.821 110.608 373.715 110.654L374.99 110.697C375.374 110.697 375.74 110.809 376.117 110.852C376.34 110.852 376.557 110.914 376.773 110.958C376.918 110.978 377.06 111.017 377.194 111.075C377.328 111.16 377.466 111.237 377.609 111.304C377.755 111.32 377.903 111.32 378.049 111.304C378.12 111.313 378.19 111.327 378.259 111.348C378.542 111.473 378.848 111.538 379.157 111.54C379.157 111.54 379.157 111.54 379.2 111.54C379.58 111.688 379.981 111.776 380.389 111.8C380.462 111.803 380.532 111.831 380.587 111.88C380.658 111.945 380.741 111.995 380.831 112.027C380.922 112.058 381.017 112.072 381.113 112.066C381.274 112.066 381.435 112.103 381.59 112.134C381.745 112.165 381.782 112.134 381.831 112.227C381.913 112.305 382.01 112.365 382.117 112.401C382.224 112.438 382.338 112.45 382.45 112.438C382.581 112.441 382.71 112.464 382.834 112.506C383.224 112.668 383.628 112.795 384.041 112.884C384.094 112.889 384.145 112.906 384.19 112.934C384.236 112.961 384.274 113 384.301 113.045C384.351 113.132 384.42 113.208 384.502 113.266C384.585 113.324 384.679 113.362 384.778 113.379C384.835 113.396 384.888 113.424 384.932 113.462C384.977 113.501 385.013 113.549 385.038 113.602C385.061 113.655 385.096 113.702 385.14 113.74C385.184 113.777 385.236 113.804 385.292 113.819C385.349 113.836 385.402 113.866 385.447 113.905C385.492 113.945 385.528 113.994 385.552 114.048C385.596 114.156 385.68 114.243 385.787 114.29C385.883 114.329 385.965 114.396 386.022 114.482C386.111 114.696 386.267 114.874 386.468 114.99C386.487 115.001 386.503 115.017 386.516 115.035C386.529 115.053 386.538 115.073 386.542 115.095C386.551 115.153 386.574 115.208 386.61 115.255C386.646 115.301 386.693 115.338 386.747 115.361C386.908 115.467 387.069 115.566 387.093 115.789C387.093 115.863 387.18 115.9 387.242 115.937C387.304 115.975 387.384 116.024 387.378 116.098C387.377 116.178 387.397 116.257 387.436 116.327C387.475 116.396 387.532 116.454 387.601 116.495C387.635 116.522 387.661 116.559 387.675 116.6C387.725 116.724 387.675 116.891 387.824 116.984C387.877 117.025 387.919 117.077 387.947 117.138C387.975 117.198 387.988 117.265 387.985 117.331C387.985 117.374 388.059 117.418 388.102 117.449C388.128 117.464 388.15 117.484 388.167 117.508C388.185 117.532 388.198 117.559 388.205 117.588C388.211 117.617 388.213 117.647 388.208 117.676C388.203 117.705 388.192 117.733 388.177 117.758C388.173 117.773 388.173 117.788 388.177 117.802V117.839C388.4 117.981 388.232 118.266 388.4 118.458C388.446 118.495 388.477 118.547 388.489 118.605C388.5 118.663 388.49 118.723 388.461 118.774C388.443 118.805 388.433 118.84 388.433 118.876C388.433 118.912 388.443 118.948 388.461 118.979C388.477 119.013 388.485 119.05 388.485 119.087C388.485 119.124 388.477 119.161 388.461 119.195C388.399 119.342 388.382 119.504 388.412 119.66C388.412 119.71 388.369 119.759 388.344 119.809C388.461 119.871 388.554 119.809 388.641 119.771C389.26 119.518 389.929 119.27 390.56 118.997C391.679 118.516 392.832 118.116 394.008 117.802C394.58 117.66 395.166 117.585 395.754 117.579C395.781 117.573 395.808 117.573 395.835 117.579C395.837 117.585 395.839 117.591 395.839 117.597C395.839 117.604 395.837 117.61 395.835 117.616C395.835 117.616 395.835 117.684 395.835 117.69C395.774 117.728 395.707 117.756 395.637 117.771C395.407 117.821 395.183 117.893 394.968 117.988C394.809 118.029 394.674 118.131 394.59 118.273C394.568 118.31 394.537 118.343 394.501 118.367C394.465 118.392 394.423 118.408 394.38 118.415C394.237 118.465 394.101 118.508 394.107 118.706C394.107 118.768 394.027 118.787 393.984 118.818C393.94 118.849 393.891 118.855 393.878 118.892C393.761 119.202 393.495 119.425 393.365 119.728C393.365 119.728 393.365 119.79 393.365 119.809C393.365 119.827 393.142 119.97 393.148 120.155C393.154 120.341 392.944 120.335 393.036 120.496C393.036 120.496 393.036 120.533 393.036 120.54C392.965 120.588 392.908 120.655 392.873 120.734C392.838 120.813 392.826 120.9 392.838 120.985C392.69 121.103 392.838 121.295 392.733 121.425C392.795 121.549 392.671 121.654 392.684 121.76C392.681 121.87 392.658 121.98 392.615 122.082C392.578 122.224 392.671 122.385 392.585 122.534C392.671 122.645 392.547 122.769 392.585 122.856C392.622 122.943 392.665 123.067 392.585 123.172C392.684 123.259 392.628 123.389 392.665 123.482C392.702 123.575 392.745 123.624 392.696 123.711C392.681 123.753 392.681 123.799 392.696 123.841C392.792 124.032 392.831 124.247 392.807 124.46C392.807 124.516 392.95 124.627 392.931 124.665C392.845 124.85 393.018 124.925 393.074 125.042C393.128 125.14 393.164 125.247 393.179 125.358C393.216 125.484 393.301 125.59 393.414 125.656C393.686 125.829 393.823 126.145 394.126 126.275C394.146 126.287 394.161 126.305 394.169 126.326C394.177 126.348 394.177 126.371 394.169 126.393C394.163 126.414 394.15 126.433 394.132 126.446C394.114 126.459 394.092 126.467 394.07 126.467C393.863 126.503 393.65 126.486 393.451 126.418C393.327 126.418 393.21 126.331 393.086 126.448C392.962 126.566 392.888 126.479 392.789 126.448C392.17 126.316 391.58 126.077 391.043 125.742C390.871 125.63 390.694 125.526 390.511 125.433C389.998 125.148 389.511 124.818 389.056 124.448C388.666 124.124 388.252 123.83 387.818 123.568C387.446 123.331 387.02 123.194 386.58 123.172C386.838 123.223 387.083 123.329 387.298 123.482C387.46 123.57 387.585 123.713 387.651 123.886C387.717 124.059 387.719 124.249 387.657 124.423C387.641 124.495 387.641 124.568 387.657 124.64C387.672 124.678 387.672 124.72 387.657 124.758C387.453 125.053 387.223 125.328 386.97 125.581C386.79 125.724 386.623 125.885 386.449 126.04C386.419 126.07 386.383 126.095 386.344 126.114C386.126 126.191 385.918 126.295 385.725 126.424C385.601 126.498 385.453 126.529 385.36 126.647C385.075 126.702 384.858 126.95 384.555 126.956C384.466 126.953 384.38 126.984 384.314 127.043C384.28 127.07 384.242 127.091 384.202 127.105C384.06 127.161 383.905 127.105 383.769 127.173C383.633 127.241 383.571 127.347 383.428 127.359C383.31 127.359 383.194 127.394 383.094 127.458C383.05 127.486 383.001 127.503 382.95 127.51C382.898 127.516 382.846 127.511 382.797 127.495C382.749 127.48 382.698 127.475 382.647 127.482C382.597 127.488 382.549 127.505 382.506 127.532C382.416 127.585 382.311 127.604 382.209 127.588C382.078 127.563 381.943 127.576 381.819 127.625C381.79 127.629 381.761 127.629 381.732 127.625C381.577 127.663 381.46 127.501 381.311 127.539C381.163 127.576 381.07 127.638 380.934 127.594C380.698 127.508 380.444 127.625 380.197 127.514C379.975 127.444 379.743 127.408 379.51 127.409C379.441 127.39 379.368 127.39 379.299 127.409C379.245 127.43 379.186 127.438 379.127 127.432C379.069 127.425 379.013 127.404 378.965 127.371C378.928 127.371 378.866 127.309 378.847 127.322C378.587 127.501 378.34 127.235 378.086 127.322C378.012 127.33 377.936 127.317 377.869 127.285C377.726 127.212 377.566 127.178 377.405 127.186C377.376 127.191 377.347 127.191 377.318 127.186C377.028 127.053 376.714 126.981 376.396 126.975C376.153 126.921 375.915 126.848 375.684 126.758C375.43 126.678 375.182 126.585 374.929 126.523C374.539 126.43 374.149 126.362 373.765 126.287C373.734 126.3 373.672 126.275 373.622 126.356Z" fill="url(#paint24_linear_41_276)"/>
</g>
<defs>
<filter id="filter0_d_41_276" x="447.208" y="33.5772" width="69.9497" height="46.612" filterUnits="userSpaceOnUse" color-interpolation-filters="sRGB">
<feFlood flood-opacity="0" result="BackgroundImageFix"/>
<feColorMatrix in="SourceAlpha" type="matrix" values="0 0 0 0 0 0 0 0 0 0 0 0 0 0 0 0 0 0 127 0" result="hardAlpha"/>
<feOffset dx="8" dy="8"/>
<feGaussianBlur stdDeviation="6"/>
<feColorMatrix type="matrix" values="0 0 0 0 0.133333 0 0 0 0 0.411765 0 0 0 0 0.6 0 0 0 1 0"/>
<feBlend mode="normal" in2="BackgroundImageFix" result="effect1_dropShadow_41_276"/>
<feBlend mode="normal" in="SourceGraphic" in2="effect1_dropShadow_41_276" result="shape"/>
</filter>
<filter id="filter1_d_41_276" x="241.079" y="134.467" width="68.1489" height="50.5933" filterUnits="userSpaceOnUse" color-interpolation-filters="sRGB">
<feFlood flood-opacity="0" result="BackgroundImageFix"/>
<feColorMatrix in="SourceAlpha" type="matrix" values="0 0 0 0 0 0 0 0 0 0 0 0 0 0 0 0 0 0 127 0" result="hardAlpha"/>
<feOffset dx="8" dy="8"/>
<feGaussianBlur stdDeviation="6"/>
<feColorMatrix type="matrix" values="0 0 0 0 0.133333 0 0 0 0 0.411765 0 0 0 0 0.6 0 0 0 1 0"/>
<feBlend mode="normal" in2="BackgroundImageFix" result="effect1_dropShadow_41_276"/>
<feBlend mode="normal" in="SourceGraphic" in2="effect1_dropShadow_41_276" result="shape"/>
</filter>
<filter id="filter2_d_41_276" x="351.899" y="129.072" width="103.397" height="83.3763" filterUnits="userSpaceOnUse" color-interpolation-filters="sRGB">
<feFlood flood-opacity="0" result="BackgroundImageFix"/>
<feColorMatrix in="SourceAlpha" type="matrix" values="0 0 0 0 0 0 0 0 0 0 0 0 0 0 0 0 0 0 127 0" result="hardAlpha"/>
<feOffset dx="12" dy="13"/>
<feGaussianBlur stdDeviation="15"/>
<feColorMatrix type="matrix" values="0 0 0 0 0 0 0 0 0 0.117647 0 0 0 0 0.227451 0 0 0 1 0"/>
<feBlend mode="normal" in2="BackgroundImageFix" result="effect1_dropShadow_41_276"/>
<feBlend mode="normal" in="SourceGraphic" in2="effect1_dropShadow_41_276" result="shape"/>
</filter>
<filter id="filter3_d_41_276" x="343.249" y="93.64" width="94.5901" height="78.5639" filterUnits="userSpaceOnUse" color-interpolation-filters="sRGB">
<feFlood flood-opacity="0" result="BackgroundImageFix"/>
<feColorMatrix in="SourceAlpha" type="matrix" values="0 0 0 0 0 0 0 0 0 0 0 0 0 0 0 0 0 0 127 0" result="hardAlpha"/>
<feOffset dx="12" dy="13"/>
<feGaussianBlur stdDeviation="15"/>
<feColorMatrix type="matrix" values="0 0 0 0 0 0 0 0 0 0.117647 0 0 0 0 0.227451 0 0 0 1 0"/>
<feBlend mode="normal" in2="BackgroundImageFix" result="effect1_dropShadow_41_276"/>
<feBlend mode="normal" in="SourceGraphic" in2="effect1_dropShadow_41_276" result="shape"/>
</filter>
<linearGradient id="paint0_linear_41_276" x1="413.299" y1="92.8652" x2="426.287" y2="92.8652" gradientUnits="userSpaceOnUse">
<stop stop-color="#00AEEF"/>
<stop offset="1" stop-color="#0070E2"/>
</linearGradient>
<linearGradient id="paint1_linear_41_276" x1="403.077" y1="192.149" x2="412.351" y2="192.149" gradientUnits="userSpaceOnUse">
<stop stop-color="#00AEEF"/>
<stop offset="1" stop-color="#0070E2"/>
</linearGradient>
<linearGradient id="paint2_linear_41_276" x1="295.524" y1="193.078" x2="314.071" y2="193.078" gradientUnits="userSpaceOnUse">
<stop stop-color="#00AEEF"/>
<stop offset="1" stop-color="#0070E2"/>
</linearGradient>
<linearGradient id="paint3_linear_41_276" x1="295.554" y1="193.074" x2="314.101" y2="193.074" gradientUnits="userSpaceOnUse">
<stop stop-color="#00AEEF"/>
<stop offset="1" stop-color="#0070E2"/>
</linearGradient>
<linearGradient id="paint4_linear_41_276" x1="496.365" y1="168.703" x2="514.913" y2="168.703" gradientUnits="userSpaceOnUse">
<stop stop-color="#00AEEF"/>
<stop offset="1" stop-color="#0070E2"/>
</linearGradient>
<linearGradient id="paint5_linear_41_276" x1="349.311" y1="142.045" x2="354.877" y2="142.045" gradientUnits="userSpaceOnUse">
<stop stop-color="#00AEEF"/>
<stop offset="1" stop-color="#0070E2"/>
</linearGradient>
<linearGradient id="paint6_linear_41_276" x1="239.878" y1="208.852" x2="245.437" y2="208.852" gradientUnits="userSpaceOnUse">
<stop stop-color="#00AEEF"/>
<stop offset="1" stop-color="#0070E2"/>
</linearGradient>
<linearGradient id="paint7_linear_41_276" x1="402.189" y1="33.468" x2="409.605" y2="33.468" gradientUnits="userSpaceOnUse">
<stop stop-color="#00AEEF"/>
<stop offset="1" stop-color="#0070E2"/>
</linearGradient>
<radialGradient id="paint8_radial_41_276" cx="0" cy="0" r="1" gradientUnits="userSpaceOnUse" gradientTransform="translate(504.184 167.093) scale(83.5004 83.5433)">
<stop stop-color="#00AEEF"/>
<stop offset="0.03" stop-color="#00A3ED" stop-opacity="0.83"/>
<stop offset="0.07" stop-color="#0099EB" stop-opacity="0.66"/>
<stop offset="0.11" stop-color="#008FE8" stop-opacity="0.5"/>
<stop offset="0.16" stop-color="#0086E7" stop-opacity="0.36"/>
<stop offset="0.21" stop-color="#007FE5" stop-opacity="0.25"/>
<stop offset="0.27" stop-color="#007AE4" stop-opacity="0.16"/>
<stop offset="0.34" stop-color="#0075E3" stop-opacity="0.09"/>
<stop offset="0.42" stop-color="#0072E2" stop-opacity="0.04"/>
<stop offset="0.54" stop-color="#0070E2" stop-opacity="0.01"/>
<stop offset="0.87" stop-color="#0070E2" stop-opacity="0"/>
</radialGradient>
<linearGradient id="paint9_linear_41_276" x1="345.396" y1="202.608" x2="384.135" y2="245.605" gradientUnits="userSpaceOnUse">
<stop stop-color="#00E6FA"/>
<stop offset="1" stop-color="#00AEEF"/>
</linearGradient>
<linearGradient id="paint10_linear_41_276" x1="347.361" y1="204.777" x2="382.179" y2="243.427" gradientUnits="userSpaceOnUse">
<stop stop-color="#00E6FA"/>
<stop offset="1" stop-color="#00AEEF"/>
</linearGradient>
<linearGradient id="paint11_linear_41_276" x1="349.516" y1="207.174" x2="380.022" y2="241.032" gradientUnits="userSpaceOnUse">
<stop stop-color="#00E6FA"/>
<stop offset="1" stop-color="#00AEEF"/>
</linearGradient>
<linearGradient id="paint12_linear_41_276" x1="351.52" y1="209.402" x2="378.013" y2="238.803" gradientUnits="userSpaceOnUse">
<stop stop-color="#00E6FA"/>
<stop offset="1" stop-color="#00AEEF"/>
</linearGradient>
<linearGradient id="paint13_linear_41_276" x1="353.516" y1="211.63" x2="375.995" y2="236.586" gradientUnits="userSpaceOnUse">
<stop stop-color="#00E6FA"/>
<stop offset="1" stop-color="#00AEEF"/>
</linearGradient>
<linearGradient id="paint14_linear_41_276" x1="355.518" y1="213.85" x2="374.008" y2="234.373" gradientUnits="userSpaceOnUse">
<stop stop-color="#00E6FA"/>
<stop offset="1" stop-color="#00AEEF"/>
</linearGradient>
<linearGradient id="paint15_linear_41_276" x1="485.358" y1="146.826" x2="524.097" y2="189.829" gradientUnits="userSpaceOnUse">
<stop stop-color="#00E6FA"/>
<stop offset="1" stop-color="#00AEEF"/>
</linearGradient>
<linearGradient id="paint16_linear_41_276" x1="487.321" y1="149.007" x2="522.139" y2="187.651" gradientUnits="userSpaceOnUse">
<stop stop-color="#00E6FA"/>
<stop offset="1" stop-color="#00AEEF"/>
</linearGradient>
<linearGradient id="paint17_linear_41_276" x1="489.475" y1="151.398" x2="519.982" y2="185.263" gradientUnits="userSpaceOnUse">
<stop stop-color="#00E6FA"/>
<stop offset="1" stop-color="#00AEEF"/>
</linearGradient>
<linearGradient id="paint18_linear_41_276" x1="491.475" y1="153.627" x2="517.968" y2="183.035" gradientUnits="userSpaceOnUse">
<stop stop-color="#00E6FA"/>
<stop offset="1" stop-color="#00AEEF"/>
</linearGradient>
<linearGradient id="paint19_linear_41_276" x1="493.516" y1="155.845" x2="515.995" y2="180.801" gradientUnits="userSpaceOnUse">
<stop stop-color="#00E6FA"/>
<stop offset="1" stop-color="#00AEEF"/>
</linearGradient>
<linearGradient id="paint20_linear_41_276" x1="495.48" y1="158.075" x2="513.97" y2="178.598" gradientUnits="userSpaceOnUse">
<stop stop-color="#00E6FA"/>
<stop offset="1" stop-color="#00AEEF"/>
</linearGradient>
<linearGradient id="paint21_linear_41_276" x1="451.878" y1="28.4091" x2="512.258" y2="58.1163" gradientUnits="userSpaceOnUse">
<stop stop-color="#0098FA"/>
<stop offset="1" stop-color="#000FEF"/>
</linearGradient>
<linearGradient id="paint22_linear_41_276" x1="248.797" y1="134.388" x2="301.87" y2="175.776" gradientUnits="userSpaceOnUse">
<stop stop-color="#0098FA"/>
<stop offset="1" stop-color="#000FEF"/>
</linearGradient>
<linearGradient id="paint23_linear_41_276" x1="369.883" y1="157.808" x2="413.311" y2="157.808" gradientUnits="userSpaceOnUse">
<stop stop-color="#0098FA"/>
<stop offset="1" stop-color="#000FEF"/>
</linearGradient>
<linearGradient id="paint24_linear_41_276" x1="361.229" y1="119.945" x2="395.822" y2="119.945" gradientUnits="userSpaceOnUse">
<stop stop-color="#0098FA"/>
<stop offset="1" stop-color="#000FEF"/>
</linearGradient>
</defs>
</svg>
