<svg width="889" height="786" viewBox="0 0 889 786" fill="none" xmlns="http://www.w3.org/2000/svg">
<path d="M1.29496 620.691C15.0355 591.914 37.9636 567.32 65.625 549.281C84.3199 537.751 104.724 528.921 123.774 517.933C135.031 511.499 145.045 503.425 156.337 497.131C142.823 461.443 149.79 423.033 157.448 386.955C166.804 342.344 184.702 298.931 212.276 261.266C226.011 243.134 234.443 221.913 238.804 200.186C241.926 183.392 242.2 165.447 251.399 150.223C258.144 138.874 271.751 133.802 280.735 124.367C290.527 113.756 289.707 98.5271 297.691 87.0151C307.786 72.1409 325.143 62.8452 334.046 47.1565C341.134 35.3711 339.279 21.0902 345.094 8.91504C351.101 -0.57261 364.713 -0.206134 375.052 0.142891C410.634 3.78438 438.208 26.9015 469.079 41.2929C487.687 50.9143 507.853 57.6971 528.484 62.4205C548.022 53.9101 569.048 48.4188 590.325 45.33C607.037 42.7239 622.109 35.3188 637.809 29.7576C660.487 21.6835 685.986 19.7697 709.466 25.9533C717.776 28.6059 726.254 25.6566 734.534 24.6386C740.634 23.7137 747.007 23.8068 752.81 21.6603C763.818 17.0066 770.685 6.29736 782.536 3.13869C793.224 0.648976 805.214 2.30684 814.076 8.60674C823.031 14.4645 828.258 23.7602 832.352 32.9454C837.929 45.8593 843.04 59.4015 842.569 73.5195C843.185 89.435 835.591 105.007 839.592 120.876C853.826 126.874 866.77 135.175 878.766 144.43C884.843 149.083 889.675 156.029 888.652 163.626C887.785 171.305 881.389 177.005 874.993 181.293C861.357 190.6 844.47 193.776 828.799 198.895C818.013 202.449 805.964 203.345 796.515 209.831C783.141 218.894 771.744 230.383 762.399 243.047C721.759 292.777 667.233 331.926 606.612 358.405C607.729 375.176 599.594 390.515 593.145 405.692C581.295 428.763 563.489 452.13 536.072 460.157C527.443 463.223 515.912 458.75 515.464 449.384C514.476 436.051 516.953 422.719 518.314 409.479C495.926 430.897 468.131 446.243 443.011 464.578C425.206 478.097 403.76 486.334 384.815 498.213C376.907 503.012 381.693 512.755 385.287 518.671C402.842 545.133 431.556 562.881 460.043 578.006C468.596 582.205 478.493 586.452 488.309 584.788C505.643 576.487 518.959 562.619 531.083 548.722C543.655 533.086 560.739 520.166 580.824 513.89C599.39 508.265 619.202 507.363 637.897 502.174C645.264 500.429 652.283 497.491 659.795 496.293C665.418 496.985 661.453 502.174 659.447 504.524C649.974 515.809 647.369 530.271 642.002 543.347C635.507 559.728 631.64 577.191 632.384 594.695C633.03 610.663 639.874 625.525 646.119 640.161C648.846 646.717 655.144 651.097 658.667 657.188C657.254 664.546 647.084 660.346 641.606 663.005C629.779 666.373 628.564 679.083 626.284 688.565C620.161 718.895 634.344 749.348 654.649 772.482C657.557 775.391 665.116 778.881 659.534 783.046C650.608 786.92 640.17 786.274 630.645 785.076C606.049 779.259 584.01 767.043 562.687 754.606C543.69 743.234 532.287 724.294 515.005 711.1C502.41 701.665 489.489 691.654 473.522 687.78C465.09 687.64 456.658 688.908 448.209 688.425C448.977 694.033 449 699.821 446 704.917C441.092 712.531 447.163 721.827 442.383 729.465C437.603 737.103 427.555 740.901 423.985 749.394C424.107 756.107 426.985 765.496 418.577 769.091C398.841 775.437 377.989 768.655 359.765 761.203C337.942 753.129 318.828 739.819 302.709 724.067C291.824 713.293 280.543 702.381 273.53 688.931C264.006 671.312 265.593 650.754 257.214 632.715C241.816 623.862 226.116 614.293 215.451 600.332C209.549 592.903 206.921 583.863 202.455 575.719C178.131 607.364 135.485 622.291 94.6994 622.256C72.3063 622.879 49.7155 618.841 27.5259 622.838C19.9142 624.036 13.3434 628.655 5.63287 629.324C1.07981 629.213 -0.664651 624.001 1.29496 620.691ZM538.677 655.408C552.488 657.025 566.1 653.267 579.114 649.37C595.477 644.291 612.933 645.123 629.948 645.239C619.731 639.422 607.084 640.946 595.64 640.44C579.201 639.422 564.821 648.398 548.725 649.457C539.206 650.754 529.978 647.799 520.814 645.966C523.326 652.947 531.833 654.471 538.677 655.413V655.408ZM580.603 617.597C564.902 629.178 543.114 631.558 523.873 628.254C525.187 634.577 532.798 635.449 538.41 635.635C558.518 635.938 579.916 630.237 593.605 615.857C601.391 607.504 611.456 601.669 620.702 594.98C604.728 597.423 591.982 607.62 580.603 617.608V617.597ZM616.509 574.37C610.113 572.729 604.38 576.929 598.855 579.28C583.737 586.085 573.066 599.122 557.517 605.305C548.941 609.592 539.27 610.814 529.798 612.286C529.251 613.094 528.164 614.752 527.617 615.561C545.173 619.505 562.507 611.361 576.66 602.368C586.545 596.44 593.25 587.074 603.193 581.304C607.508 578.808 612.096 576.708 616.509 574.382V574.37ZM547.057 586.731C559.035 580.553 570.613 573.445 580.201 564.219C590.168 554.784 603.781 550.217 615.16 542.626C600.53 545.162 587.144 551.875 574.671 559.216C561.297 570.123 547.522 581.542 530.478 587.261C526.588 588.785 521.826 589.663 519.843 593.659C529.449 594.032 538.701 590.873 547.057 586.743V586.731ZM553.924 560.688C573.857 543.365 598.233 528.235 626.226 526.618C619.335 523.087 611.276 525.233 604.13 526.734C590.244 530.265 576.16 534.692 564.902 543.342C552.081 551.992 542.166 564.056 528.205 571.264C524.088 573.48 519.825 575.65 517.023 579.361C531.758 579.088 543.608 569.466 553.924 560.7V560.688ZM130.403 552.05C115.028 556.988 99.1129 560.583 84.3315 567.093C65.5378 575.237 48.4071 586.423 33.1605 599.43C62.9909 581.368 95.7403 567.599 129.862 558.28C148.307 553.225 166.606 547.094 182.673 537.036C180.734 534.748 178.777 532.487 176.8 530.253C164.344 542.161 146.818 546.954 130.403 552.05ZM244.142 223.571C260.034 206.568 276.548 190.006 294.801 175.132C280.566 175.202 265.913 175.714 252.771 181.473C251.079 195.684 248.997 209.942 244.142 223.571ZM268.268 146.297C259.29 150.404 257.557 161.131 254.655 169.176C280.392 158.082 311.955 164.289 335.389 148.071C312.891 150.561 290.603 143.226 268.262 146.297H268.268ZM285.276 133.726C303.599 133.214 321.91 134.023 340.175 134.372C350.688 134.552 361.573 133.15 370.447 127.566C346.1 125.972 322.992 116.886 298.494 116.769C295.388 123.226 290.754 128.857 285.271 133.726H285.276ZM306.791 93.0067C304.985 97.133 303.192 101.269 301.413 105.415C330.842 102.576 357.817 119.073 387.229 115.449C393.044 115.222 398.236 112.703 402.824 109.568C370.046 107.66 340.117 89.7608 306.768 92.9893L306.791 93.0067ZM340.733 59.1862C336.081 66.3645 327.597 71.2974 323.626 78.4466C337.116 80.2731 350.083 84.1473 362.754 88.737C384.85 96.9507 409.715 99.5567 432.876 93.699C400.144 87.4514 370.54 72.5481 340.71 59.1688L340.733 59.1862ZM348.228 49.4543C366.254 57.8948 384.705 65.713 403.598 72.3561C424.153 80.756 447.314 82.949 469.381 79.3948C446.442 73.2345 425.839 61.7283 403.673 53.7414C385.816 47.2438 369.453 37.855 352.095 30.4324C351.275 36.8196 347.978 43.0031 348.228 49.4543ZM446.564 43.5092C421.914 29.618 397.445 11.4687 367.417 10.3577C363.597 11.0034 355.642 9.77597 355.445 14.8136C365.83 24.6153 379.669 30.3103 392.91 36.0343C424.31 48.9075 456.606 62.723 491.49 63.6479C475.446 59.2619 461.194 50.8678 446.564 43.5092ZM698.627 40.4611C681.991 35.1559 664.139 40.368 648.916 47.0809C641.228 50.9143 632.576 55.8065 630.122 64.1773C628.878 70.9135 630.704 77.9463 633.489 84.1531C637.734 86.48 643.014 85.6074 647.602 85.0082C670.041 79.6333 692.626 70.2678 706.913 52.5955C708.169 47.1972 704.099 42.0084 698.627 40.4611V40.4611ZM820.647 38.524C820.443 58.9652 820.199 80.023 827.142 99.6324C832.369 79.2842 830.584 57.4178 820.647 38.524V38.524ZM583.01 400.928C588.441 388.77 594.291 376.543 596.099 363.373C592.087 365.263 587.575 366.555 584.196 369.463C574.578 394.837 566.967 422.399 546.684 442.561C563.379 432.864 574.526 417.059 583.01 400.916V400.928ZM528.78 449.611C550.179 427.14 570.118 401.998 576.957 372.058C572.223 374.85 564.536 376.095 563.92 382.366C558.384 405.872 546.737 428.64 526.896 444.608C527.367 445.824 528.309 448.343 528.78 449.611ZM556.849 381.72C549.487 383.174 548.126 390.446 544.998 395.681C541.352 403.319 534.956 409.339 530.49 416.489C528.658 421.334 528.932 426.593 528.484 431.671C541.242 417.128 550.895 400.13 556.849 381.72V381.72ZM427.444 717.906C428.189 714.009 428.857 710.106 429.381 706.208C397.172 697.192 367.121 682.981 336.599 670.061C324.102 664.919 312.542 658.025 300.273 652.441C303.426 655.135 306.889 657.443 310.589 659.317C334.639 672.44 357.823 687.064 383.385 697.581C397.765 704.94 412.273 712.049 427.444 717.906ZM436.271 695.575C434.527 692.666 435.527 687.018 430.991 686.209C414.53 683.143 398.137 679.775 381.873 675.924C399.399 683.719 417.082 692.026 436.271 695.575V695.575ZM417.53 727.295C398.608 718.934 380.209 709.435 362.434 698.85C341.186 686.488 318.398 676.407 298.04 662.702C301.188 666.373 304.694 669.721 308.507 672.696C332.732 690.549 357.474 708.035 384.653 721.874C393.154 726.231 402.406 729.162 410.732 733.799C413.058 731.654 415.324 729.486 417.53 727.295V727.295ZM297.691 676.105C314.479 695.208 335.726 710.501 357.55 724.293C372.325 733.915 389.212 740.075 405.33 747.434C405.179 746.369 404.906 744.298 404.784 743.257C387.275 733.06 368.58 724.573 351.868 713.2C333.772 700.833 315.083 689.28 297.691 676.082V676.105ZM323.277 721.478C339.39 737.527 360.294 748.859 382.315 756.38C389.776 758.987 397.887 758.987 405.72 758.783C405.226 757.282 404.185 754.257 403.685 752.762C399.126 751.599 394.538 750.435 390.101 748.911C354.049 733.868 319.741 714.189 292.83 687.018C300.418 700.211 312.223 710.734 323.282 721.437L323.277 721.478ZM211.049 448.75C208.793 466.533 206.31 484.455 207.851 502.43C208.892 513.18 207.752 524.366 211.84 534.674C215.329 544.342 222.08 552.643 225.552 562.334C230.611 575.644 237.432 589.209 249.701 598.063C279.31 619.679 314.618 633.082 350.2 643.599C382.804 652.249 415.21 662.493 449.006 666.204C462.962 667.845 480.046 666.46 488.204 654.233C495.071 644.152 502.741 633.175 503.084 620.924C496.141 611.465 482.703 609.092 471.684 605.538C447.366 599.174 424.996 587.895 404.231 574.678C384.397 564.754 366.568 551.305 352.479 534.93C347.065 528.27 340.739 521.801 338.343 513.552C336.162 506.956 336.732 500.01 337.081 493.251C329.337 503.882 319.964 513.225 309.309 520.934C309.559 504.001 317.392 488.708 326.568 474.543C299.093 480.104 271.646 489.086 243.107 486.497C250.521 482.664 258.9 481.122 266.762 478.353C309.21 465.556 350.572 448.64 387.13 424.58C367.045 429.123 346.147 434.405 325.387 430.787C316.938 429.426 307.943 429.309 300.226 425.389C308.53 424.097 316.962 424.26 325.341 423.795C344.582 422.09 363.277 417.268 381.501 411.48C415.349 396.14 446.046 375.676 478.575 358.172C455.466 358.905 432.503 361.471 409.471 362.902C395.98 363.012 382.891 366.427 369.499 367.375C376.273 361.191 386.112 360.267 394.503 356.904C411.692 350.279 430.555 349.633 448.163 344.421C459.694 341.099 471.841 340.803 483.57 338.493C519.099 332.217 555.093 326.685 589.046 314.643C602.42 310.443 615.556 305.534 628.494 300.223C668.169 285.482 700.151 258.287 731.743 232.407C746.396 220.343 759.614 206.917 773.174 193.84C767.993 192.775 762.789 191.99 757.532 191.344C748.007 205.579 732.528 214.805 718.404 224.636C693.906 241.866 663.656 252.796 632.71 252.592C600.327 253.861 566.757 242.581 545.161 219.604C523.646 197.924 516.15 166.366 521.628 137.763C523.14 128.694 529.984 121.778 536.578 115.478C545.411 106.968 555.186 96.7704 569.014 96.9798C562.344 104.705 553.395 110.656 548.382 119.666C526.815 153.551 542.829 201.105 578.486 220.884C595.593 230.598 615.829 234.263 635.611 235.188C626.389 228.452 619.766 218.464 619.911 207.301C619.737 193.712 622.237 177.104 636.03 169.49C633.942 182.2 628.413 195.603 634.344 208.127C641.583 219.359 656.132 226.672 670.268 224.967C691.783 223.222 710.536 212.234 728.51 201.99C736.651 197.47 742.89 190.803 749.24 184.416C746.721 181.227 744.589 177.749 742.89 174.056C766.15 179.018 789.235 187.988 813.634 185.039C836.446 184.23 863.694 179.338 875.743 159.089C863.345 168.338 846.668 169.885 831.364 168.635C813.634 165.895 796.422 159.961 781.6 150.392C773.715 156.942 765.9 164.394 755.264 166.907C759.631 157.6 769.301 151.544 773.215 141.992C780.233 126.978 779.169 110.254 779.07 94.2923C778.623 71.6871 778.971 47.7557 791.119 27.4424C793.671 22.5968 798.509 19.4149 803.022 16.2795C794.881 12.3762 783.705 11.8469 777.233 18.8157C771.264 25.1429 766.857 32.7789 764.364 41.1138C761.871 49.4486 761.362 58.2512 762.876 66.8182C765.783 85.1769 772.348 105.316 762.405 122.848C757.445 130.347 753.752 140.125 744.181 143.447C747.705 132.604 753.235 122.11 753.63 110.598C755.561 91.8433 748.519 73.5777 749.56 54.87C749.909 46.5399 752.787 38.5821 755.561 30.7407C744.105 36.5578 731.138 37.2209 718.398 37.663C724.544 46.6097 724.445 58.5114 717.328 66.9811C703.419 82.8501 683.561 93.8095 662.086 98.1432C670.663 98.7249 679.531 99.7545 687.945 97.4975C694.72 95.607 701.215 92.9078 708.158 91.5466C704.779 100.935 693.155 103.978 684.317 107.555C662.023 113.18 636.018 113.14 616.405 100.406C603.903 93.0242 594.186 82.2975 581.713 74.9156C574.224 72.263 566.013 75.1192 558.407 76.079C531.38 81.8961 504.329 89.1791 480.127 102.099C442.645 121.586 405.005 140.945 368.854 162.532C307.088 201.565 251.922 251.342 214.806 312.06C199.902 336.161 188.249 362.163 182.022 389.428C196.803 354.269 213.736 318.884 240.839 290.281C259.929 274.273 275.821 255.152 295.807 239.998C285.84 255.449 270.989 267.583 260.005 282.417C242.473 307.354 223.953 331.943 211.503 359.574C190.569 401.073 180.364 447.744 185.196 493.507C192.936 478.173 202.333 463.589 211.061 448.709L211.049 448.75ZM169.764 588.215C143.015 596.911 112.836 596.428 88.2856 610.75C116.837 611.058 147.033 605.084 169.752 588.174L169.764 588.215ZM76.3244 610.709C93.1875 593.758 118.773 588.796 141.98 583.747C156.186 580.978 170.543 576.708 181.481 567.459C143.271 588.057 95.1937 585.614 59.0193 610.413C64.7935 610.616 70.5444 610.709 76.3244 610.709ZM46.3487 609.813C67.9917 588.68 100.177 582.083 129.286 574.428C152.918 569.722 176.125 561.299 194.273 546.052C191.25 543.539 188.319 543.47 185.522 545.802C159.908 564.266 126.606 567.482 97.4498 578.855C74.2427 588.162 51.0587 598.051 30.6252 612.047C35.8819 611.448 41.3362 611.471 46.3487 609.813V609.813Z" fill="#0577BE"/>
<path d="M1.29496 620.691C15.0355 591.914 37.9636 567.32 65.625 549.281C84.3199 537.751 104.724 528.921 123.774 517.933C135.031 511.499 145.045 503.425 156.337 497.131C142.823 461.443 149.79 423.033 157.448 386.955C166.804 342.344 184.702 298.931 212.276 261.266C226.011 243.134 234.443 221.913 238.804 200.186C241.926 183.392 242.2 165.447 251.399 150.223C258.144 138.874 271.751 133.802 280.735 124.367C290.527 113.756 289.707 98.5271 297.691 87.0151C307.786 72.1409 325.143 62.8452 334.046 47.1565C341.134 35.3711 339.279 21.0902 345.094 8.91504C351.101 -0.57261 364.713 -0.206134 375.052 0.142891C410.634 3.78438 438.208 26.9015 469.079 41.2929C487.687 50.9143 507.853 57.6971 528.484 62.4205C548.022 53.9101 569.048 48.4188 590.325 45.33C607.037 42.7239 622.109 35.3188 637.809 29.7576C660.487 21.6835 685.986 19.7697 709.466 25.9533C717.776 28.6059 726.254 25.6566 734.534 24.6386C740.634 23.7137 747.007 23.8068 752.81 21.6603C763.818 17.0066 770.685 6.29736 782.536 3.13869C793.224 0.648976 805.214 2.30684 814.076 8.60674C823.031 14.4645 828.258 23.7602 832.352 32.9454C837.929 45.8593 843.04 59.4015 842.569 73.5195C843.185 89.435 835.591 105.007 839.592 120.876C853.826 126.874 866.77 135.175 878.766 144.43C884.843 149.083 889.675 156.029 888.652 163.626C887.785 171.305 881.389 177.005 874.993 181.293C861.357 190.6 844.47 193.776 828.799 198.895C818.013 202.449 805.964 203.345 796.515 209.831C783.141 218.894 771.744 230.383 762.399 243.047C721.759 292.777 667.233 331.926 606.612 358.405C607.729 375.176 599.594 390.515 593.145 405.692C581.295 428.763 563.489 452.13 536.072 460.157C527.443 463.223 515.912 458.75 515.464 449.384C514.476 436.051 516.953 422.719 518.314 409.479C495.926 430.897 468.131 446.243 443.011 464.578C425.206 478.097 403.76 486.334 384.815 498.213C376.907 503.012 381.693 512.755 385.287 518.671C402.842 545.133 431.556 562.881 460.043 578.006C468.596 582.205 478.493 586.452 488.309 584.788C505.643 576.487 518.959 562.619 531.083 548.722C543.655 533.086 560.739 520.166 580.824 513.89C599.39 508.265 619.202 507.363 637.897 502.174C645.264 500.429 652.283 497.491 659.795 496.293C665.418 496.985 661.453 502.174 659.447 504.524C649.974 515.809 647.369 530.271 642.002 543.347C635.507 559.728 631.64 577.191 632.384 594.695C633.03 610.663 639.874 625.525 646.119 640.161C648.846 646.717 655.144 651.097 658.667 657.188C657.254 664.546 647.084 660.346 641.606 663.005C629.779 666.373 628.564 679.083 626.284 688.565C620.161 718.895 634.344 749.348 654.649 772.482C657.557 775.391 665.116 778.881 659.534 783.046C650.608 786.92 640.17 786.274 630.645 785.076C606.049 779.259 584.01 767.043 562.687 754.606C543.69 743.234 532.287 724.294 515.005 711.1C502.41 701.665 489.489 691.654 473.522 687.78C465.09 687.64 456.658 688.908 448.209 688.425C448.977 694.033 449 699.821 446 704.917C441.092 712.531 447.163 721.827 442.383 729.465C437.603 737.103 427.555 740.901 423.985 749.394C424.107 756.107 426.985 765.496 418.577 769.091C398.841 775.437 377.989 768.655 359.765 761.203C337.942 753.129 318.828 739.819 302.709 724.067C291.824 713.293 280.543 702.381 273.53 688.931C264.006 671.312 265.593 650.754 257.214 632.715C241.816 623.862 226.116 614.293 215.451 600.332C209.549 592.903 206.921 583.863 202.455 575.719C178.131 607.364 135.485 622.291 94.6994 622.256C72.3063 622.879 49.7155 618.841 27.5259 622.838C19.9142 624.036 13.3434 628.655 5.63287 629.324C1.07981 629.213 -0.664651 624.001 1.29496 620.691ZM538.677 655.408C552.488 657.025 566.1 653.267 579.114 649.37C595.477 644.291 612.933 645.123 629.948 645.239C619.731 639.422 607.084 640.946 595.64 640.44C579.201 639.422 564.821 648.398 548.725 649.457C539.206 650.754 529.978 647.799 520.814 645.966C523.326 652.947 531.833 654.471 538.677 655.413V655.408ZM580.603 617.597C564.902 629.178 543.114 631.558 523.873 628.254C525.187 634.577 532.798 635.449 538.41 635.635C558.518 635.938 579.916 630.237 593.605 615.857C601.391 607.504 611.456 601.669 620.702 594.98C604.728 597.423 591.982 607.62 580.603 617.608V617.597ZM616.509 574.37C610.113 572.729 604.38 576.929 598.855 579.28C583.737 586.085 573.066 599.122 557.517 605.305C548.941 609.592 539.27 610.814 529.798 612.286C529.251 613.094 528.164 614.752 527.617 615.561C545.173 619.505 562.507 611.361 576.66 602.368C586.545 596.44 593.25 587.074 603.193 581.304C607.508 578.808 612.096 576.708 616.509 574.382V574.37ZM547.057 586.731C559.035 580.553 570.613 573.445 580.201 564.219C590.168 554.784 603.781 550.217 615.16 542.626C600.53 545.162 587.144 551.875 574.671 559.216C561.297 570.123 547.522 581.542 530.478 587.261C526.588 588.785 521.826 589.663 519.843 593.659C529.449 594.032 538.701 590.873 547.057 586.743V586.731ZM553.924 560.688C573.857 543.365 598.233 528.235 626.226 526.618C619.335 523.087 611.276 525.233 604.13 526.734C590.244 530.265 576.16 534.692 564.902 543.342C552.081 551.992 542.166 564.056 528.205 571.264C524.088 573.48 519.825 575.65 517.023 579.361C531.758 579.088 543.608 569.466 553.924 560.7V560.688ZM130.403 552.05C115.028 556.988 99.1129 560.583 84.3315 567.093C65.5378 575.237 48.4071 586.423 33.1605 599.43C62.9909 581.368 95.7403 567.599 129.862 558.28C148.307 553.225 166.606 547.094 182.673 537.036C180.734 534.748 178.777 532.487 176.8 530.253C164.344 542.161 146.818 546.954 130.403 552.05ZM244.142 223.571C260.034 206.568 276.548 190.006 294.801 175.132C280.566 175.202 265.913 175.714 252.771 181.473C251.079 195.684 248.997 209.942 244.142 223.571ZM268.268 146.297C259.29 150.404 257.557 161.131 254.655 169.176C280.392 158.082 311.955 164.289 335.389 148.071C312.891 150.561 290.603 143.226 268.262 146.297H268.268ZM285.276 133.726C303.599 133.214 321.91 134.023 340.175 134.372C350.688 134.552 361.573 133.15 370.447 127.566C346.1 125.972 322.992 116.886 298.494 116.769C295.388 123.226 290.754 128.857 285.271 133.726H285.276ZM306.791 93.0067C304.985 97.133 303.192 101.269 301.413 105.415C330.842 102.576 357.817 119.073 387.229 115.449C393.044 115.222 398.236 112.703 402.824 109.568C370.046 107.66 340.117 89.7608 306.768 92.9893L306.791 93.0067ZM340.733 59.1862C336.081 66.3645 327.597 71.2974 323.626 78.4466C337.116 80.2731 350.083 84.1473 362.754 88.737C384.85 96.9507 409.715 99.5567 432.876 93.699C400.144 87.4514 370.54 72.5481 340.71 59.1688L340.733 59.1862ZM348.228 49.4543C366.254 57.8948 384.705 65.713 403.598 72.3561C424.153 80.756 447.314 82.949 469.381 79.3948C446.442 73.2345 425.839 61.7283 403.673 53.7414C385.816 47.2438 369.453 37.855 352.095 30.4324C351.275 36.8196 347.978 43.0031 348.228 49.4543ZM446.564 43.5092C421.914 29.618 397.445 11.4687 367.417 10.3577C363.597 11.0034 355.642 9.77597 355.445 14.8136C365.83 24.6153 379.669 30.3103 392.91 36.0343C424.31 48.9075 456.606 62.723 491.49 63.6479C475.446 59.2619 461.194 50.8678 446.564 43.5092ZM698.627 40.4611C681.991 35.1559 664.139 40.368 648.916 47.0809C641.228 50.9143 632.576 55.8065 630.122 64.1773C628.878 70.9135 630.704 77.9463 633.489 84.1531C637.734 86.48 643.014 85.6074 647.602 85.0082C670.041 79.6333 692.626 70.2678 706.913 52.5955C708.169 47.1972 704.099 42.0084 698.627 40.4611V40.4611ZM820.647 38.524C820.443 58.9652 820.199 80.023 827.142 99.6324C832.369 79.2842 830.584 57.4178 820.647 38.524V38.524ZM583.01 400.928C588.441 388.77 594.291 376.543 596.099 363.373C592.087 365.263 587.575 366.555 584.196 369.463C574.578 394.837 566.967 422.399 546.684 442.561C563.379 432.864 574.526 417.059 583.01 400.916V400.928ZM528.78 449.611C550.179 427.14 570.118 401.998 576.957 372.058C572.223 374.85 564.536 376.095 563.92 382.366C558.384 405.872 546.737 428.64 526.896 444.608C527.367 445.824 528.309 448.343 528.78 449.611ZM556.849 381.72C549.487 383.174 548.126 390.446 544.998 395.681C541.352 403.319 534.956 409.339 530.49 416.489C528.658 421.334 528.932 426.593 528.484 431.671C541.242 417.128 550.895 400.13 556.849 381.72V381.72ZM427.444 717.906C428.189 714.009 428.857 710.106 429.381 706.208C397.172 697.192 367.121 682.981 336.599 670.061C324.102 664.919 312.542 658.025 300.273 652.441C303.426 655.135 306.889 657.443 310.589 659.317C334.639 672.44 357.823 687.064 383.385 697.581C397.765 704.94 412.273 712.049 427.444 717.906ZM436.271 695.575C434.527 692.666 435.527 687.018 430.991 686.209C414.53 683.143 398.137 679.775 381.873 675.924C399.399 683.719 417.082 692.026 436.271 695.575V695.575ZM417.53 727.295C398.608 718.934 380.209 709.435 362.434 698.85C341.186 686.488 318.398 676.407 298.04 662.702C301.188 666.373 304.694 669.721 308.507 672.696C332.732 690.549 357.474 708.035 384.653 721.874C393.154 726.231 402.406 729.162 410.732 733.799C413.058 731.654 415.324 729.486 417.53 727.295V727.295ZM297.691 676.105C314.479 695.208 335.726 710.501 357.55 724.293C372.325 733.915 389.212 740.075 405.33 747.434C405.179 746.369 404.906 744.298 404.784 743.257C387.275 733.06 368.58 724.573 351.868 713.2C333.772 700.833 315.083 689.28 297.691 676.082V676.105ZM323.277 721.478C339.39 737.527 360.294 748.859 382.315 756.38C389.776 758.987 397.887 758.987 405.72 758.783C405.226 757.282 404.185 754.257 403.685 752.762C399.126 751.599 394.538 750.435 390.101 748.911C354.049 733.868 319.741 714.189 292.83 687.018C300.418 700.211 312.223 710.734 323.282 721.437L323.277 721.478ZM211.049 448.75C208.793 466.533 206.31 484.455 207.851 502.43C208.892 513.18 207.752 524.366 211.84 534.674C215.329 544.342 222.08 552.643 225.552 562.334C230.611 575.644 237.432 589.209 249.701 598.063C279.31 619.679 314.618 633.082 350.2 643.599C382.804 652.249 415.21 662.493 449.006 666.204C462.962 667.845 480.046 666.46 488.204 654.233C495.071 644.152 502.741 633.175 503.084 620.924C496.141 611.465 482.703 609.092 471.684 605.538C447.366 599.174 424.996 587.895 404.231 574.678C384.397 564.754 366.568 551.305 352.479 534.93C347.065 528.27 340.739 521.801 338.343 513.552C336.162 506.956 336.732 500.01 337.081 493.251C329.337 503.882 319.964 513.225 309.309 520.934C309.559 504.001 317.392 488.708 326.568 474.543C299.093 480.104 271.646 489.086 243.107 486.497C250.521 482.664 258.9 481.122 266.762 478.353C309.21 465.556 350.572 448.64 387.13 424.58C367.045 429.123 346.147 434.405 325.387 430.787C316.938 429.426 307.943 429.309 300.226 425.389C308.53 424.097 316.962 424.26 325.341 423.795C344.582 422.09 363.277 417.268 381.501 411.48C415.349 396.14 446.046 375.676 478.575 358.172C455.466 358.905 432.503 361.471 409.471 362.902C395.98 363.012 382.891 366.427 369.499 367.375C376.273 361.191 386.112 360.267 394.503 356.904C411.692 350.279 430.555 349.633 448.163 344.421C459.694 341.099 471.841 340.803 483.57 338.493C519.099 332.217 555.093 326.685 589.046 314.643C602.42 310.443 615.556 305.534 628.494 300.223C668.169 285.482 700.151 258.287 731.743 232.407C746.396 220.343 759.614 206.917 773.174 193.84C767.993 192.775 762.789 191.99 757.532 191.344C748.007 205.579 732.528 214.805 718.404 224.636C693.906 241.866 663.656 252.796 632.71 252.592C600.327 253.861 566.757 242.581 545.161 219.604C523.646 197.924 516.15 166.366 521.628 137.763C523.14 128.694 529.984 121.778 536.578 115.478C545.411 106.968 555.186 96.7704 569.014 96.9798C562.344 104.705 553.395 110.656 548.382 119.666C526.815 153.551 542.829 201.105 578.486 220.884C595.593 230.598 615.829 234.263 635.611 235.188C626.389 228.452 619.766 218.464 619.911 207.301C619.737 193.712 622.237 177.104 636.03 169.49C633.942 182.2 628.413 195.603 634.344 208.127C641.583 219.359 656.132 226.672 670.268 224.967C691.783 223.222 710.536 212.234 728.51 201.99C736.651 197.47 742.89 190.803 749.24 184.416C746.721 181.227 744.589 177.749 742.89 174.056C766.15 179.018 789.235 187.988 813.634 185.039C836.446 184.23 863.694 179.338 875.743 159.089C863.345 168.338 846.668 169.885 831.364 168.635C813.634 165.895 796.422 159.961 781.6 150.392C773.715 156.942 765.9 164.394 755.264 166.907C759.631 157.6 769.301 151.544 773.215 141.992C780.233 126.978 779.169 110.254 779.07 94.2923C778.623 71.6871 778.971 47.7557 791.119 27.4424C793.671 22.5968 798.509 19.4149 803.022 16.2795C794.881 12.3762 783.705 11.8469 777.233 18.8157C771.264 25.1429 766.857 32.7789 764.364 41.1138C761.871 49.4486 761.362 58.2512 762.876 66.8182C765.783 85.1769 772.348 105.316 762.405 122.848C757.445 130.347 753.752 140.125 744.181 143.447C747.705 132.604 753.235 122.11 753.63 110.598C755.561 91.8433 748.519 73.5777 749.56 54.87C749.909 46.5399 752.787 38.5821 755.561 30.7407C744.105 36.5578 731.138 37.2209 718.398 37.663C724.544 46.6097 724.445 58.5114 717.328 66.9811C703.419 82.8501 683.561 93.8095 662.086 98.1432C670.663 98.7249 679.531 99.7545 687.945 97.4975C694.72 95.607 701.215 92.9078 708.158 91.5466C704.779 100.935 693.155 103.978 684.317 107.555C662.023 113.18 636.018 113.14 616.405 100.406C603.903 93.0242 594.186 82.2975 581.713 74.9156C574.224 72.263 566.013 75.1192 558.407 76.079C531.38 81.8961 504.329 89.1791 480.127 102.099C442.645 121.586 405.005 140.945 368.854 162.532C307.088 201.565 251.922 251.342 214.806 312.06C199.902 336.161 188.249 362.163 182.022 389.428C196.803 354.269 213.736 318.884 240.839 290.281C259.929 274.273 275.821 255.152 295.807 239.998C285.84 255.449 270.989 267.583 260.005 282.417C242.473 307.354 223.953 331.943 211.503 359.574C190.569 401.073 180.364 447.744 185.196 493.507C192.936 478.173 202.333 463.589 211.061 448.709L211.049 448.75ZM169.764 588.215C143.015 596.911 112.836 596.428 88.2856 610.75C116.837 611.058 147.033 605.084 169.752 588.174L169.764 588.215ZM76.3244 610.709C93.1875 593.758 118.773 588.796 141.98 583.747C156.186 580.978 170.543 576.708 181.481 567.459C143.271 588.057 95.1937 585.614 59.0193 610.413C64.7935 610.616 70.5444 610.709 76.3244 610.709ZM46.3487 609.813C67.9917 588.68 100.177 582.083 129.286 574.428C152.918 569.722 176.125 561.299 194.273 546.052C191.25 543.539 188.319 543.47 185.522 545.802C159.908 564.266 126.606 567.482 97.4498 578.855C74.2427 588.162 51.0587 598.051 30.6252 612.047C35.8819 611.448 41.3362 611.471 46.3487 609.813V609.813Z" fill="black" fill-opacity="0.2"/>
<path d="M679.677 69.9882C682.258 67.289 685.282 64.9157 687.317 61.8442C686.672 54.346 676.182 59.4243 673.059 62.9088C668.867 67.5624 675.967 69.8893 680.2 69.3425C673.356 72.5244 665.25 73.3562 657.76 72.1579C653.324 71.5355 650.742 66.1372 653.347 62.6994C658.208 54.6485 668.151 50.7278 677.496 49.1572C682.456 48.2381 689.225 49.6691 690.289 55.0673C691.306 61.7337 685.439 66.9924 679.677 69.9882Z" fill="#0577BE"/>
<path d="M679.677 69.9882C682.258 67.289 685.282 64.9157 687.317 61.8442C686.672 54.346 676.182 59.4243 673.059 62.9088C668.867 67.5624 675.967 69.8893 680.2 69.3425C673.356 72.5244 665.25 73.3562 657.76 72.1579C653.324 71.5355 650.742 66.1372 653.347 62.6994C658.208 54.6485 668.151 50.7278 677.496 49.1572C682.456 48.2381 689.225 49.6691 690.289 55.0673C691.306 61.7337 685.439 66.9924 679.677 69.9882Z" fill="black" fill-opacity="0.2"/>
<path d="M350.082 265.413C371.929 249.753 399.276 241.353 426.728 240.254C458.291 240.114 488.145 224.798 520.034 229.69C538.577 230.679 553.208 248.305 550.085 265.174C547.381 283.236 531.983 297.401 515.196 305.405C491.442 315.253 464.344 316.661 438.928 312.385C417.157 308.895 396.776 300.228 374.964 297.185C355.647 294.37 336.778 302.031 320.833 311.484C317.559 313.054 313.716 316.446 309.948 313.956C307.593 311.833 308.261 308.442 310.198 306.342C321.397 291.159 333.94 276.395 350.082 265.413ZM479.143 300.844C481.14 299.49 483.574 298.94 485.958 299.303C494.838 299.437 503.17 296.028 511.375 293.236C489.331 298.954 466.077 295.219 444.004 300.315C455.64 301.49 467.514 302.578 479.143 300.844V300.844ZM421.576 295.516C451.028 281.101 486.441 292.45 516.318 279.35C524.104 275.54 535.507 272.952 536.251 263.179C522.342 270.881 507.142 276.744 491.198 279.6C461.472 284.33 430.252 279.973 401.439 289.705C407.958 292.287 414.773 293.974 421.593 295.516H421.576ZM387.012 286.43C393.211 283.521 398.764 279.304 405.585 277.57C433.648 269.845 463.379 274.778 491.942 270.375C507.119 266.937 522.493 262.487 535.507 254.226C534.344 252.638 532.018 249.427 530.855 247.828C508.177 262.702 479.504 263.976 452.773 265.314C433.433 267.547 413.301 265.517 394.653 271.712C383.022 275.404 371.685 279.961 360.735 285.348C369.521 285.301 378.278 286.686 387.03 286.43H387.012ZM359.508 276.046C378.377 267.513 398.113 258.979 419.436 258.147C439.207 257.042 458.977 255.681 478.748 254.203C493.227 252.615 508.078 249.52 520.528 242.138C490.448 235.914 461.798 250.282 431.932 250.166C394.293 249.939 357.252 266.361 332.975 292.933C341.924 287.419 349.71 280.339 359.508 276.046Z" fill="#0577BE"/>
<path d="M350.082 265.413C371.929 249.753 399.276 241.353 426.728 240.254C458.291 240.114 488.145 224.798 520.034 229.69C538.577 230.679 553.208 248.305 550.085 265.174C547.381 283.236 531.983 297.401 515.196 305.405C491.442 315.253 464.344 316.661 438.928 312.385C417.157 308.895 396.776 300.228 374.964 297.185C355.647 294.37 336.778 302.031 320.833 311.484C317.559 313.054 313.716 316.446 309.948 313.956C307.593 311.833 308.261 308.442 310.198 306.342C321.397 291.159 333.94 276.395 350.082 265.413ZM479.143 300.844C481.14 299.49 483.574 298.94 485.958 299.303C494.838 299.437 503.17 296.028 511.375 293.236C489.331 298.954 466.077 295.219 444.004 300.315C455.64 301.49 467.514 302.578 479.143 300.844V300.844ZM421.576 295.516C451.028 281.101 486.441 292.45 516.318 279.35C524.104 275.54 535.507 272.952 536.251 263.179C522.342 270.881 507.142 276.744 491.198 279.6C461.472 284.33 430.252 279.973 401.439 289.705C407.958 292.287 414.773 293.974 421.593 295.516H421.576ZM387.012 286.43C393.211 283.521 398.764 279.304 405.585 277.57C433.648 269.845 463.379 274.778 491.942 270.375C507.119 266.937 522.493 262.487 535.507 254.226C534.344 252.638 532.018 249.427 530.855 247.828C508.177 262.702 479.504 263.976 452.773 265.314C433.433 267.547 413.301 265.517 394.653 271.712C383.022 275.404 371.685 279.961 360.735 285.348C369.521 285.301 378.278 286.686 387.03 286.43H387.012ZM359.508 276.046C378.377 267.513 398.113 258.979 419.436 258.147C439.207 257.042 458.977 255.681 478.748 254.203C493.227 252.615 508.078 249.52 520.528 242.138C490.448 235.914 461.798 250.282 431.932 250.166C394.293 249.939 357.252 266.361 332.975 292.933C341.924 287.419 349.71 280.339 359.508 276.046Z" fill="black" fill-opacity="0.2"/>
</svg>
