<svg width="235" height="54" viewBox="0 0 235 54" fill="none" xmlns="http://www.w3.org/2000/svg">
<path d="M81.72 23.988C82.488 23.988 83.088 24.204 83.52 24.636C83.976 25.068 84.204 25.668 84.204 26.436C84.204 26.628 84.192 26.832 84.168 27.048C84.144 27.24 84.096 27.408 84.024 27.552C83.712 27.504 83.364 27.468 82.98 27.444C82.596 27.396 82.14 27.372 81.612 27.372C80.532 27.372 79.452 27.468 78.372 27.66C77.292 27.852 76.26 28.008 75.276 28.128C74.196 30.672 73.308 33.06 72.612 35.292C71.916 37.524 71.376 39.732 70.992 41.916C70.176 41.724 69.456 41.376 68.832 40.872C68.208 40.368 67.62 39.66 67.068 38.748C67.236 38.364 67.44 37.908 67.68 37.38C67.92 36.828 68.208 36.144 68.544 35.328C68.88 34.488 69.276 33.48 69.732 32.304C70.212 31.104 70.776 29.676 71.424 28.02C70.416 27.684 69.756 27.096 69.444 26.256C69.564 26.136 69.9 26.004 70.452 25.86C71.004 25.692 71.676 25.512 72.468 25.32C72.828 24.384 73.14 23.556 73.404 22.836C73.668 22.092 73.908 21.396 74.124 20.748C74.34 20.076 74.532 19.428 74.7 18.804C74.892 18.156 75.06 17.472 75.204 16.752H75.024C74.112 16.752 73.368 16.536 72.792 16.104C72.24 15.672 71.964 15.108 71.964 14.412C71.964 14.22 71.988 13.992 72.036 13.728C72.108 13.464 72.192 13.236 72.288 13.044C72.744 13.116 73.188 13.164 73.62 13.188C74.076 13.212 74.664 13.224 75.384 13.224C76.896 13.224 78.312 13.188 79.632 13.116C80.952 13.02 82.14 12.924 83.196 12.828C84.276 12.732 85.2 12.648 85.968 12.576C86.736 12.48 87.324 12.432 87.732 12.432C88.284 12.432 88.776 12.72 89.208 13.296C89.64 13.872 89.976 14.688 90.216 15.744C89.448 15.672 88.824 15.624 88.344 15.6C87.888 15.576 87.48 15.564 87.12 15.564C85.896 15.564 84.768 15.624 83.736 15.744C82.728 15.84 81.768 15.96 80.856 16.104C80.712 16.32 80.544 16.596 80.352 16.932C80.184 17.268 79.956 17.748 79.668 18.372C79.38 18.972 79.008 19.764 78.552 20.748C78.12 21.732 77.568 22.98 76.896 24.492C77.832 24.348 78.72 24.228 79.56 24.132C80.424 24.036 81.144 23.988 81.72 23.988ZM86.0397 36.588C86.0397 36.372 86.0517 36.108 86.0757 35.796C86.1237 35.46 86.1957 35.028 86.2917 34.5C86.3877 33.948 86.5077 33.288 86.6517 32.52C86.8197 31.752 87.0237 30.828 87.2637 29.748C87.3117 29.508 87.4197 29.124 87.5877 28.596C87.7557 28.068 87.9717 27.516 88.2357 26.94C88.5237 26.34 88.8597 25.764 89.2437 25.212C89.6517 24.66 90.1317 24.252 90.6837 23.988C91.0917 24.084 91.6317 24.336 92.3037 24.744C92.9757 25.128 93.5517 25.668 94.0317 26.364C93.4797 26.988 93.0117 27.612 92.6277 28.236C92.2677 28.86 91.9317 29.508 91.6197 30.18C91.3317 30.852 91.0557 31.548 90.7917 32.268C90.5517 32.988 90.2757 33.744 89.9637 34.536C89.6997 35.208 89.4597 35.904 89.2437 36.624C89.0277 37.32 88.9077 37.932 88.8837 38.46C88.8837 38.892 88.8717 39.192 88.8477 39.36C88.8477 39.552 88.7877 39.648 88.6677 39.648C88.5717 39.648 88.3797 39.588 88.0917 39.468C87.8037 39.348 87.5037 39.168 87.1917 38.928C86.9037 38.664 86.6397 38.34 86.3997 37.956C86.1597 37.572 86.0397 37.116 86.0397 36.588ZM92.9157 20.964C92.9157 20.82 92.9517 20.604 93.0237 20.316C92.9037 20.196 92.7957 20.016 92.6997 19.776C92.6277 19.536 92.5917 19.32 92.5917 19.128C92.5917 18.912 92.6157 18.624 92.6637 18.264C92.7357 17.88 92.8197 17.472 92.9157 17.04C93.0117 16.608 93.1317 16.164 93.2757 15.708C93.4197 15.228 93.5637 14.796 93.7077 14.412C93.9957 14.412 94.3437 14.496 94.7517 14.664C95.1837 14.808 95.6157 15.012 96.0477 15.276C96.4797 15.516 96.8757 15.792 97.2357 16.104C97.5957 16.392 97.8717 16.668 98.0637 16.932C97.7997 17.196 97.4517 17.568 97.0197 18.048C96.5877 18.504 96.1677 18.996 95.7597 19.524C95.3517 20.028 94.9797 20.508 94.6437 20.964C94.3077 21.42 94.0917 21.744 93.9957 21.936C93.7077 21.888 93.4557 21.768 93.2397 21.576C93.0237 21.36 92.9157 21.156 92.9157 20.964ZM106.932 24.672C106.908 25.128 106.824 25.608 106.68 26.112C106.56 26.592 106.404 27.036 106.212 27.444C106.02 27.828 105.816 28.152 105.6 28.416C105.384 28.68 105.18 28.812 104.988 28.812C104.724 28.788 104.568 28.608 104.52 28.272C104.52 28.2 104.544 28.092 104.592 27.948C104.664 27.78 104.736 27.6 104.808 27.408C104.88 27.216 104.94 27.024 104.988 26.832C105.06 26.64 105.096 26.472 105.096 26.328C105.096 25.992 105.012 25.716 104.844 25.5C104.7 25.26 104.496 25.14 104.232 25.14C103.272 25.14 102.54 25.74 102.036 26.94C101.532 28.14 101.28 29.904 101.28 32.232C101.28 32.472 101.292 32.616 101.316 32.664C101.82 32.64 102.264 32.628 102.648 32.628C103.056 32.604 103.452 32.592 103.836 32.592C103.86 32.64 103.872 32.736 103.872 32.88C103.872 33.096 103.824 33.252 103.728 33.348C103.176 33.468 102.732 33.576 102.396 33.672C102.084 33.744 101.844 33.816 101.676 33.888C101.508 33.96 101.4 34.044 101.352 34.14C101.328 34.212 101.316 34.32 101.316 34.464C101.316 34.656 101.316 34.848 101.316 35.04C101.34 35.232 101.352 35.472 101.352 35.76C101.352 37.776 100.8 39.396 99.6955 40.62C98.6155 41.844 97.1035 42.552 95.1595 42.744C94.8235 42.72 94.4755 42.624 94.1155 42.456C93.7555 42.288 93.4075 42.072 93.0715 41.808C92.7595 41.544 92.4835 41.244 92.2435 40.908C92.0035 40.596 91.8355 40.272 91.7395 39.936C91.7395 39.024 91.9315 38.16 92.3155 37.344C92.6995 36.504 93.2155 35.772 93.8635 35.148C94.5355 34.5 95.3155 33.984 96.2035 33.6C97.1155 33.192 98.0995 32.952 99.1555 32.88C99.1555 32.28 99.0955 31.692 98.9755 31.116C98.8555 30.54 98.7235 29.988 98.5795 29.46C98.4595 28.908 98.3395 28.38 98.2195 27.876C98.0995 27.348 98.0395 26.832 98.0395 26.328C98.0395 25.68 98.1715 25.044 98.4355 24.42C98.6995 23.772 99.0475 23.184 99.4795 22.656C99.9115 22.104 100.416 21.636 100.992 21.252C101.568 20.868 102.168 20.604 102.792 20.46C103.056 20.532 103.404 20.748 103.836 21.108C104.292 21.444 104.736 21.828 105.168 22.26C105.6 22.692 105.984 23.136 106.32 23.592C106.656 24.024 106.86 24.384 106.932 24.672ZM95.0515 41.088C95.6275 40.848 96.1675 40.5 96.6715 40.044C97.1995 39.588 97.6555 39.072 98.0395 38.496C98.4235 37.92 98.7235 37.308 98.9395 36.66C99.1795 36.012 99.2995 35.376 99.2995 34.752C98.8195 34.824 98.2915 35.052 97.7155 35.436C97.1395 35.796 96.5995 36.24 96.0955 36.768C95.5915 37.272 95.1715 37.8 94.8355 38.352C94.4995 38.904 94.3315 39.384 94.3315 39.792C94.3315 40.32 94.5715 40.752 95.0515 41.088ZM106.921 38.388C106.921 37.548 107.005 36.564 107.173 35.436C107.341 34.284 107.581 33.06 107.893 31.764C108.229 30.468 108.613 29.112 109.045 27.696C109.501 26.28 110.005 24.864 110.557 23.448C111.037 22.176 111.589 20.892 112.213 19.596C112.861 18.3 113.557 17.028 114.301 15.78C115.045 14.532 115.813 13.344 116.605 12.216C117.421 11.088 118.237 10.056 119.053 9.12C119.437 9.12 119.845 9.168 120.277 9.264C120.733 9.36 121.165 9.492 121.573 9.66C122.005 9.804 122.389 9.984 122.725 10.2C123.085 10.416 123.373 10.632 123.589 10.848C121.789 12.696 120.169 14.568 118.729 16.464C117.289 18.336 116.149 20.1 115.309 21.756C114.853 22.668 114.433 23.52 114.049 24.312C113.689 25.104 113.353 25.896 113.041 26.688C112.729 27.456 112.441 28.236 112.177 29.028C111.937 29.796 111.709 30.612 111.493 31.476C116.101 25.596 119.521 22.656 121.753 22.656C122.377 22.656 123.049 22.86 123.769 23.268C124.489 23.676 125.125 24.228 125.677 24.924C124.933 25.74 124.165 26.724 123.373 27.876C122.581 29.028 121.849 30.192 121.177 31.368C120.529 32.52 119.989 33.6 119.557 34.608C119.149 35.592 118.945 36.324 118.945 36.804C118.945 37.044 118.981 37.212 119.053 37.308C119.125 37.38 119.281 37.416 119.521 37.416C119.881 37.416 120.169 37.368 120.385 37.272C120.601 37.176 120.733 37.128 120.781 37.128C120.901 37.32 120.973 37.452 120.997 37.524C121.021 37.596 121.033 37.656 121.033 37.704C121.033 37.8 120.889 37.944 120.601 38.136C120.313 38.304 119.965 38.484 119.557 38.676C119.173 38.844 118.789 39 118.405 39.144C118.021 39.288 117.733 39.36 117.541 39.36C117.301 39.36 117.061 39.288 116.821 39.144C116.581 39.024 116.365 38.856 116.173 38.64C116.005 38.424 115.861 38.184 115.741 37.92C115.645 37.656 115.597 37.38 115.597 37.092C115.597 36.732 115.693 36.204 115.885 35.508C116.101 34.788 116.389 33.96 116.749 33.024C117.109 32.064 117.541 31.02 118.045 29.892C118.549 28.764 119.089 27.612 119.665 26.436C119.665 26.34 119.617 26.292 119.521 26.292C119.449 26.292 119.257 26.388 118.945 26.58C118.657 26.772 118.381 26.964 118.117 27.156C117.253 27.804 116.377 28.608 115.489 29.568C114.625 30.504 113.773 31.536 112.933 32.664C112.117 33.792 111.337 34.992 110.593 36.264C109.873 37.512 109.249 38.772 108.721 40.044C108.649 40.212 108.541 40.368 108.397 40.512C108.253 40.656 108.133 40.728 108.037 40.728C107.965 40.728 107.857 40.644 107.713 40.476C107.593 40.308 107.473 40.092 107.353 39.828C107.257 39.588 107.161 39.336 107.065 39.072C106.969 38.808 106.921 38.58 106.921 38.388ZM122.927 50.916C122.591 50.82 122.399 50.46 122.351 49.836C122.255 49.524 122.183 49.152 122.135 48.72C122.111 48.288 122.099 47.796 122.099 47.244C122.099 46.74 122.183 46.044 122.351 45.156C122.519 44.292 122.747 43.308 123.035 42.204C123.347 41.1 123.719 39.912 124.151 38.64C124.583 37.344 125.063 36.036 125.591 34.716C126.239 33.06 126.803 31.632 127.283 30.432C127.763 29.208 128.159 28.152 128.471 27.264C128.807 26.376 129.071 25.644 129.263 25.068C129.479 24.492 129.647 24 129.767 23.592C129.863 23.304 130.007 22.956 130.199 22.548C130.391 22.14 130.607 21.732 130.847 21.324C131.111 20.892 131.375 20.496 131.639 20.136C131.903 19.752 132.143 19.464 132.359 19.272C133.199 19.392 133.991 19.608 134.735 19.92C135.479 20.232 135.935 20.532 136.103 20.82C135.767 21.132 135.383 21.624 134.951 22.296C134.519 22.944 134.099 23.664 133.691 24.456C133.283 25.224 132.911 26.016 132.575 26.832C132.239 27.648 131.987 28.368 131.819 28.992C132.059 28.584 132.371 28.14 132.755 27.66C133.139 27.18 133.727 26.52 134.519 25.68C135.407 24.768 136.235 24.072 137.003 23.592C137.795 23.088 138.479 22.836 139.055 22.836C139.967 22.836 140.711 23.088 141.287 23.592C141.887 24.096 142.187 24.744 142.187 25.536C142.187 27.264 141.899 28.98 141.323 30.684C140.747 32.364 139.919 33.888 138.839 35.256C138.431 35.784 137.951 36.288 137.399 36.768C136.847 37.248 136.271 37.68 135.671 38.064C135.071 38.424 134.483 38.712 133.907 38.928C133.331 39.144 132.815 39.252 132.359 39.252C131.927 39.252 131.543 39.168 131.207 39C130.895 38.808 130.679 38.58 130.559 38.316C131.495 37.764 132.407 36.996 133.295 36.012C134.183 35.028 134.999 33.9 135.743 32.628C136.511 31.332 137.171 29.94 137.723 28.452C138.299 26.964 138.731 25.452 139.019 23.916C138.107 24.396 137.279 24.924 136.535 25.5C135.815 26.052 135.095 26.784 134.375 27.696C133.511 28.752 132.827 29.604 132.323 30.252C131.819 30.9 131.398 31.452 131.062 31.908C130.751 32.364 130.487 32.796 130.271 33.204C130.079 33.588 129.863 34.068 129.623 34.644C129.287 35.412 128.891 36.432 128.435 37.704C128.003 38.952 127.547 40.356 127.067 41.916C126.611 43.476 126.143 45.132 125.663 46.884C125.207 48.66 124.763 50.424 124.331 52.176C124.067 52.128 123.839 51.936 123.647 51.6C123.455 51.384 123.311 51.228 123.215 51.132C123.143 51.036 123.047 50.964 122.927 50.916ZM156.372 24.096C156.276 25.584 156.012 26.868 155.58 27.948C155.148 29.004 154.524 29.94 153.708 30.756C152.916 31.548 151.944 32.268 150.792 32.916C149.64 33.564 148.296 34.188 146.76 34.788C146.76 34.932 146.748 35.088 146.724 35.256C146.724 35.4 146.724 35.556 146.724 35.724C146.724 36.036 146.748 36.36 146.796 36.696C146.844 37.032 146.928 37.344 147.048 37.632C147.168 37.92 147.336 38.16 147.552 38.352C147.768 38.52 148.044 38.604 148.38 38.604C149.028 38.604 149.664 38.46 150.288 38.172C150.912 37.884 151.5 37.536 152.052 37.128C152.628 36.696 153.156 36.24 153.636 35.76C154.14 35.256 154.584 34.8 154.968 34.392C155.208 34.608 155.412 34.812 155.58 35.004C154.5 36.444 153.312 37.644 152.016 38.604C150.744 39.54 149.532 40.14 148.38 40.404C146.724 40.212 145.428 39.612 144.492 38.604C143.58 37.572 143.124 36.336 143.124 34.896C143.124 33.912 143.256 32.916 143.52 31.908C143.808 30.876 144.192 29.892 144.672 28.956C145.176 27.996 145.752 27.096 146.4 26.256C147.072 25.416 147.78 24.684 148.524 24.06C149.292 23.436 150.072 22.944 150.864 22.584C151.68 22.224 152.484 22.044 153.276 22.044C154.38 22.188 155.412 22.872 156.372 24.096ZM153.888 25.284C153.24 25.38 152.568 25.644 151.872 26.076C151.176 26.508 150.516 27.084 149.892 27.804C149.292 28.524 148.74 29.364 148.236 30.324C147.732 31.284 147.336 32.316 147.048 33.42C148.968 32.46 150.564 31.284 151.836 29.892C153.108 28.476 153.792 26.94 153.888 25.284ZM165.887 22.188C166.367 22.188 166.919 22.332 167.543 22.62C168.167 22.908 168.719 23.28 169.199 23.736C169.079 22.776 168.923 21.876 168.731 21.036C168.563 20.172 168.299 19.284 167.939 18.372C167.603 17.46 167.147 16.464 166.571 15.384C165.995 14.304 165.275 13.068 164.411 11.676C164.483 11.46 164.639 11.208 164.879 10.92C165.143 10.632 165.431 10.368 165.743 10.128C166.079 9.864 166.415 9.636 166.751 9.444C167.111 9.252 167.447 9.132 167.759 9.084C168.431 9.828 169.067 10.764 169.667 11.892C170.267 12.996 170.795 14.196 171.251 15.492C171.707 16.764 172.055 18.084 172.295 19.452C172.559 20.82 172.691 22.128 172.691 23.376C172.691 24.624 172.547 25.908 172.259 27.228C171.995 28.548 171.611 29.844 171.107 31.116C170.627 32.364 170.063 33.552 169.415 34.68C168.767 35.808 168.059 36.816 167.291 37.704C166.547 38.592 165.767 39.312 164.951 39.864C164.135 40.44 163.319 40.8 162.503 40.944C160.847 40.752 159.575 40.212 158.687 39.324C157.823 38.46 157.391 37.26 157.391 35.724C157.391 34.908 157.511 34.02 157.751 33.06C158.015 32.1 158.351 31.152 158.759 30.216C159.191 29.256 159.683 28.332 160.235 27.444C160.811 26.532 161.411 25.716 162.035 24.996C162.683 24.276 163.331 23.664 163.979 23.16C164.627 22.656 165.263 22.332 165.887 22.188ZM162.215 39.504C163.055 39.216 163.895 38.58 164.735 37.596C165.575 36.612 166.331 35.46 167.003 34.14C167.675 32.796 168.215 31.368 168.623 29.856C169.055 28.32 169.271 26.844 169.271 25.428C169.271 25.02 169.271 24.768 169.271 24.672C169.271 24.576 169.259 24.48 169.235 24.384C168.659 24.624 168.047 25.032 167.399 25.608C166.751 26.184 166.103 26.856 165.455 27.624C164.807 28.368 164.195 29.184 163.619 30.072C163.043 30.96 162.527 31.848 162.071 32.736C161.615 33.624 161.255 34.476 160.991 35.292C160.727 36.108 160.595 36.828 160.595 37.452C160.595 38.652 161.135 39.336 162.215 39.504ZM173.649 36.588C173.649 36.372 173.661 36.108 173.685 35.796C173.733 35.46 173.805 35.028 173.901 34.5C173.997 33.948 174.117 33.288 174.261 32.52C174.429 31.752 174.633 30.828 174.873 29.748C174.921 29.508 175.029 29.124 175.197 28.596C175.365 28.068 175.581 27.516 175.845 26.94C176.133 26.34 176.469 25.764 176.853 25.212C177.261 24.66 177.741 24.252 178.293 23.988C178.701 24.084 179.241 24.336 179.913 24.744C180.585 25.128 181.161 25.668 181.641 26.364C181.089 26.988 180.621 27.612 180.237 28.236C179.877 28.86 179.541 29.508 179.229 30.18C178.941 30.852 178.665 31.548 178.401 32.268C178.161 32.988 177.885 33.744 177.573 34.536C177.309 35.208 177.069 35.904 176.853 36.624C176.637 37.32 176.517 37.932 176.493 38.46C176.493 38.892 176.481 39.192 176.457 39.36C176.457 39.552 176.397 39.648 176.277 39.648C176.181 39.648 175.989 39.588 175.701 39.468C175.413 39.348 175.113 39.168 174.801 38.928C174.513 38.664 174.249 38.34 174.009 37.956C173.769 37.572 173.649 37.116 173.649 36.588ZM180.525 20.964C180.525 20.82 180.561 20.604 180.633 20.316C180.513 20.196 180.405 20.016 180.309 19.776C180.237 19.536 180.201 19.32 180.201 19.128C180.201 18.912 180.225 18.624 180.273 18.264C180.345 17.88 180.429 17.472 180.525 17.04C180.621 16.608 180.741 16.164 180.885 15.708C181.029 15.228 181.173 14.796 181.317 14.412C181.605 14.412 181.953 14.496 182.361 14.664C182.793 14.808 183.225 15.012 183.657 15.276C184.089 15.516 184.485 15.792 184.845 16.104C185.205 16.392 185.481 16.668 185.673 16.932C185.409 17.196 185.061 17.568 184.629 18.048C184.197 18.504 183.777 18.996 183.369 19.524C182.961 20.028 182.589 20.508 182.253 20.964C181.917 21.42 181.701 21.744 181.605 21.936C181.317 21.888 181.065 21.768 180.849 21.576C180.633 21.36 180.525 21.156 180.525 20.964ZM194.541 24.456C194.781 24.456 195.057 24.504 195.369 24.6C195.705 24.672 196.005 24.78 196.269 24.924C196.533 25.044 196.749 25.176 196.917 25.32C197.109 25.464 197.205 25.596 197.205 25.716C196.725 26.724 196.281 27.744 195.873 28.776C195.465 29.784 195.117 30.756 194.829 31.692C194.541 32.628 194.313 33.504 194.145 34.32C194.001 35.136 193.929 35.844 193.929 36.444C193.929 37.116 194.001 37.68 194.145 38.136C194.289 38.568 194.529 38.88 194.865 39.072C194.577 39.264 194.205 39.42 193.749 39.54C193.293 39.66 192.885 39.72 192.525 39.72C191.229 39.72 190.581 38.832 190.581 37.056C190.581 35.688 191.037 33.816 191.949 31.44C191.469 32.544 190.917 33.588 190.293 34.572C189.669 35.532 189.033 36.384 188.385 37.128C187.737 37.872 187.077 38.484 186.405 38.964C185.757 39.42 185.157 39.696 184.605 39.792C183.717 39.744 182.997 39.324 182.445 38.532C181.893 37.716 181.617 36.684 181.617 35.436C181.617 34.092 181.905 32.676 182.481 31.188C183.057 29.7 183.789 28.32 184.677 27.048C185.589 25.776 186.573 24.72 187.629 23.88C188.685 23.016 189.705 22.56 190.689 22.512C190.929 22.584 191.193 22.728 191.481 22.944C191.793 23.16 192.081 23.412 192.345 23.7C192.633 23.988 192.873 24.288 193.065 24.6C193.257 24.888 193.365 25.14 193.389 25.356C192.429 25.5 191.433 25.968 190.401 26.76C189.393 27.552 188.469 28.512 187.629 29.64C186.813 30.744 186.141 31.932 185.613 33.204C185.085 34.476 184.821 35.664 184.821 36.768C184.821 37.224 184.989 37.512 185.325 37.632C186.021 37.488 186.825 36.9 187.737 35.868C188.649 34.812 189.753 33.192 191.049 31.008C191.289 30.576 191.553 30.096 191.841 29.568C192.153 29.04 192.465 28.488 192.777 27.912C193.089 27.336 193.389 26.76 193.677 26.184C193.989 25.584 194.277 25.008 194.541 24.456Z" fill="#033059"/>
<path d="M81.72 23.988C82.488 23.988 83.088 24.204 83.52 24.636C83.976 25.068 84.204 25.668 84.204 26.436C84.204 26.628 84.192 26.832 84.168 27.048C84.144 27.24 84.096 27.408 84.024 27.552C83.712 27.504 83.364 27.468 82.98 27.444C82.596 27.396 82.14 27.372 81.612 27.372C80.532 27.372 79.452 27.468 78.372 27.66C77.292 27.852 76.26 28.008 75.276 28.128C74.196 30.672 73.308 33.06 72.612 35.292C71.916 37.524 71.376 39.732 70.992 41.916C70.176 41.724 69.456 41.376 68.832 40.872C68.208 40.368 67.62 39.66 67.068 38.748C67.236 38.364 67.44 37.908 67.68 37.38C67.92 36.828 68.208 36.144 68.544 35.328C68.88 34.488 69.276 33.48 69.732 32.304C70.212 31.104 70.776 29.676 71.424 28.02C70.416 27.684 69.756 27.096 69.444 26.256C69.564 26.136 69.9 26.004 70.452 25.86C71.004 25.692 71.676 25.512 72.468 25.32C72.828 24.384 73.14 23.556 73.404 22.836C73.668 22.092 73.908 21.396 74.124 20.748C74.34 20.076 74.532 19.428 74.7 18.804C74.892 18.156 75.06 17.472 75.204 16.752H75.024C74.112 16.752 73.368 16.536 72.792 16.104C72.24 15.672 71.964 15.108 71.964 14.412C71.964 14.22 71.988 13.992 72.036 13.728C72.108 13.464 72.192 13.236 72.288 13.044C72.744 13.116 73.188 13.164 73.62 13.188C74.076 13.212 74.664 13.224 75.384 13.224C76.896 13.224 78.312 13.188 79.632 13.116C80.952 13.02 82.14 12.924 83.196 12.828C84.276 12.732 85.2 12.648 85.968 12.576C86.736 12.48 87.324 12.432 87.732 12.432C88.284 12.432 88.776 12.72 89.208 13.296C89.64 13.872 89.976 14.688 90.216 15.744C89.448 15.672 88.824 15.624 88.344 15.6C87.888 15.576 87.48 15.564 87.12 15.564C85.896 15.564 84.768 15.624 83.736 15.744C82.728 15.84 81.768 15.96 80.856 16.104C80.712 16.32 80.544 16.596 80.352 16.932C80.184 17.268 79.956 17.748 79.668 18.372C79.38 18.972 79.008 19.764 78.552 20.748C78.12 21.732 77.568 22.98 76.896 24.492C77.832 24.348 78.72 24.228 79.56 24.132C80.424 24.036 81.144 23.988 81.72 23.988ZM86.0397 36.588C86.0397 36.372 86.0517 36.108 86.0757 35.796C86.1237 35.46 86.1957 35.028 86.2917 34.5C86.3877 33.948 86.5077 33.288 86.6517 32.52C86.8197 31.752 87.0237 30.828 87.2637 29.748C87.3117 29.508 87.4197 29.124 87.5877 28.596C87.7557 28.068 87.9717 27.516 88.2357 26.94C88.5237 26.34 88.8597 25.764 89.2437 25.212C89.6517 24.66 90.1317 24.252 90.6837 23.988C91.0917 24.084 91.6317 24.336 92.3037 24.744C92.9757 25.128 93.5517 25.668 94.0317 26.364C93.4797 26.988 93.0117 27.612 92.6277 28.236C92.2677 28.86 91.9317 29.508 91.6197 30.18C91.3317 30.852 91.0557 31.548 90.7917 32.268C90.5517 32.988 90.2757 33.744 89.9637 34.536C89.6997 35.208 89.4597 35.904 89.2437 36.624C89.0277 37.32 88.9077 37.932 88.8837 38.46C88.8837 38.892 88.8717 39.192 88.8477 39.36C88.8477 39.552 88.7877 39.648 88.6677 39.648C88.5717 39.648 88.3797 39.588 88.0917 39.468C87.8037 39.348 87.5037 39.168 87.1917 38.928C86.9037 38.664 86.6397 38.34 86.3997 37.956C86.1597 37.572 86.0397 37.116 86.0397 36.588ZM92.9157 20.964C92.9157 20.82 92.9517 20.604 93.0237 20.316C92.9037 20.196 92.7957 20.016 92.6997 19.776C92.6277 19.536 92.5917 19.32 92.5917 19.128C92.5917 18.912 92.6157 18.624 92.6637 18.264C92.7357 17.88 92.8197 17.472 92.9157 17.04C93.0117 16.608 93.1317 16.164 93.2757 15.708C93.4197 15.228 93.5637 14.796 93.7077 14.412C93.9957 14.412 94.3437 14.496 94.7517 14.664C95.1837 14.808 95.6157 15.012 96.0477 15.276C96.4797 15.516 96.8757 15.792 97.2357 16.104C97.5957 16.392 97.8717 16.668 98.0637 16.932C97.7997 17.196 97.4517 17.568 97.0197 18.048C96.5877 18.504 96.1677 18.996 95.7597 19.524C95.3517 20.028 94.9797 20.508 94.6437 20.964C94.3077 21.42 94.0917 21.744 93.9957 21.936C93.7077 21.888 93.4557 21.768 93.2397 21.576C93.0237 21.36 92.9157 21.156 92.9157 20.964ZM106.932 24.672C106.908 25.128 106.824 25.608 106.68 26.112C106.56 26.592 106.404 27.036 106.212 27.444C106.02 27.828 105.816 28.152 105.6 28.416C105.384 28.68 105.18 28.812 104.988 28.812C104.724 28.788 104.568 28.608 104.52 28.272C104.52 28.2 104.544 28.092 104.592 27.948C104.664 27.78 104.736 27.6 104.808 27.408C104.88 27.216 104.94 27.024 104.988 26.832C105.06 26.64 105.096 26.472 105.096 26.328C105.096 25.992 105.012 25.716 104.844 25.5C104.7 25.26 104.496 25.14 104.232 25.14C103.272 25.14 102.54 25.74 102.036 26.94C101.532 28.14 101.28 29.904 101.28 32.232C101.28 32.472 101.292 32.616 101.316 32.664C101.82 32.64 102.264 32.628 102.648 32.628C103.056 32.604 103.452 32.592 103.836 32.592C103.86 32.64 103.872 32.736 103.872 32.88C103.872 33.096 103.824 33.252 103.728 33.348C103.176 33.468 102.732 33.576 102.396 33.672C102.084 33.744 101.844 33.816 101.676 33.888C101.508 33.96 101.4 34.044 101.352 34.14C101.328 34.212 101.316 34.32 101.316 34.464C101.316 34.656 101.316 34.848 101.316 35.04C101.34 35.232 101.352 35.472 101.352 35.76C101.352 37.776 100.8 39.396 99.6955 40.62C98.6155 41.844 97.1035 42.552 95.1595 42.744C94.8235 42.72 94.4755 42.624 94.1155 42.456C93.7555 42.288 93.4075 42.072 93.0715 41.808C92.7595 41.544 92.4835 41.244 92.2435 40.908C92.0035 40.596 91.8355 40.272 91.7395 39.936C91.7395 39.024 91.9315 38.16 92.3155 37.344C92.6995 36.504 93.2155 35.772 93.8635 35.148C94.5355 34.5 95.3155 33.984 96.2035 33.6C97.1155 33.192 98.0995 32.952 99.1555 32.88C99.1555 32.28 99.0955 31.692 98.9755 31.116C98.8555 30.54 98.7235 29.988 98.5795 29.46C98.4595 28.908 98.3395 28.38 98.2195 27.876C98.0995 27.348 98.0395 26.832 98.0395 26.328C98.0395 25.68 98.1715 25.044 98.4355 24.42C98.6995 23.772 99.0475 23.184 99.4795 22.656C99.9115 22.104 100.416 21.636 100.992 21.252C101.568 20.868 102.168 20.604 102.792 20.46C103.056 20.532 103.404 20.748 103.836 21.108C104.292 21.444 104.736 21.828 105.168 22.26C105.6 22.692 105.984 23.136 106.32 23.592C106.656 24.024 106.86 24.384 106.932 24.672ZM95.0515 41.088C95.6275 40.848 96.1675 40.5 96.6715 40.044C97.1995 39.588 97.6555 39.072 98.0395 38.496C98.4235 37.92 98.7235 37.308 98.9395 36.66C99.1795 36.012 99.2995 35.376 99.2995 34.752C98.8195 34.824 98.2915 35.052 97.7155 35.436C97.1395 35.796 96.5995 36.24 96.0955 36.768C95.5915 37.272 95.1715 37.8 94.8355 38.352C94.4995 38.904 94.3315 39.384 94.3315 39.792C94.3315 40.32 94.5715 40.752 95.0515 41.088ZM106.921 38.388C106.921 37.548 107.005 36.564 107.173 35.436C107.341 34.284 107.581 33.06 107.893 31.764C108.229 30.468 108.613 29.112 109.045 27.696C109.501 26.28 110.005 24.864 110.557 23.448C111.037 22.176 111.589 20.892 112.213 19.596C112.861 18.3 113.557 17.028 114.301 15.78C115.045 14.532 115.813 13.344 116.605 12.216C117.421 11.088 118.237 10.056 119.053 9.12C119.437 9.12 119.845 9.168 120.277 9.264C120.733 9.36 121.165 9.492 121.573 9.66C122.005 9.804 122.389 9.984 122.725 10.2C123.085 10.416 123.373 10.632 123.589 10.848C121.789 12.696 120.169 14.568 118.729 16.464C117.289 18.336 116.149 20.1 115.309 21.756C114.853 22.668 114.433 23.52 114.049 24.312C113.689 25.104 113.353 25.896 113.041 26.688C112.729 27.456 112.441 28.236 112.177 29.028C111.937 29.796 111.709 30.612 111.493 31.476C116.101 25.596 119.521 22.656 121.753 22.656C122.377 22.656 123.049 22.86 123.769 23.268C124.489 23.676 125.125 24.228 125.677 24.924C124.933 25.74 124.165 26.724 123.373 27.876C122.581 29.028 121.849 30.192 121.177 31.368C120.529 32.52 119.989 33.6 119.557 34.608C119.149 35.592 118.945 36.324 118.945 36.804C118.945 37.044 118.981 37.212 119.053 37.308C119.125 37.38 119.281 37.416 119.521 37.416C119.881 37.416 120.169 37.368 120.385 37.272C120.601 37.176 120.733 37.128 120.781 37.128C120.901 37.32 120.973 37.452 120.997 37.524C121.021 37.596 121.033 37.656 121.033 37.704C121.033 37.8 120.889 37.944 120.601 38.136C120.313 38.304 119.965 38.484 119.557 38.676C119.173 38.844 118.789 39 118.405 39.144C118.021 39.288 117.733 39.36 117.541 39.36C117.301 39.36 117.061 39.288 116.821 39.144C116.581 39.024 116.365 38.856 116.173 38.64C116.005 38.424 115.861 38.184 115.741 37.92C115.645 37.656 115.597 37.38 115.597 37.092C115.597 36.732 115.693 36.204 115.885 35.508C116.101 34.788 116.389 33.96 116.749 33.024C117.109 32.064 117.541 31.02 118.045 29.892C118.549 28.764 119.089 27.612 119.665 26.436C119.665 26.34 119.617 26.292 119.521 26.292C119.449 26.292 119.257 26.388 118.945 26.58C118.657 26.772 118.381 26.964 118.117 27.156C117.253 27.804 116.377 28.608 115.489 29.568C114.625 30.504 113.773 31.536 112.933 32.664C112.117 33.792 111.337 34.992 110.593 36.264C109.873 37.512 109.249 38.772 108.721 40.044C108.649 40.212 108.541 40.368 108.397 40.512C108.253 40.656 108.133 40.728 108.037 40.728C107.965 40.728 107.857 40.644 107.713 40.476C107.593 40.308 107.473 40.092 107.353 39.828C107.257 39.588 107.161 39.336 107.065 39.072C106.969 38.808 106.921 38.58 106.921 38.388ZM122.927 50.916C122.591 50.82 122.399 50.46 122.351 49.836C122.255 49.524 122.183 49.152 122.135 48.72C122.111 48.288 122.099 47.796 122.099 47.244C122.099 46.74 122.183 46.044 122.351 45.156C122.519 44.292 122.747 43.308 123.035 42.204C123.347 41.1 123.719 39.912 124.151 38.64C124.583 37.344 125.063 36.036 125.591 34.716C126.239 33.06 126.803 31.632 127.283 30.432C127.763 29.208 128.159 28.152 128.471 27.264C128.807 26.376 129.071 25.644 129.263 25.068C129.479 24.492 129.647 24 129.767 23.592C129.863 23.304 130.007 22.956 130.199 22.548C130.391 22.14 130.607 21.732 130.847 21.324C131.111 20.892 131.375 20.496 131.639 20.136C131.903 19.752 132.143 19.464 132.359 19.272C133.199 19.392 133.991 19.608 134.735 19.92C135.479 20.232 135.935 20.532 136.103 20.82C135.767 21.132 135.383 21.624 134.951 22.296C134.519 22.944 134.099 23.664 133.691 24.456C133.283 25.224 132.911 26.016 132.575 26.832C132.239 27.648 131.987 28.368 131.819 28.992C132.059 28.584 132.371 28.14 132.755 27.66C133.139 27.18 133.727 26.52 134.519 25.68C135.407 24.768 136.235 24.072 137.003 23.592C137.795 23.088 138.479 22.836 139.055 22.836C139.967 22.836 140.711 23.088 141.287 23.592C141.887 24.096 142.187 24.744 142.187 25.536C142.187 27.264 141.899 28.98 141.323 30.684C140.747 32.364 139.919 33.888 138.839 35.256C138.431 35.784 137.951 36.288 137.399 36.768C136.847 37.248 136.271 37.68 135.671 38.064C135.071 38.424 134.483 38.712 133.907 38.928C133.331 39.144 132.815 39.252 132.359 39.252C131.927 39.252 131.543 39.168 131.207 39C130.895 38.808 130.679 38.58 130.559 38.316C131.495 37.764 132.407 36.996 133.295 36.012C134.183 35.028 134.999 33.9 135.743 32.628C136.511 31.332 137.171 29.94 137.723 28.452C138.299 26.964 138.731 25.452 139.019 23.916C138.107 24.396 137.279 24.924 136.535 25.5C135.815 26.052 135.095 26.784 134.375 27.696C133.511 28.752 132.827 29.604 132.323 30.252C131.819 30.9 131.398 31.452 131.062 31.908C130.751 32.364 130.487 32.796 130.271 33.204C130.079 33.588 129.863 34.068 129.623 34.644C129.287 35.412 128.891 36.432 128.435 37.704C128.003 38.952 127.547 40.356 127.067 41.916C126.611 43.476 126.143 45.132 125.663 46.884C125.207 48.66 124.763 50.424 124.331 52.176C124.067 52.128 123.839 51.936 123.647 51.6C123.455 51.384 123.311 51.228 123.215 51.132C123.143 51.036 123.047 50.964 122.927 50.916ZM156.372 24.096C156.276 25.584 156.012 26.868 155.58 27.948C155.148 29.004 154.524 29.94 153.708 30.756C152.916 31.548 151.944 32.268 150.792 32.916C149.64 33.564 148.296 34.188 146.76 34.788C146.76 34.932 146.748 35.088 146.724 35.256C146.724 35.4 146.724 35.556 146.724 35.724C146.724 36.036 146.748 36.36 146.796 36.696C146.844 37.032 146.928 37.344 147.048 37.632C147.168 37.92 147.336 38.16 147.552 38.352C147.768 38.52 148.044 38.604 148.38 38.604C149.028 38.604 149.664 38.46 150.288 38.172C150.912 37.884 151.5 37.536 152.052 37.128C152.628 36.696 153.156 36.24 153.636 35.76C154.14 35.256 154.584 34.8 154.968 34.392C155.208 34.608 155.412 34.812 155.58 35.004C154.5 36.444 153.312 37.644 152.016 38.604C150.744 39.54 149.532 40.14 148.38 40.404C146.724 40.212 145.428 39.612 144.492 38.604C143.58 37.572 143.124 36.336 143.124 34.896C143.124 33.912 143.256 32.916 143.52 31.908C143.808 30.876 144.192 29.892 144.672 28.956C145.176 27.996 145.752 27.096 146.4 26.256C147.072 25.416 147.78 24.684 148.524 24.06C149.292 23.436 150.072 22.944 150.864 22.584C151.68 22.224 152.484 22.044 153.276 22.044C154.38 22.188 155.412 22.872 156.372 24.096ZM153.888 25.284C153.24 25.38 152.568 25.644 151.872 26.076C151.176 26.508 150.516 27.084 149.892 27.804C149.292 28.524 148.74 29.364 148.236 30.324C147.732 31.284 147.336 32.316 147.048 33.42C148.968 32.46 150.564 31.284 151.836 29.892C153.108 28.476 153.792 26.94 153.888 25.284ZM165.887 22.188C166.367 22.188 166.919 22.332 167.543 22.62C168.167 22.908 168.719 23.28 169.199 23.736C169.079 22.776 168.923 21.876 168.731 21.036C168.563 20.172 168.299 19.284 167.939 18.372C167.603 17.46 167.147 16.464 166.571 15.384C165.995 14.304 165.275 13.068 164.411 11.676C164.483 11.46 164.639 11.208 164.879 10.92C165.143 10.632 165.431 10.368 165.743 10.128C166.079 9.864 166.415 9.636 166.751 9.444C167.111 9.252 167.447 9.132 167.759 9.084C168.431 9.828 169.067 10.764 169.667 11.892C170.267 12.996 170.795 14.196 171.251 15.492C171.707 16.764 172.055 18.084 172.295 19.452C172.559 20.82 172.691 22.128 172.691 23.376C172.691 24.624 172.547 25.908 172.259 27.228C171.995 28.548 171.611 29.844 171.107 31.116C170.627 32.364 170.063 33.552 169.415 34.68C168.767 35.808 168.059 36.816 167.291 37.704C166.547 38.592 165.767 39.312 164.951 39.864C164.135 40.44 163.319 40.8 162.503 40.944C160.847 40.752 159.575 40.212 158.687 39.324C157.823 38.46 157.391 37.26 157.391 35.724C157.391 34.908 157.511 34.02 157.751 33.06C158.015 32.1 158.351 31.152 158.759 30.216C159.191 29.256 159.683 28.332 160.235 27.444C160.811 26.532 161.411 25.716 162.035 24.996C162.683 24.276 163.331 23.664 163.979 23.16C164.627 22.656 165.263 22.332 165.887 22.188ZM162.215 39.504C163.055 39.216 163.895 38.58 164.735 37.596C165.575 36.612 166.331 35.46 167.003 34.14C167.675 32.796 168.215 31.368 168.623 29.856C169.055 28.32 169.271 26.844 169.271 25.428C169.271 25.02 169.271 24.768 169.271 24.672C169.271 24.576 169.259 24.48 169.235 24.384C168.659 24.624 168.047 25.032 167.399 25.608C166.751 26.184 166.103 26.856 165.455 27.624C164.807 28.368 164.195 29.184 163.619 30.072C163.043 30.96 162.527 31.848 162.071 32.736C161.615 33.624 161.255 34.476 160.991 35.292C160.727 36.108 160.595 36.828 160.595 37.452C160.595 38.652 161.135 39.336 162.215 39.504ZM173.649 36.588C173.649 36.372 173.661 36.108 173.685 35.796C173.733 35.46 173.805 35.028 173.901 34.5C173.997 33.948 174.117 33.288 174.261 32.52C174.429 31.752 174.633 30.828 174.873 29.748C174.921 29.508 175.029 29.124 175.197 28.596C175.365 28.068 175.581 27.516 175.845 26.94C176.133 26.34 176.469 25.764 176.853 25.212C177.261 24.66 177.741 24.252 178.293 23.988C178.701 24.084 179.241 24.336 179.913 24.744C180.585 25.128 181.161 25.668 181.641 26.364C181.089 26.988 180.621 27.612 180.237 28.236C179.877 28.86 179.541 29.508 179.229 30.18C178.941 30.852 178.665 31.548 178.401 32.268C178.161 32.988 177.885 33.744 177.573 34.536C177.309 35.208 177.069 35.904 176.853 36.624C176.637 37.32 176.517 37.932 176.493 38.46C176.493 38.892 176.481 39.192 176.457 39.36C176.457 39.552 176.397 39.648 176.277 39.648C176.181 39.648 175.989 39.588 175.701 39.468C175.413 39.348 175.113 39.168 174.801 38.928C174.513 38.664 174.249 38.34 174.009 37.956C173.769 37.572 173.649 37.116 173.649 36.588ZM180.525 20.964C180.525 20.82 180.561 20.604 180.633 20.316C180.513 20.196 180.405 20.016 180.309 19.776C180.237 19.536 180.201 19.32 180.201 19.128C180.201 18.912 180.225 18.624 180.273 18.264C180.345 17.88 180.429 17.472 180.525 17.04C180.621 16.608 180.741 16.164 180.885 15.708C181.029 15.228 181.173 14.796 181.317 14.412C181.605 14.412 181.953 14.496 182.361 14.664C182.793 14.808 183.225 15.012 183.657 15.276C184.089 15.516 184.485 15.792 184.845 16.104C185.205 16.392 185.481 16.668 185.673 16.932C185.409 17.196 185.061 17.568 184.629 18.048C184.197 18.504 183.777 18.996 183.369 19.524C182.961 20.028 182.589 20.508 182.253 20.964C181.917 21.42 181.701 21.744 181.605 21.936C181.317 21.888 181.065 21.768 180.849 21.576C180.633 21.36 180.525 21.156 180.525 20.964ZM194.541 24.456C194.781 24.456 195.057 24.504 195.369 24.6C195.705 24.672 196.005 24.78 196.269 24.924C196.533 25.044 196.749 25.176 196.917 25.32C197.109 25.464 197.205 25.596 197.205 25.716C196.725 26.724 196.281 27.744 195.873 28.776C195.465 29.784 195.117 30.756 194.829 31.692C194.541 32.628 194.313 33.504 194.145 34.32C194.001 35.136 193.929 35.844 193.929 36.444C193.929 37.116 194.001 37.68 194.145 38.136C194.289 38.568 194.529 38.88 194.865 39.072C194.577 39.264 194.205 39.42 193.749 39.54C193.293 39.66 192.885 39.72 192.525 39.72C191.229 39.72 190.581 38.832 190.581 37.056C190.581 35.688 191.037 33.816 191.949 31.44C191.469 32.544 190.917 33.588 190.293 34.572C189.669 35.532 189.033 36.384 188.385 37.128C187.737 37.872 187.077 38.484 186.405 38.964C185.757 39.42 185.157 39.696 184.605 39.792C183.717 39.744 182.997 39.324 182.445 38.532C181.893 37.716 181.617 36.684 181.617 35.436C181.617 34.092 181.905 32.676 182.481 31.188C183.057 29.7 183.789 28.32 184.677 27.048C185.589 25.776 186.573 24.72 187.629 23.88C188.685 23.016 189.705 22.56 190.689 22.512C190.929 22.584 191.193 22.728 191.481 22.944C191.793 23.16 192.081 23.412 192.345 23.7C192.633 23.988 192.873 24.288 193.065 24.6C193.257 24.888 193.365 25.14 193.389 25.356C192.429 25.5 191.433 25.968 190.401 26.76C189.393 27.552 188.469 28.512 187.629 29.64C186.813 30.744 186.141 31.932 185.613 33.204C185.085 34.476 184.821 35.664 184.821 36.768C184.821 37.224 184.989 37.512 185.325 37.632C186.021 37.488 186.825 36.9 187.737 35.868C188.649 34.812 189.753 33.192 191.049 31.008C191.289 30.576 191.553 30.096 191.841 29.568C192.153 29.04 192.465 28.488 192.777 27.912C193.089 27.336 193.389 26.76 193.677 26.184C193.989 25.584 194.277 25.008 194.541 24.456Z" fill="black" fill-opacity="0.2"/>
<path d="M0.0536963 41.9243C0.981811 39.9805 2.5305 38.3193 4.39891 37.1008C5.66166 36.3221 7.03989 35.7256 8.3266 34.9834C9.087 34.5488 9.76335 34.0035 10.5261 33.5783C9.61331 31.1678 10.0839 28.5733 10.6011 26.1365C11.2331 23.1232 12.442 20.1908 14.3046 17.6467C15.2323 16.422 15.8018 14.9886 16.0964 13.521C16.3073 12.3867 16.3257 11.1745 16.9471 10.1463C17.4027 9.37969 18.3218 9.03706 18.9286 8.39975C19.5901 7.68307 19.5347 6.65441 20.0739 5.87683C20.7558 4.87214 21.9282 4.24425 22.5295 3.18455C23.0083 2.3885 22.883 1.42389 23.2758 0.601512C23.6815 -0.0393369 24.601 -0.0145831 25.2994 0.008992C27.7027 0.254959 29.5652 1.81641 31.6504 2.78849C32.9073 3.43838 34.2694 3.89652 35.663 4.21557C36.9827 3.64073 38.4029 3.26982 39.8401 3.06118C40.9689 2.88515 41.9869 2.38497 43.0474 2.00934C44.5792 1.46397 46.3015 1.3347 47.8875 1.75237C48.4488 1.93154 49.0214 1.73233 49.5808 1.66357C49.9928 1.60109 50.4232 1.60738 50.8152 1.4624C51.5587 1.14806 52.0226 0.424699 52.8231 0.211345C53.545 0.0431759 54.3549 0.155157 54.9534 0.580687C55.5583 0.976356 55.9114 1.60424 56.1879 2.22466C56.5646 3.09693 56.9098 4.01165 56.878 4.96526C56.9197 6.04028 56.4067 7.09212 56.6769 8.164C57.6384 8.5691 58.5127 9.12979 59.323 9.75493C59.7335 10.0693 60.0598 10.5384 59.9907 11.0516C59.9322 11.5702 59.5002 11.9553 59.0681 12.2448C58.1471 12.8735 57.0065 13.088 55.9479 13.4338C55.2194 13.6739 54.4055 13.7344 53.7673 14.1725C52.8639 14.7847 52.0941 15.5607 51.4629 16.4161C48.7178 19.7751 45.0348 22.4195 40.9402 24.208C41.0156 25.3408 40.4661 26.3769 40.0306 27.402C39.2301 28.9604 38.0274 30.5387 36.1755 31.0809C35.5927 31.288 34.8138 30.9858 34.7836 30.3532C34.7168 29.4527 34.8841 28.5521 34.976 27.6578C33.4639 29.1046 31.5864 30.1411 29.8896 31.3795C28.687 32.2927 27.2385 32.8491 25.9588 33.6514C25.4246 33.9756 25.7479 34.6337 25.9906 35.0333C27.1764 36.8207 29.1159 38.0195 31.0401 39.0411C31.6178 39.3247 32.2863 39.6116 32.9493 39.4992C34.1202 38.9385 35.0196 38.0018 35.8385 37.0631C36.6877 36.0069 37.8417 35.1343 39.1983 34.7103C40.4524 34.3304 41.7906 34.2695 43.0533 33.919C43.551 33.8011 44.025 33.6027 44.5325 33.5217C44.9123 33.5685 44.6444 33.919 44.5089 34.0777C43.8691 34.84 43.6931 35.8168 43.3306 36.7C42.8919 37.8065 42.6307 38.986 42.681 40.1683C42.7246 41.2469 43.1869 42.2508 43.6087 43.2394C43.7929 43.6822 44.2183 43.9781 44.4563 44.3895C44.3608 44.8865 43.6739 44.6028 43.3039 44.7824C42.505 45.0099 42.4229 45.8684 42.269 46.5089C41.8554 48.5575 42.8133 50.6144 44.1849 52.1771C44.3813 52.3735 44.8919 52.6093 44.5148 52.8906C43.9119 53.1523 43.2069 53.1087 42.5635 53.0277C40.9021 52.6348 39.4135 51.8097 37.9732 50.9696C36.6901 50.2015 35.9198 48.9222 34.7525 48.031C33.9018 47.3937 33.0291 46.7175 31.9505 46.4558C31.381 46.4464 30.8115 46.532 30.2408 46.4994C30.2926 46.8782 30.2942 47.2691 30.0915 47.6133C29.76 48.1277 30.1701 48.7556 29.8472 49.2715C29.5244 49.7874 28.8457 50.0439 28.6045 50.6176C28.6128 51.071 28.8072 51.7052 28.2392 51.948C26.9062 52.3767 25.4977 51.9185 24.2668 51.4152C22.7927 50.8698 21.5017 49.9708 20.4129 48.9068C19.6776 48.1791 18.9157 47.442 18.442 46.5336C17.7986 45.3435 17.9059 43.9549 17.3399 42.7364C16.2998 42.1384 15.2393 41.4921 14.519 40.5491C14.1203 40.0473 13.9428 39.4367 13.6412 38.8866C11.9982 41.0241 9.11764 42.0323 6.36275 42.03C4.8502 42.072 3.32429 41.7993 1.82548 42.0693C1.31134 42.1502 0.867515 42.4622 0.346702 42.5074C0.0391638 42.4999 -0.078667 42.1479 0.0536963 41.9243ZM36.3515 44.2692C37.2843 44.3785 38.2038 44.1246 39.0828 43.8614C40.1881 43.5184 41.3672 43.5745 42.5164 43.5824C41.8263 43.1895 40.972 43.2924 40.1991 43.2582C39.0887 43.1895 38.1174 43.7958 37.0302 43.8673C36.3872 43.9549 35.7639 43.7553 35.1449 43.6315C35.3146 44.103 35.8892 44.206 36.3515 44.2696V44.2692ZM39.1834 41.7153C38.1229 42.4976 36.6512 42.6583 35.3515 42.4351C35.4403 42.8622 35.9544 42.9211 36.3334 42.9337C37.6916 42.9541 39.137 42.5691 40.0616 41.5978C40.5875 41.0335 41.2674 40.6394 41.8919 40.1876C40.813 40.3526 39.952 41.0414 39.1834 41.716V41.7153ZM41.6087 38.7955C41.1767 38.6847 40.7894 38.9684 40.4163 39.1271C39.3951 39.5868 38.6743 40.4673 37.6241 40.885C37.0447 41.1746 36.3916 41.2571 35.7517 41.3565C35.7148 41.4111 35.6414 41.5231 35.6044 41.5777C36.7902 41.8441 37.9611 41.294 38.9171 40.6866C39.5848 40.2862 40.0376 39.6536 40.7093 39.2638C41.0007 39.0953 41.3106 38.9534 41.6087 38.7963V38.7955ZM36.9175 39.6304C37.7266 39.2132 38.5086 38.733 39.1563 38.1098C39.8295 37.4725 40.7489 37.1641 41.5176 36.6513C40.5294 36.8226 39.6252 37.2761 38.7827 37.7719C37.8794 38.5086 36.9489 39.2799 35.7977 39.6662C35.5349 39.7691 35.2132 39.8285 35.0793 40.0984C35.7282 40.1235 36.3531 39.9102 36.9175 39.6312V39.6304ZM37.3813 37.8713C38.7277 36.7012 40.3742 35.6792 42.265 35.57C41.7996 35.3315 41.2552 35.4765 40.7725 35.5779C39.8346 35.8164 38.8833 36.1154 38.1229 36.6997C37.2568 37.2839 36.5872 38.0988 35.6441 38.5857C35.366 38.7354 35.0781 38.8819 34.8888 39.1326C35.8841 39.1141 36.6846 38.4642 37.3813 37.8721V37.8713ZM8.77436 37.2879C7.73588 37.6214 6.66087 37.8643 5.66245 38.3039C4.39301 38.854 3.23592 39.6096 2.20607 40.4882C4.22098 39.2682 6.43306 38.3381 8.73783 37.7087C9.9837 37.3672 11.2197 36.9531 12.305 36.2737C12.174 36.1192 12.0418 35.9665 11.9083 35.8156C11.067 36.6199 9.88315 36.9437 8.77436 37.2879ZM16.4569 15.1006C17.5304 13.9521 18.6458 12.8334 19.8787 11.8287C18.9172 11.8335 17.9275 11.868 17.0398 12.257C16.9255 13.2169 16.7849 14.18 16.4569 15.1006ZM18.0865 9.88105C17.4801 10.1585 17.363 10.883 17.1671 11.4264C18.9055 10.6771 21.0374 11.0963 22.6203 10.0009C21.1006 10.1691 19.5952 9.67359 18.0861 9.88105H18.0865ZM19.2354 9.03196C20.473 8.99738 21.7098 9.052 22.9435 9.07557C23.6536 9.08775 24.3889 8.99306 24.9883 8.61586C23.3438 8.5082 21.7829 7.89446 20.1281 7.8866C19.9184 8.32274 19.6054 8.70308 19.235 9.03196H19.2354ZM20.6886 6.28153C20.5666 6.56024 20.4455 6.83961 20.3253 7.11963C22.3131 6.92788 24.1352 8.0422 26.1218 7.79741C26.5146 7.78208 26.8653 7.61195 27.1752 7.40017C24.9612 7.27129 22.9396 6.06228 20.6871 6.28035L20.6886 6.28153ZM22.9812 3.99711C22.667 4.48197 22.094 4.81516 21.8257 5.29806C22.7369 5.42143 23.6128 5.68312 24.4686 5.99313C25.9612 6.54793 27.6407 6.72396 29.2051 6.32829C26.9942 5.9063 24.9946 4.89964 22.9797 3.99593L22.9812 3.99711ZM23.4875 3.33976C24.7051 3.90988 25.9513 4.43796 27.2275 4.88667C28.6159 5.45405 30.1803 5.60218 31.6709 5.3621C30.1214 4.946 28.7298 4.16881 27.2326 3.62934C26.0264 3.19045 24.9211 2.55628 23.7487 2.05491C23.6933 2.48634 23.4706 2.90401 23.4875 3.33976ZM30.1296 2.93819C28.4647 1.99991 26.8119 0.774003 24.7836 0.698956C24.5256 0.74257 23.9883 0.659664 23.9749 0.999931C24.6764 1.662 25.6112 2.04666 26.5055 2.43329C28.6265 3.30282 30.8079 4.236 33.1642 4.29848C32.0805 4.00222 31.1178 3.43524 30.1296 2.93819ZM47.1554 2.73231C46.0317 2.37396 44.8259 2.72602 43.7976 3.17945C43.2784 3.43838 42.6939 3.76882 42.5282 4.33423C42.4441 4.78923 42.5675 5.26427 42.7556 5.68351C43.0423 5.84068 43.399 5.78174 43.7088 5.74127C45.2245 5.37821 46.7501 4.74562 47.7151 3.55193C47.7999 3.1873 47.525 2.83682 47.1554 2.73231V2.73231ZM55.3973 2.60146C55.3835 3.98218 55.367 5.40454 55.836 6.72907C56.1891 5.35464 56.0685 3.87766 55.3973 2.60146V2.60146ZM39.346 27.0802C39.7128 26.259 40.1079 25.4331 40.2301 24.5436C39.9591 24.6713 39.6543 24.7585 39.4261 24.9549C38.7765 26.6689 38.2623 28.5305 36.8923 29.8924C38.02 29.2374 38.7729 28.1698 39.346 27.0795V27.0802ZM35.683 30.3686C37.1284 28.8507 38.4752 27.1525 38.9371 25.1302C38.6174 25.3188 38.0981 25.4029 38.0565 25.8264C37.6826 27.4142 36.8959 28.9521 35.5557 30.0307C35.5876 30.1128 35.6512 30.2829 35.683 30.3686ZM37.5789 25.7828C37.0817 25.8811 36.9897 26.3722 36.7784 26.7258C36.5322 27.2417 36.1001 27.6484 35.7985 28.1313C35.6748 28.4586 35.6932 28.8138 35.663 29.1568C36.5247 28.1745 37.1767 27.0263 37.5789 25.7828V25.7828ZM28.8382 48.4907C28.8885 48.2275 28.9336 47.9638 28.969 47.7006C26.7934 47.0915 24.7636 46.1317 22.702 45.259C21.8579 44.9116 21.0771 44.446 20.2483 44.0688C20.4613 44.2508 20.6952 44.4067 20.9451 44.5333C22.5696 45.4197 24.1356 46.4075 25.8622 47.1179C26.8335 47.6149 27.8135 48.0951 28.8382 48.4907ZM29.4344 46.9823C29.3166 46.7859 29.3842 46.4043 29.0778 46.3497C27.9659 46.1427 26.8586 45.9152 25.7601 45.655C26.9439 46.1815 28.1383 46.7426 29.4344 46.9823V46.9823ZM28.1685 49.1249C26.8904 48.5601 25.6477 47.9185 24.447 47.2035C23.0119 46.3686 21.4726 45.6877 20.0975 44.7619C20.3101 45.0099 20.547 45.236 20.8045 45.437C22.4408 46.6428 24.112 47.8239 25.9478 48.7587C26.522 49.053 27.1469 49.251 27.7094 49.5642C27.8665 49.4193 28.0195 49.2729 28.1685 49.1249V49.1249ZM20.0739 45.6672C21.2079 46.9576 22.6431 47.9905 24.1171 48.9222C25.1151 49.572 26.2557 49.9881 27.3445 50.4852C27.3343 50.4133 27.3158 50.2734 27.3076 50.2031C26.125 49.5143 24.8622 48.941 23.7334 48.1729C22.5111 47.3375 21.2487 46.5572 20.0739 45.6656V45.6672ZM21.8021 48.732C22.8905 49.816 24.3025 50.5814 25.7899 51.0895C26.2938 51.2655 26.8418 51.2655 27.3708 51.2518C27.3374 51.1504 27.2671 50.9461 27.2333 50.8451C26.9254 50.7665 26.6155 50.6879 26.3158 50.585C23.8807 49.5689 21.5633 48.2397 19.7456 46.4043C20.2582 47.2955 21.0555 48.0063 21.8025 48.7292L21.8021 48.732ZM14.2217 30.3104C14.0693 31.5116 13.9016 32.7221 14.0057 33.9363C14.076 34.6624 13.999 35.418 14.2751 36.1142C14.5108 36.7672 14.9668 37.3279 15.2012 37.9825C15.543 38.8815 16.0037 39.7978 16.8324 40.3958C18.8324 41.8559 21.2173 42.7612 23.6207 43.4716C25.8229 44.0559 28.0118 44.7478 30.2946 44.9985C31.2372 45.1093 32.3912 45.0158 32.9423 44.1899C33.4061 43.5089 33.9242 42.7675 33.9474 41.94C33.4784 41.3011 32.5707 41.1408 31.8264 40.9007C30.1838 40.4709 28.6728 39.709 27.2703 38.8163C25.9305 38.146 24.7263 37.2376 23.7746 36.1315C23.409 35.6816 22.9816 35.2447 22.8198 34.6875C22.6725 34.242 22.711 33.7728 22.7346 33.3162C22.2115 34.0344 21.5784 34.6654 20.8587 35.1861C20.8756 34.0424 21.4046 33.0094 22.0244 32.0526C20.1686 32.4282 18.3147 33.0349 16.387 32.8601C16.8878 32.6011 17.4538 32.497 17.9848 32.31C20.852 31.4456 23.6458 30.303 26.1151 28.6778C24.7585 28.9847 23.3469 29.3415 21.9447 29.0971C21.374 29.0051 20.7664 28.9973 20.2452 28.7325C20.8061 28.6452 21.3756 28.6562 21.9416 28.6248C23.2412 28.5097 24.504 28.1839 25.7349 27.793C28.0212 26.7569 30.0947 25.3746 32.2918 24.1923C30.731 24.2418 29.1799 24.4151 27.6242 24.5117C26.7129 24.5192 25.8288 24.7498 24.9243 24.8139C25.3818 24.3962 26.0464 24.3337 26.6132 24.1066C27.7742 23.6591 29.0483 23.6155 30.2376 23.2634C31.0165 23.0391 31.837 23.019 32.6292 22.8631C35.029 22.4391 37.4603 22.0654 39.7537 21.2521C40.657 20.9684 41.5443 20.6368 42.4182 20.2781C45.0981 19.2824 47.2583 17.4455 49.3922 15.6974C50.382 14.8825 51.2748 13.9756 52.1907 13.0924C51.8408 13.0205 51.4892 12.9674 51.1342 12.9238C50.4908 13.8853 49.4452 14.5084 48.4912 15.1725C46.8365 16.3363 44.7933 17.0746 42.703 17.0608C40.5156 17.1465 38.2482 16.3846 36.7894 14.8326C35.3362 13.3682 34.8299 11.2366 35.1999 9.30464C35.302 8.69208 35.7643 8.2249 36.2097 7.79937C36.8063 7.22453 37.4666 6.53575 38.4006 6.54989C37.9501 7.07169 37.3456 7.47364 37.007 8.08227C35.5502 10.371 36.6319 13.5831 39.0404 14.919C40.1959 15.5752 41.5628 15.8228 42.899 15.8852C42.276 15.4302 41.8287 14.7556 41.8385 14.0016C41.8267 13.0837 41.9956 11.9619 42.9272 11.4476C42.7862 12.3061 42.4127 13.2114 42.8133 14.0574C43.3023 14.8161 44.285 15.31 45.2399 15.1949C46.6931 15.077 47.9598 14.3348 49.1738 13.6428C49.7237 13.3375 50.1452 12.8873 50.5741 12.4558C50.4039 12.2404 50.2599 12.0055 50.1452 11.7561C51.7162 12.0912 53.2755 12.6971 54.9236 12.4979C56.4644 12.4433 58.305 12.1128 59.1188 10.7451C58.2814 11.3698 57.1549 11.4743 56.1212 11.3899C54.9236 11.2048 53.761 10.804 52.7598 10.1577C52.2272 10.6001 51.6994 11.1034 50.981 11.2732C51.2759 10.6445 51.9291 10.2355 52.1935 9.59029C52.6675 8.57617 52.5957 7.44653 52.589 6.36837C52.5587 4.84149 52.5823 3.22502 53.4028 1.85296C53.5752 1.52565 53.902 1.31073 54.2068 1.09895C53.6569 0.835298 52.902 0.799543 52.4649 1.27026C52.0617 1.69763 51.764 2.21341 51.5956 2.77639C51.4273 3.33938 51.3928 3.93395 51.4951 4.51262C51.6915 5.75266 52.1349 7.11295 51.4633 8.2972C51.1283 8.80367 50.8789 9.46417 50.2324 9.68852C50.4704 8.95612 50.8439 8.2473 50.8706 7.46972C51.001 6.20295 50.5254 4.96919 50.5957 3.70556C50.6192 3.1429 50.8137 2.60539 51.001 2.07574C50.2273 2.46866 49.3514 2.51345 48.4908 2.54331C48.906 3.14762 48.8993 3.95153 48.4185 4.52362C47.479 5.5955 46.1377 6.33575 44.6872 6.62848C45.2666 6.66777 45.8655 6.73732 46.4339 6.58486C46.8915 6.45717 47.3302 6.27485 47.7992 6.18291C47.571 6.81708 46.7858 7.02258 46.1888 7.26422C44.6829 7.64417 42.9265 7.64142 41.6016 6.78132C40.7572 6.28271 40.1009 5.55817 39.2584 5.05956C38.7525 4.88039 38.1979 5.07331 37.6842 5.13814C35.8586 5.53106 34.0314 6.02299 32.3967 6.89566C29.8649 8.21194 27.3225 9.51957 24.8807 10.9777C20.7087 13.6142 16.9825 16.9764 14.4754 21.0776C13.4687 22.7055 12.6816 24.4618 12.261 26.3034C13.2594 23.9286 14.4031 21.5385 16.2338 19.6066C17.5233 18.5252 18.5967 17.2337 19.9467 16.2102C19.2735 17.2538 18.2703 18.0734 17.5284 19.0753C16.3442 20.7598 15.0932 22.4206 14.2523 24.287C12.8383 27.0901 12.149 30.2424 12.4754 33.3335C12.9982 32.2978 13.6329 31.3128 14.2225 30.3077L14.2217 30.3104ZM11.433 39.7306C9.62628 40.318 7.5878 40.2854 5.92953 41.2528C7.85803 41.2736 9.89768 40.8701 11.4322 39.7279L11.433 39.7306ZM5.1216 41.25C6.26063 40.1051 7.98882 39.7699 9.55636 39.4289C10.5159 39.2418 11.4856 38.9534 12.2244 38.3287C9.64356 39.72 6.39614 39.555 3.95272 41.23C4.34274 41.2438 4.73119 41.25 5.1216 41.25ZM3.09687 41.1895C4.55876 39.7621 6.73274 39.3165 8.69895 38.7994C10.2952 38.4815 11.8627 37.9126 13.0885 36.8828C12.8843 36.713 12.6863 36.7083 12.4974 36.8659C10.7673 38.113 8.51788 38.3303 6.54853 39.0984C4.98099 39.7271 3.41502 40.3951 2.03483 41.3404C2.38989 41.2999 2.75831 41.3015 3.09687 41.1895V41.1895Z" fill="#033059"/>
<path d="M0.0536963 41.9243C0.981811 39.9805 2.5305 38.3193 4.39891 37.1008C5.66166 36.3221 7.03989 35.7256 8.3266 34.9834C9.087 34.5488 9.76335 34.0035 10.5261 33.5783C9.61331 31.1678 10.0839 28.5733 10.6011 26.1365C11.2331 23.1232 12.442 20.1908 14.3046 17.6467C15.2323 16.422 15.8018 14.9886 16.0964 13.521C16.3073 12.3867 16.3257 11.1745 16.9471 10.1463C17.4027 9.37969 18.3218 9.03706 18.9286 8.39975C19.5901 7.68307 19.5347 6.65441 20.0739 5.87683C20.7558 4.87214 21.9282 4.24425 22.5295 3.18455C23.0083 2.3885 22.883 1.42389 23.2758 0.601512C23.6815 -0.0393369 24.601 -0.0145831 25.2994 0.008992C27.7027 0.254959 29.5652 1.81641 31.6504 2.78849C32.9073 3.43838 34.2694 3.89652 35.663 4.21557C36.9827 3.64073 38.4029 3.26982 39.8401 3.06118C40.9689 2.88515 41.9869 2.38497 43.0474 2.00934C44.5792 1.46397 46.3015 1.3347 47.8875 1.75237C48.4488 1.93154 49.0214 1.73233 49.5808 1.66357C49.9928 1.60109 50.4232 1.60738 50.8152 1.4624C51.5587 1.14806 52.0226 0.424699 52.8231 0.211345C53.545 0.0431759 54.3549 0.155157 54.9534 0.580687C55.5583 0.976356 55.9114 1.60424 56.1879 2.22466C56.5646 3.09693 56.9098 4.01165 56.878 4.96526C56.9197 6.04028 56.4067 7.09212 56.6769 8.164C57.6384 8.5691 58.5127 9.12979 59.323 9.75493C59.7335 10.0693 60.0598 10.5384 59.9907 11.0516C59.9322 11.5702 59.5002 11.9553 59.0681 12.2448C58.1471 12.8735 57.0065 13.088 55.9479 13.4338C55.2194 13.6739 54.4055 13.7344 53.7673 14.1725C52.8639 14.7847 52.0941 15.5607 51.4629 16.4161C48.7178 19.7751 45.0348 22.4195 40.9402 24.208C41.0156 25.3408 40.4661 26.3769 40.0306 27.402C39.2301 28.9604 38.0274 30.5387 36.1755 31.0809C35.5927 31.288 34.8138 30.9858 34.7836 30.3532C34.7168 29.4527 34.8841 28.5521 34.976 27.6578C33.4639 29.1046 31.5864 30.1411 29.8896 31.3795C28.687 32.2927 27.2385 32.8491 25.9588 33.6514C25.4246 33.9756 25.7479 34.6337 25.9906 35.0333C27.1764 36.8207 29.1159 38.0195 31.0401 39.0411C31.6178 39.3247 32.2863 39.6116 32.9493 39.4992C34.1202 38.9385 35.0196 38.0018 35.8385 37.0631C36.6877 36.0069 37.8417 35.1343 39.1983 34.7103C40.4524 34.3304 41.7906 34.2695 43.0533 33.919C43.551 33.8011 44.025 33.6027 44.5325 33.5217C44.9123 33.5685 44.6444 33.919 44.5089 34.0777C43.8691 34.84 43.6931 35.8168 43.3306 36.7C42.8919 37.8065 42.6307 38.986 42.681 40.1683C42.7246 41.2469 43.1869 42.2508 43.6087 43.2394C43.7929 43.6822 44.2183 43.9781 44.4563 44.3895C44.3608 44.8865 43.6739 44.6028 43.3039 44.7824C42.505 45.0099 42.4229 45.8684 42.269 46.5089C41.8554 48.5575 42.8133 50.6144 44.1849 52.1771C44.3813 52.3735 44.8919 52.6093 44.5148 52.8906C43.9119 53.1523 43.2069 53.1087 42.5635 53.0277C40.9021 52.6348 39.4135 51.8097 37.9732 50.9696C36.6901 50.2015 35.9198 48.9222 34.7525 48.031C33.9018 47.3937 33.0291 46.7175 31.9505 46.4558C31.381 46.4464 30.8115 46.532 30.2408 46.4994C30.2926 46.8782 30.2942 47.2691 30.0915 47.6133C29.76 48.1277 30.1701 48.7556 29.8472 49.2715C29.5244 49.7874 28.8457 50.0439 28.6045 50.6176C28.6128 51.071 28.8072 51.7052 28.2392 51.948C26.9062 52.3767 25.4977 51.9185 24.2668 51.4152C22.7927 50.8698 21.5017 49.9708 20.4129 48.9068C19.6776 48.1791 18.9157 47.442 18.442 46.5336C17.7986 45.3435 17.9059 43.9549 17.3399 42.7364C16.2998 42.1384 15.2393 41.4921 14.519 40.5491C14.1203 40.0473 13.9428 39.4367 13.6412 38.8866C11.9982 41.0241 9.11764 42.0323 6.36275 42.03C4.8502 42.072 3.32429 41.7993 1.82548 42.0693C1.31134 42.1502 0.867515 42.4622 0.346702 42.5074C0.0391638 42.4999 -0.078667 42.1479 0.0536963 41.9243ZM36.3515 44.2692C37.2843 44.3785 38.2038 44.1246 39.0828 43.8614C40.1881 43.5184 41.3672 43.5745 42.5164 43.5824C41.8263 43.1895 40.972 43.2924 40.1991 43.2582C39.0887 43.1895 38.1174 43.7958 37.0302 43.8673C36.3872 43.9549 35.7639 43.7553 35.1449 43.6315C35.3146 44.103 35.8892 44.206 36.3515 44.2696V44.2692ZM39.1834 41.7153C38.1229 42.4976 36.6512 42.6583 35.3515 42.4351C35.4403 42.8622 35.9544 42.9211 36.3334 42.9337C37.6916 42.9541 39.137 42.5691 40.0616 41.5978C40.5875 41.0335 41.2674 40.6394 41.8919 40.1876C40.813 40.3526 39.952 41.0414 39.1834 41.716V41.7153ZM41.6087 38.7955C41.1767 38.6847 40.7894 38.9684 40.4163 39.1271C39.3951 39.5868 38.6743 40.4673 37.6241 40.885C37.0447 41.1746 36.3916 41.2571 35.7517 41.3565C35.7148 41.4111 35.6414 41.5231 35.6044 41.5777C36.7902 41.8441 37.9611 41.294 38.9171 40.6866C39.5848 40.2862 40.0376 39.6536 40.7093 39.2638C41.0007 39.0953 41.3106 38.9534 41.6087 38.7963V38.7955ZM36.9175 39.6304C37.7266 39.2132 38.5086 38.733 39.1563 38.1098C39.8295 37.4725 40.7489 37.1641 41.5176 36.6513C40.5294 36.8226 39.6252 37.2761 38.7827 37.7719C37.8794 38.5086 36.9489 39.2799 35.7977 39.6662C35.5349 39.7691 35.2132 39.8285 35.0793 40.0984C35.7282 40.1235 36.3531 39.9102 36.9175 39.6312V39.6304ZM37.3813 37.8713C38.7277 36.7012 40.3742 35.6792 42.265 35.57C41.7996 35.3315 41.2552 35.4765 40.7725 35.5779C39.8346 35.8164 38.8833 36.1154 38.1229 36.6997C37.2568 37.2839 36.5872 38.0988 35.6441 38.5857C35.366 38.7354 35.0781 38.8819 34.8888 39.1326C35.8841 39.1141 36.6846 38.4642 37.3813 37.8721V37.8713ZM8.77436 37.2879C7.73588 37.6214 6.66087 37.8643 5.66245 38.3039C4.39301 38.854 3.23592 39.6096 2.20607 40.4882C4.22098 39.2682 6.43306 38.3381 8.73783 37.7087C9.9837 37.3672 11.2197 36.9531 12.305 36.2737C12.174 36.1192 12.0418 35.9665 11.9083 35.8156C11.067 36.6199 9.88315 36.9437 8.77436 37.2879ZM16.4569 15.1006C17.5304 13.9521 18.6458 12.8334 19.8787 11.8287C18.9172 11.8335 17.9275 11.868 17.0398 12.257C16.9255 13.2169 16.7849 14.18 16.4569 15.1006ZM18.0865 9.88105C17.4801 10.1585 17.363 10.883 17.1671 11.4264C18.9055 10.6771 21.0374 11.0963 22.6203 10.0009C21.1006 10.1691 19.5952 9.67359 18.0861 9.88105H18.0865ZM19.2354 9.03196C20.473 8.99738 21.7098 9.052 22.9435 9.07557C23.6536 9.08775 24.3889 8.99306 24.9883 8.61586C23.3438 8.5082 21.7829 7.89446 20.1281 7.8866C19.9184 8.32274 19.6054 8.70308 19.235 9.03196H19.2354ZM20.6886 6.28153C20.5666 6.56024 20.4455 6.83961 20.3253 7.11963C22.3131 6.92788 24.1352 8.0422 26.1218 7.79741C26.5146 7.78208 26.8653 7.61195 27.1752 7.40017C24.9612 7.27129 22.9396 6.06228 20.6871 6.28035L20.6886 6.28153ZM22.9812 3.99711C22.667 4.48197 22.094 4.81516 21.8257 5.29806C22.7369 5.42143 23.6128 5.68312 24.4686 5.99313C25.9612 6.54793 27.6407 6.72396 29.2051 6.32829C26.9942 5.9063 24.9946 4.89964 22.9797 3.99593L22.9812 3.99711ZM23.4875 3.33976C24.7051 3.90988 25.9513 4.43796 27.2275 4.88667C28.6159 5.45405 30.1803 5.60218 31.6709 5.3621C30.1214 4.946 28.7298 4.16881 27.2326 3.62934C26.0264 3.19045 24.9211 2.55628 23.7487 2.05491C23.6933 2.48634 23.4706 2.90401 23.4875 3.33976ZM30.1296 2.93819C28.4647 1.99991 26.8119 0.774003 24.7836 0.698956C24.5256 0.74257 23.9883 0.659664 23.9749 0.999931C24.6764 1.662 25.6112 2.04666 26.5055 2.43329C28.6265 3.30282 30.8079 4.236 33.1642 4.29848C32.0805 4.00222 31.1178 3.43524 30.1296 2.93819ZM47.1554 2.73231C46.0317 2.37396 44.8259 2.72602 43.7976 3.17945C43.2784 3.43838 42.6939 3.76882 42.5282 4.33423C42.4441 4.78923 42.5675 5.26427 42.7556 5.68351C43.0423 5.84068 43.399 5.78174 43.7088 5.74127C45.2245 5.37821 46.7501 4.74562 47.7151 3.55193C47.7999 3.1873 47.525 2.83682 47.1554 2.73231V2.73231ZM55.3973 2.60146C55.3835 3.98218 55.367 5.40454 55.836 6.72907C56.1891 5.35464 56.0685 3.87766 55.3973 2.60146V2.60146ZM39.346 27.0802C39.7128 26.259 40.1079 25.4331 40.2301 24.5436C39.9591 24.6713 39.6543 24.7585 39.4261 24.9549C38.7765 26.6689 38.2623 28.5305 36.8923 29.8924C38.02 29.2374 38.7729 28.1698 39.346 27.0795V27.0802ZM35.683 30.3686C37.1284 28.8507 38.4752 27.1525 38.9371 25.1302C38.6174 25.3188 38.0981 25.4029 38.0565 25.8264C37.6826 27.4142 36.8959 28.9521 35.5557 30.0307C35.5876 30.1128 35.6512 30.2829 35.683 30.3686ZM37.5789 25.7828C37.0817 25.8811 36.9897 26.3722 36.7784 26.7258C36.5322 27.2417 36.1001 27.6484 35.7985 28.1313C35.6748 28.4586 35.6932 28.8138 35.663 29.1568C36.5247 28.1745 37.1767 27.0263 37.5789 25.7828V25.7828ZM28.8382 48.4907C28.8885 48.2275 28.9336 47.9638 28.969 47.7006C26.7934 47.0915 24.7636 46.1317 22.702 45.259C21.8579 44.9116 21.0771 44.446 20.2483 44.0688C20.4613 44.2508 20.6952 44.4067 20.9451 44.5333C22.5696 45.4197 24.1356 46.4075 25.8622 47.1179C26.8335 47.6149 27.8135 48.0951 28.8382 48.4907ZM29.4344 46.9823C29.3166 46.7859 29.3842 46.4043 29.0778 46.3497C27.9659 46.1427 26.8586 45.9152 25.7601 45.655C26.9439 46.1815 28.1383 46.7426 29.4344 46.9823V46.9823ZM28.1685 49.1249C26.8904 48.5601 25.6477 47.9185 24.447 47.2035C23.0119 46.3686 21.4726 45.6877 20.0975 44.7619C20.3101 45.0099 20.547 45.236 20.8045 45.437C22.4408 46.6428 24.112 47.8239 25.9478 48.7587C26.522 49.053 27.1469 49.251 27.7094 49.5642C27.8665 49.4193 28.0195 49.2729 28.1685 49.1249V49.1249ZM20.0739 45.6672C21.2079 46.9576 22.6431 47.9905 24.1171 48.9222C25.1151 49.572 26.2557 49.9881 27.3445 50.4852C27.3343 50.4133 27.3158 50.2734 27.3076 50.2031C26.125 49.5143 24.8622 48.941 23.7334 48.1729C22.5111 47.3375 21.2487 46.5572 20.0739 45.6656V45.6672ZM21.8021 48.732C22.8905 49.816 24.3025 50.5814 25.7899 51.0895C26.2938 51.2655 26.8418 51.2655 27.3708 51.2518C27.3374 51.1504 27.2671 50.9461 27.2333 50.8451C26.9254 50.7665 26.6155 50.6879 26.3158 50.585C23.8807 49.5689 21.5633 48.2397 19.7456 46.4043C20.2582 47.2955 21.0555 48.0063 21.8025 48.7292L21.8021 48.732ZM14.2217 30.3104C14.0693 31.5116 13.9016 32.7221 14.0057 33.9363C14.076 34.6624 13.999 35.418 14.2751 36.1142C14.5108 36.7672 14.9668 37.3279 15.2012 37.9825C15.543 38.8815 16.0037 39.7978 16.8324 40.3958C18.8324 41.8559 21.2173 42.7612 23.6207 43.4716C25.8229 44.0559 28.0118 44.7478 30.2946 44.9985C31.2372 45.1093 32.3912 45.0158 32.9423 44.1899C33.4061 43.5089 33.9242 42.7675 33.9474 41.94C33.4784 41.3011 32.5707 41.1408 31.8264 40.9007C30.1838 40.4709 28.6728 39.709 27.2703 38.8163C25.9305 38.146 24.7263 37.2376 23.7746 36.1315C23.409 35.6816 22.9816 35.2447 22.8198 34.6875C22.6725 34.242 22.711 33.7728 22.7346 33.3162C22.2115 34.0344 21.5784 34.6654 20.8587 35.1861C20.8756 34.0424 21.4046 33.0094 22.0244 32.0526C20.1686 32.4282 18.3147 33.0349 16.387 32.8601C16.8878 32.6011 17.4538 32.497 17.9848 32.31C20.852 31.4456 23.6458 30.303 26.1151 28.6778C24.7585 28.9847 23.3469 29.3415 21.9447 29.0971C21.374 29.0051 20.7664 28.9973 20.2452 28.7325C20.8061 28.6452 21.3756 28.6562 21.9416 28.6248C23.2412 28.5097 24.504 28.1839 25.7349 27.793C28.0212 26.7569 30.0947 25.3746 32.2918 24.1923C30.731 24.2418 29.1799 24.4151 27.6242 24.5117C26.7129 24.5192 25.8288 24.7498 24.9243 24.8139C25.3818 24.3962 26.0464 24.3337 26.6132 24.1066C27.7742 23.6591 29.0483 23.6155 30.2376 23.2634C31.0165 23.0391 31.837 23.019 32.6292 22.8631C35.029 22.4391 37.4603 22.0654 39.7537 21.2521C40.657 20.9684 41.5443 20.6368 42.4182 20.2781C45.0981 19.2824 47.2583 17.4455 49.3922 15.6974C50.382 14.8825 51.2748 13.9756 52.1907 13.0924C51.8408 13.0205 51.4892 12.9674 51.1342 12.9238C50.4908 13.8853 49.4452 14.5084 48.4912 15.1725C46.8365 16.3363 44.7933 17.0746 42.703 17.0608C40.5156 17.1465 38.2482 16.3846 36.7894 14.8326C35.3362 13.3682 34.8299 11.2366 35.1999 9.30464C35.302 8.69208 35.7643 8.2249 36.2097 7.79937C36.8063 7.22453 37.4666 6.53575 38.4006 6.54989C37.9501 7.07169 37.3456 7.47364 37.007 8.08227C35.5502 10.371 36.6319 13.5831 39.0404 14.919C40.1959 15.5752 41.5628 15.8228 42.899 15.8852C42.276 15.4302 41.8287 14.7556 41.8385 14.0016C41.8267 13.0837 41.9956 11.9619 42.9272 11.4476C42.7862 12.3061 42.4127 13.2114 42.8133 14.0574C43.3023 14.8161 44.285 15.31 45.2399 15.1949C46.6931 15.077 47.9598 14.3348 49.1738 13.6428C49.7237 13.3375 50.1452 12.8873 50.5741 12.4558C50.4039 12.2404 50.2599 12.0055 50.1452 11.7561C51.7162 12.0912 53.2755 12.6971 54.9236 12.4979C56.4644 12.4433 58.305 12.1128 59.1188 10.7451C58.2814 11.3698 57.1549 11.4743 56.1212 11.3899C54.9236 11.2048 53.761 10.804 52.7598 10.1577C52.2272 10.6001 51.6994 11.1034 50.981 11.2732C51.2759 10.6445 51.9291 10.2355 52.1935 9.59029C52.6675 8.57617 52.5957 7.44653 52.589 6.36837C52.5587 4.84149 52.5823 3.22502 53.4028 1.85296C53.5752 1.52565 53.902 1.31073 54.2068 1.09895C53.6569 0.835298 52.902 0.799543 52.4649 1.27026C52.0617 1.69763 51.764 2.21341 51.5956 2.77639C51.4273 3.33938 51.3928 3.93395 51.4951 4.51262C51.6915 5.75266 52.1349 7.11295 51.4633 8.2972C51.1283 8.80367 50.8789 9.46417 50.2324 9.68852C50.4704 8.95612 50.8439 8.2473 50.8706 7.46972C51.001 6.20295 50.5254 4.96919 50.5957 3.70556C50.6192 3.1429 50.8137 2.60539 51.001 2.07574C50.2273 2.46866 49.3514 2.51345 48.4908 2.54331C48.906 3.14762 48.8993 3.95153 48.4185 4.52362C47.479 5.5955 46.1377 6.33575 44.6872 6.62848C45.2666 6.66777 45.8655 6.73732 46.4339 6.58486C46.8915 6.45717 47.3302 6.27485 47.7992 6.18291C47.571 6.81708 46.7858 7.02258 46.1888 7.26422C44.6829 7.64417 42.9265 7.64142 41.6016 6.78132C40.7572 6.28271 40.1009 5.55817 39.2584 5.05956C38.7525 4.88039 38.1979 5.07331 37.6842 5.13814C35.8586 5.53106 34.0314 6.02299 32.3967 6.89566C29.8649 8.21194 27.3225 9.51957 24.8807 10.9777C20.7087 13.6142 16.9825 16.9764 14.4754 21.0776C13.4687 22.7055 12.6816 24.4618 12.261 26.3034C13.2594 23.9286 14.4031 21.5385 16.2338 19.6066C17.5233 18.5252 18.5967 17.2337 19.9467 16.2102C19.2735 17.2538 18.2703 18.0734 17.5284 19.0753C16.3442 20.7598 15.0932 22.4206 14.2523 24.287C12.8383 27.0901 12.149 30.2424 12.4754 33.3335C12.9982 32.2978 13.6329 31.3128 14.2225 30.3077L14.2217 30.3104ZM11.433 39.7306C9.62628 40.318 7.5878 40.2854 5.92953 41.2528C7.85803 41.2736 9.89768 40.8701 11.4322 39.7279L11.433 39.7306ZM5.1216 41.25C6.26063 40.1051 7.98882 39.7699 9.55636 39.4289C10.5159 39.2418 11.4856 38.9534 12.2244 38.3287C9.64356 39.72 6.39614 39.555 3.95272 41.23C4.34274 41.2438 4.73119 41.25 5.1216 41.25ZM3.09687 41.1895C4.55876 39.7621 6.73274 39.3165 8.69895 38.7994C10.2952 38.4815 11.8627 37.9126 13.0885 36.8828C12.8843 36.713 12.6863 36.7083 12.4974 36.8659C10.7673 38.113 8.51788 38.3303 6.54853 39.0984C4.98099 39.7271 3.41502 40.3951 2.03483 41.3404C2.38989 41.2999 2.75831 41.3015 3.09687 41.1895V41.1895Z" fill="black" fill-opacity="0.2"/>
<path d="M45.8752 4.72672C46.0496 4.54441 46.2538 4.3841 46.3913 4.17664C46.3477 3.67016 45.6391 4.01318 45.4282 4.24854C45.145 4.56287 45.6246 4.72004 45.9105 4.68311C45.4483 4.89803 44.9007 4.95422 44.3948 4.87328C44.0952 4.83124 43.9208 4.46661 44.0967 4.23439C44.4251 3.6906 45.0967 3.42577 45.7279 3.31968C46.0629 3.2576 46.5201 3.35426 46.592 3.71889C46.6607 4.16917 46.2644 4.52437 45.8752 4.72672Z" fill="#033059"/>
<path d="M45.8752 4.72672C46.0496 4.54441 46.2538 4.3841 46.3913 4.17664C46.3477 3.67016 45.6391 4.01318 45.4282 4.24854C45.145 4.56287 45.6246 4.72004 45.9105 4.68311C45.4483 4.89803 44.9007 4.95422 44.3948 4.87328C44.0952 4.83124 43.9208 4.46661 44.0967 4.23439C44.4251 3.6906 45.0967 3.42577 45.7279 3.31968C46.0629 3.2576 46.5201 3.35426 46.592 3.71889C46.6607 4.16917 46.2644 4.52437 45.8752 4.72672Z" fill="black" fill-opacity="0.2"/>
<path d="M23.6127 17.9268C25.0883 16.8691 26.9355 16.3017 28.7898 16.2274C30.9217 16.218 32.9382 15.1834 35.0921 15.5139C36.3447 15.5807 37.3329 16.7712 37.122 17.9107C36.9393 19.1307 35.8993 20.0875 34.7654 20.6281C33.1609 21.2933 31.3306 21.3884 29.6138 21.0996C28.1433 20.8639 26.7666 20.2784 25.2933 20.0729C23.9886 19.8827 22.714 20.4002 21.637 21.0387C21.4159 21.1448 21.1563 21.3739 20.9018 21.2057C20.7427 21.0623 20.7879 20.8332 20.9187 20.6914C21.6751 19.6659 22.5223 18.6686 23.6127 17.9268ZM32.3302 20.3201C32.4651 20.2286 32.6294 20.1914 32.7905 20.2159C33.3903 20.225 33.9531 19.9947 34.5073 19.8061C33.0183 20.1924 31.4476 19.9401 29.9567 20.2843C30.7426 20.3637 31.5447 20.4372 32.3302 20.3201V20.3201ZM28.4418 19.9602C30.4312 18.9865 32.8231 19.7531 34.8412 18.8682C35.3671 18.6109 36.1373 18.436 36.1876 17.7759C35.2481 18.2961 34.2214 18.6922 33.1444 18.8851C31.1366 19.2046 29.0278 18.9103 27.0816 19.5676C27.5219 19.7421 27.9822 19.856 28.443 19.9602H28.4418ZM26.1072 19.3464C26.5258 19.15 26.9009 18.8651 27.3617 18.748C29.2572 18.2262 31.2654 18.5594 33.1947 18.262C34.2198 18.0297 35.2583 17.7292 36.1373 17.1712C36.0588 17.064 35.9016 16.8471 35.8231 16.739C34.2913 17.7437 32.3545 17.8297 30.549 17.9201C29.2426 18.071 27.8829 17.9339 26.6233 18.3523C25.8376 18.6016 25.0718 18.9095 24.3322 19.2733C24.9257 19.2702 25.5172 19.3637 26.1083 19.3464H26.1072ZM24.2494 18.6451C25.5239 18.0686 26.8569 17.4922 28.2972 17.436C29.6327 17.3614 30.9681 17.2694 32.3035 17.1696C33.2815 17.0624 34.2846 16.8533 35.1255 16.3547C33.0937 15.9343 31.1586 16.9048 29.1413 16.897C26.5989 16.8816 24.097 17.9908 22.4571 19.7857C23.0616 19.4132 23.5875 18.935 24.2494 18.6451Z" fill="#033059"/>
<path d="M23.6127 17.9268C25.0883 16.8691 26.9355 16.3017 28.7898 16.2274C30.9217 16.218 32.9382 15.1834 35.0921 15.5139C36.3447 15.5807 37.3329 16.7712 37.122 17.9107C36.9393 19.1307 35.8993 20.0875 34.7654 20.6281C33.1609 21.2933 31.3306 21.3884 29.6138 21.0996C28.1433 20.8639 26.7666 20.2784 25.2933 20.0729C23.9886 19.8827 22.714 20.4002 21.637 21.0387C21.4159 21.1448 21.1563 21.3739 20.9018 21.2057C20.7427 21.0623 20.7879 20.8332 20.9187 20.6914C21.6751 19.6659 22.5223 18.6686 23.6127 17.9268ZM32.3302 20.3201C32.4651 20.2286 32.6294 20.1914 32.7905 20.2159C33.3903 20.225 33.9531 19.9947 34.5073 19.8061C33.0183 20.1924 31.4476 19.9401 29.9567 20.2843C30.7426 20.3637 31.5447 20.4372 32.3302 20.3201V20.3201ZM28.4418 19.9602C30.4312 18.9865 32.8231 19.7531 34.8412 18.8682C35.3671 18.6109 36.1373 18.436 36.1876 17.7759C35.2481 18.2961 34.2214 18.6922 33.1444 18.8851C31.1366 19.2046 29.0278 18.9103 27.0816 19.5676C27.5219 19.7421 27.9822 19.856 28.443 19.9602H28.4418ZM26.1072 19.3464C26.5258 19.15 26.9009 18.8651 27.3617 18.748C29.2572 18.2262 31.2654 18.5594 33.1947 18.262C34.2198 18.0297 35.2583 17.7292 36.1373 17.1712C36.0588 17.064 35.9016 16.8471 35.8231 16.739C34.2913 17.7437 32.3545 17.8297 30.549 17.9201C29.2426 18.071 27.8829 17.9339 26.6233 18.3523C25.8376 18.6016 25.0718 18.9095 24.3322 19.2733C24.9257 19.2702 25.5172 19.3637 26.1083 19.3464H26.1072ZM24.2494 18.6451C25.5239 18.0686 26.8569 17.4922 28.2972 17.436C29.6327 17.3614 30.9681 17.2694 32.3035 17.1696C33.2815 17.0624 34.2846 16.8533 35.1255 16.3547C33.0937 15.9343 31.1586 16.9048 29.1413 16.897C26.5989 16.8816 24.097 17.9908 22.4571 19.7857C23.0616 19.4132 23.5875 18.935 24.2494 18.6451Z" fill="black" fill-opacity="0.2"/>
</svg>
